<svg width="49" height="49" viewBox="0 0 49 49" fill="none" xmlns="http://www.w3.org/2000/svg">
<path d="M46.375 38.5H10.325C10.325 38.325 10.325 38.325 10.15 38.15C9.275 36.05 8.75 33.95 8.75 31.5C8.75 22.75 15.75 15.75 24.5 15.75C27.125 15.75 29.575 16.45 31.85 17.5C33.25 18.2 34.65 19.25 35.875 20.475C38.6986 23.4495 40.2658 27.3987 40.25 31.5C40.25 32.9 41.475 34.125 42.875 34.125C44.275 34.125 45.5 33.075 45.5 31.5C45.5 26.075 43.4 20.825 39.55 16.975C37.975 15.4 36.225 14 34.3 12.95C31.325 11.375 28 10.5 24.5 10.5C12.95 10.5 3.5 19.95 3.5 31.5C3.5 33.95 3.85 36.225 4.725 38.5H2.625C1.225 38.5 0 39.725 0 41.125C0 42.525 1.225 43.75 2.625 43.75H46.375C47.775 43.75 49 42.525 49 41.125C49 39.725 47.775 38.5 46.375 38.5ZM41.125 45.5H7.875C6.825 45.5 6.125 46.2 6.125 47.25C6.125 48.3 6.825 49 7.875 49H41.125C42.175 49 42.875 48.3 42.875 47.25C42.875 46.2 42.175 45.5 41.125 45.5ZM24.5 8.75C25.55 8.75 26.25 8.05 26.25 7V1.75C26.25 0.7 25.55 8.20313e-08 24.5 0C23.45 -8.20312e-08 22.75 0.7 22.75 1.75V7C22.75 8.05 23.45 8.75 24.5 8.75ZM43.75 17.5C44.275 17.5 44.625 17.325 44.975 16.975L48.475 13.475C49.175 12.775 49.175 11.725 48.475 11.025C47.775 10.325 46.725 10.325 46.025 11.025L42.525 14.525C41.825 15.225 41.825 16.275 42.525 16.975C42.875 17.325 43.225 17.5 43.75 17.5ZM4.025 16.975C4.375 17.325 4.9 17.5 5.25 17.5C5.6 17.5 6.125 17.325 6.475 16.975C7.175 16.275 7.175 15.225 6.475 14.525L2.975 11.025C2.275 10.325 1.225 10.325 0.525 11.025C-0.175 11.725 -0.175 12.775 0.525 13.475L4.025 16.975Z" fill="#2F2F2F"/>
<path fill-rule="evenodd" clip-rule="evenodd" d="M38 32.5C37.2653 23.5 32.7654 19 24.5 19C16.2346 19 11.7347 23.5 11 32.5H38Z" fill="#FF6947"/>
</svg>
