<svg width="242" height="197" viewBox="0 0 242 197" fill="none" xmlns="http://www.w3.org/2000/svg">
<g clip-path="url(#clip0)">
<path d="M70.9333 185.645C71.857 186.522 72.991 187.146 74.2261 187.457C75.4612 187.769 76.7559 187.758 77.9853 187.424C81.1362 186.53 83.2747 183.69 85.1726 181.022L90.7887 173.134L86.0557 174.001C82.6519 174.625 79.164 175.279 76.1997 177.064C73.2355 178.848 70.8613 182.034 71.049 185.487" fill="#E6E6E6"/>
<path d="M66.534 196.271C67.364 193.443 68.1989 190.576 69.6644 187.999C70.966 185.71 72.7444 183.701 75.0907 182.453C76.3351 181.792 77.6855 181.353 79.0809 181.156C79.4448 181.104 79.5041 181.67 79.1419 181.722C76.7259 182.067 74.4819 183.169 72.7335 184.871C70.7953 186.766 69.524 189.209 68.5841 191.723C68.0149 193.243 67.5558 194.801 67.0988 196.358C67.0852 196.432 67.044 196.498 66.9836 196.542C66.9231 196.586 66.848 196.606 66.7737 196.596C66.6991 196.584 66.6323 196.544 66.5877 196.483C66.543 196.422 66.5242 196.346 66.5353 196.271L66.534 196.271Z" fill="#F2F2F2"/>
<path d="M157.93 82.3697C158.47 82.2398 159.031 82.2297 159.575 82.34C160.119 82.4504 160.632 82.6785 161.078 83.0084C161.524 83.3382 161.892 83.7618 162.156 84.2493C162.421 84.7367 162.575 85.2762 162.608 85.8296L175.593 89.4771L170.295 94.0625L158.776 89.8958C157.842 89.89 156.943 89.5419 156.248 88.9176C155.554 88.2933 155.112 87.4361 155.008 86.5084C154.904 85.5807 155.144 84.647 155.682 83.8842C156.221 83.1214 157.021 82.5826 157.93 82.3697L157.93 82.3697Z" fill="#FFB7B7"/>
<path d="M191.298 192.851L187.513 192.851L185.712 178.263L191.298 178.263L191.298 192.851Z" fill="#FFB7B7"/>
<path d="M192.263 196.517L180.059 196.517V196.362C180.059 195.103 180.559 193.896 181.45 193.006C182.341 192.116 183.549 191.616 184.809 191.616H184.809L192.263 191.616L192.263 196.517Z" fill="#2F2E41"/>
<path d="M213.476 192.851L209.691 192.851L207.89 178.263L213.476 178.263L213.476 192.851Z" fill="#FFB7B7"/>
<path d="M214.441 196.517L202.237 196.517V196.362C202.237 195.103 202.737 193.896 203.628 193.006C204.519 192.116 205.727 191.616 206.987 191.616H206.987L214.441 191.616L214.441 196.517Z" fill="#2F2E41"/>
<path d="M188.205 109.123L182.629 147.712L184.018 188.369L192.391 189.036L195.009 152.574L201.673 132.242L205.591 161.224L205.752 188.369L214.397 189.036L217.412 131.966L215.194 107.147L188.205 109.123Z" fill="#2F2E41"/>
<path d="M204.33 57.4568C209.201 57.4568 213.15 53.5109 213.15 48.6434C213.15 43.776 209.201 39.8301 204.33 39.8301C199.459 39.8301 195.51 43.776 195.51 48.6434C195.51 53.5109 199.459 57.4568 204.33 57.4568Z" fill="#FFB7B7"/>
<path d="M198.894 62.251L189.157 111.268C189.157 111.268 205.551 115.97 212.733 111.63C219.914 107.289 216.696 93.8902 216.696 93.8902L215.381 71.0908L212.95 65.3252L210.888 60.5659L198.894 62.251Z" fill="#CBCBCB"/>
<path d="M196.044 97.0447L199.408 61.2993L196.718 63.2617L187.312 66.314L186.669 91.4801L180.089 124.574C180.089 124.574 184.792 133.743 190.62 118.573L196.044 97.0447Z" fill="#2F2E41"/>
<path d="M191.839 70.0779L187.312 66.314L177.139 88.3967L165.787 85.9119L165.25 92.6114L181.698 99.1158L192.907 83.5233L191.839 70.0779Z" fill="#2F2E41"/>
<path d="M209.448 89.2207L210.715 60.1289L215.381 63.7389L223.712 66.0595L222.491 89.2207L224.249 125.159L215.514 127.924L213.062 105.246L209.448 89.2207Z" fill="#2F2E41"/>
<path d="M210.008 112.639C210.106 112.093 210.322 111.575 210.642 111.122C210.962 110.669 211.377 110.291 211.858 110.016C212.34 109.74 212.876 109.573 213.429 109.527C213.982 109.481 214.538 109.557 215.059 109.749L223.619 99.333L225.692 106.024L217.245 114.889C216.865 115.741 216.184 116.425 215.333 116.809C214.482 117.194 213.519 117.253 212.627 116.976C211.735 116.699 210.975 116.104 210.493 115.305C210.01 114.505 209.838 113.557 210.008 112.639V112.639Z" fill="#FFB7B7"/>
<path d="M218.134 69.2884L223.712 66.0591L237.748 93.7559L224.063 112.744L216.258 106.508L225.736 94.1579L217.098 80.8929L218.134 69.2884Z" fill="#2F2E41"/>
<path d="M212.626 41.598L213.053 40.738L210.902 39.6698C210.902 39.6698 208.528 35.8108 204.234 36.8953C199.939 37.9798 198.006 38.6288 198.006 38.6288L195.86 39.7078L196.937 40.7787L195.005 41.4277L196.296 42.0686L194.794 42.9313L195.603 47.3537C195.603 47.3537 196.945 43.9995 199.527 45.2813C202.109 46.5631 206.832 44.6187 206.832 44.6187L210.934 52.553C210.934 52.553 211.781 49.7716 213.29 50.5132C213.29 50.5133 217.145 44.3779 212.626 41.598Z" fill="#2F2E41"/>
<path d="M159.05 54.5278H158.994L126.649 68.3291L82.3936 87.2123C82.2206 87.285 82.0351 87.3229 81.8475 87.3239C81.6599 87.3248 81.4739 87.2888 81.3002 87.2179L35.6419 68.2897L2.5019 54.5503L2.45128 54.5278H2.39487C1.87197 54.5284 1.37065 54.7362 1.00091 55.1057C0.631167 55.4752 0.42319 55.9761 0.422607 56.4986V142.088C0.423191 142.611 0.631167 143.112 1.00091 143.481C1.37065 143.85 1.87197 144.058 2.39487 144.059H159.05C159.573 144.058 160.075 143.85 160.444 143.481C160.814 143.112 161.022 142.611 161.023 142.088V56.4986C161.022 55.9761 160.814 55.4752 160.444 55.1057C160.075 54.7362 159.573 54.5284 159.05 54.5278V54.5278Z" fill="white"/>
<path d="M159.191 55.0911C159.134 55.0911 159.077 55.0735 159.03 55.0407L81.1085 0.814239C80.8714 0.649982 80.5896 0.5622 80.3011 0.562691C80.0125 0.563183 79.7311 0.651922 79.4945 0.816986L2.13401 55.0401C2.07281 55.0829 1.99713 55.0996 1.92359 55.0867C1.85004 55.0737 1.78465 55.0321 1.74177 54.971C1.69889 54.91 1.68203 54.8344 1.69489 54.7608C1.70775 54.6873 1.74928 54.6219 1.81036 54.579L79.1709 0.355921C79.5022 0.124872 79.8962 0.000666015 80.3002 2.67096e-06C80.7041 -0.000660673 81.0986 0.122249 81.4306 0.352209L159.352 54.5785C159.402 54.6128 159.439 54.6618 159.458 54.7186C159.477 54.7753 159.478 54.8367 159.46 54.8939C159.442 54.9511 159.406 55.0011 159.358 55.0365C159.31 55.072 159.251 55.0911 159.191 55.0911L159.191 55.0911Z" fill="#3F3D56"/>
<path d="M6.55469 57.0135L80.3777 2.34229L154.761 60.9035L84.1812 102.713L45.8627 93.985L6.55469 57.0135Z" fill="#E6E6E6"/>
<path d="M49.0974 128.537H12.6269C12.403 128.537 12.1811 128.494 11.974 128.409C11.7669 128.323 11.5786 128.198 11.4199 128.04C11.2612 127.883 11.1352 127.695 11.0491 127.488C10.963 127.282 10.9185 127.06 10.9182 126.836C10.9179 126.613 10.9617 126.391 11.0472 126.184C11.1326 125.977 11.2581 125.789 11.4163 125.631C11.5745 125.473 11.7625 125.347 11.9693 125.261C12.1762 125.176 12.398 125.131 12.6219 125.131H49.0974C49.3213 125.131 49.5432 125.174 49.7503 125.259C49.9574 125.344 50.1457 125.47 50.3044 125.627C50.4631 125.785 50.5891 125.973 50.6752 126.18C50.7613 126.386 50.8057 126.608 50.8061 126.831C50.8064 127.055 50.7626 127.277 50.6771 127.484C50.5916 127.691 50.4662 127.879 50.308 128.037C50.1497 128.195 49.9618 128.321 49.7549 128.407C49.5481 128.492 49.3263 128.537 49.1024 128.537H49.0974Z" fill="#EB7C6F"/>
<path d="M25.7117 121.216H12.6269C12.403 121.217 12.1811 121.173 11.974 121.088C11.7669 121.003 11.5786 120.878 11.4199 120.72C11.2612 120.562 11.1352 120.375 11.0491 120.168C10.963 119.961 10.9185 119.74 10.9182 119.516C10.9179 119.292 10.9617 119.071 11.0472 118.864C11.1326 118.657 11.2581 118.469 11.4163 118.311C11.5745 118.152 11.7625 118.027 11.9693 117.941C12.1762 117.855 12.398 117.811 12.6219 117.811H25.7117C26.1632 117.811 26.5963 117.99 26.9158 118.309C27.2353 118.628 27.4151 119.06 27.4158 119.511C27.4165 119.962 27.2379 120.395 26.9194 120.715C26.6008 121.035 26.1683 121.215 25.7168 121.216H25.7117Z" fill="#EB7C6F"/>
<path d="M81.416 87.4642C81.1388 87.4645 80.8642 87.4108 80.6076 87.306L35.0786 68.4288V9.33995C35.0792 8.81745 35.2872 8.31652 35.6569 7.94706C36.0267 7.57759 36.528 7.36976 37.0509 7.36914H124.395C124.918 7.36976 125.419 7.57759 125.789 7.94706C126.159 8.31652 126.366 8.81745 126.367 9.33995V68.47L126.282 68.5066L82.2488 87.2968C81.9851 87.4075 81.702 87.4644 81.416 87.4642V87.4642Z" fill="#E9796B"/>
<path d="M158.628 54.5278H158.572L126.226 68.3291L81.9709 87.2123C81.798 87.285 81.6124 87.3229 81.4248 87.3239C81.2372 87.3248 81.0513 87.2888 80.8776 87.2179L35.2193 68.2897L2.07933 54.5503L2.02871 54.5278H1.97226C1.44936 54.5284 0.948047 54.7362 0.578303 55.1057C0.208559 55.4752 0.000581534 55.9761 0 56.4986V142.088C0.000581536 142.611 0.208559 143.112 0.578303 143.481C0.948048 143.85 1.44936 144.058 1.97226 144.059H158.628C159.151 144.058 159.652 143.85 160.022 143.481C160.392 143.112 160.6 142.611 160.6 142.088V56.4986C160.6 55.9761 160.392 55.4752 160.022 55.1057C159.652 54.7362 159.151 54.5284 158.628 54.5278ZM160.037 142.088C160.037 142.461 159.888 142.819 159.624 143.083C159.36 143.347 159.001 143.496 158.628 143.496H1.97226C1.59867 143.496 1.24043 143.347 0.976266 143.083C0.7121 142.819 0.563625 142.461 0.563476 142.088V56.4986C0.563987 56.1346 0.7053 55.7849 0.957872 55.5225C1.21044 55.2602 1.55472 55.1055 1.91874 55.0909L35.2193 68.8978L80.6608 87.7388C81.1527 87.9388 81.7039 87.9358 82.1935 87.7304L126.226 68.9401L158.684 55.0909C159.048 55.1066 159.391 55.2617 159.643 55.5239C159.895 55.7861 160.036 56.1352 160.037 56.4986L160.037 142.088Z" fill="#3F3D56"/>
<path d="M74.3279 29.4569H43.3348C42.7377 29.4558 42.1654 29.2181 41.7435 28.7958C41.3217 28.3735 41.0847 27.8012 41.0847 27.2045C41.0847 26.6078 41.3217 26.0355 41.7435 25.6132C42.1654 25.191 42.7377 24.9532 43.3348 24.9521H74.3279C74.925 24.9532 75.4973 25.191 75.9192 25.6132C76.341 26.0355 76.578 26.6078 76.578 27.2045C76.578 27.8012 76.341 28.3735 75.9192 28.7958C75.4973 29.2181 74.925 29.4558 74.3279 29.4569V29.4569Z" fill="white"/>
<path d="M58.2678 19.8846H43.3348C42.737 19.8846 42.1637 19.6473 41.741 19.2249C41.3183 18.8025 41.0808 18.2296 41.0808 17.6322C41.0808 17.0349 41.3183 16.462 41.741 16.0396C42.1637 15.6172 42.737 15.3799 43.3348 15.3799H58.2678C58.8657 15.3799 59.439 15.6172 59.8617 16.0396C60.2844 16.462 60.5219 17.0349 60.5219 17.6322C60.5219 18.2296 60.2844 18.8025 59.8617 19.2249C59.439 19.6473 58.8657 19.8846 58.2678 19.8846V19.8846Z" fill="white"/>
<path d="M103.903 51.9803H56.5685C55.9707 51.9803 55.3974 51.743 54.9746 51.3206C54.5519 50.8982 54.3145 50.3253 54.3145 49.7279C54.3145 49.1306 54.5519 48.5577 54.9746 48.1353C55.3974 47.7129 55.9707 47.4756 56.5685 47.4756H103.903C104.501 47.4756 105.074 47.7129 105.497 48.1353C105.92 48.5577 106.157 49.1306 106.157 49.7279C106.157 50.3253 105.92 50.8982 105.497 51.3206C105.074 51.743 104.501 51.9803 103.903 51.9803V51.9803Z" fill="white"/>
<path d="M103.903 62.3978H56.5683C56.2719 62.3983 55.9784 62.3404 55.7045 62.2275C55.4306 62.1145 55.1816 61.9487 54.9719 61.7395C54.7622 61.5303 54.5958 61.2818 54.4823 61.0083C54.3687 60.7348 54.3103 60.4415 54.3103 60.1454C54.3103 59.8493 54.3687 59.5561 54.4823 59.2826C54.5958 59.0091 54.7622 58.7606 54.9719 58.5514C55.1816 58.3422 55.4306 58.1764 55.7045 58.0634C55.9784 57.9504 56.2719 57.8926 56.5683 57.8931H103.903C104.199 57.8926 104.493 57.9504 104.767 58.0634C105.041 58.1764 105.29 58.3422 105.499 58.5514C105.709 58.7606 105.876 59.0091 105.989 59.2826C106.103 59.5561 106.161 59.8493 106.161 60.1454C106.161 60.4415 106.103 60.7348 105.989 61.0083C105.876 61.2818 105.709 61.5303 105.499 61.7395C105.29 61.9487 105.041 62.1145 104.767 62.2275C104.493 62.3404 104.199 62.3983 103.903 62.3978V62.3978Z" fill="white"/>
<path d="M241.656 196.873H151.226C151.135 196.873 151.048 196.837 150.983 196.772C150.919 196.708 150.883 196.62 150.883 196.529C150.883 196.438 150.919 196.351 150.983 196.286C151.048 196.222 151.135 196.186 151.226 196.186H241.656C241.747 196.186 241.835 196.222 241.899 196.286C241.964 196.351 242 196.438 242 196.529C242 196.62 241.964 196.708 241.899 196.772C241.835 196.837 241.747 196.873 241.656 196.873Z" fill="#CBCBCB"/>
<path d="M83.8339 196.873H50.4815C50.3903 196.873 50.3029 196.837 50.2384 196.772C50.1739 196.708 50.1377 196.62 50.1377 196.529C50.1377 196.438 50.1739 196.351 50.2384 196.286C50.3029 196.222 50.3903 196.186 50.4815 196.186H83.8339C83.9251 196.186 84.0126 196.222 84.0771 196.286C84.1416 196.351 84.1778 196.438 84.1778 196.529C84.1778 196.62 84.1416 196.708 84.0771 196.772C84.0126 196.837 83.9251 196.873 83.8339 196.873Z" fill="#CBCBCB"/>
<path d="M62.7451 186.25C64.0187 186.221 65.2633 185.864 66.3589 185.215C67.4546 184.566 68.3645 183.645 69.0008 182.542C70.6043 179.688 70.1159 176.167 69.5791 172.939L67.9943 163.388L65.2505 167.338C63.277 170.179 61.266 173.101 60.4236 176.455C59.5812 179.809 60.146 183.741 62.7156 186.056" fill="#E6E6E6"/>
<path d="M67.1249 196.884C65.7176 194.294 64.2865 191.673 63.5066 188.813C62.8142 186.273 62.6578 183.596 63.4402 181.057C63.8562 179.711 64.5038 178.449 65.3541 177.326C65.5759 177.033 66.0173 177.392 65.7968 177.684C64.3272 179.631 63.5143 181.994 63.4753 184.432C63.4383 187.142 64.2609 189.77 65.3689 192.215C66.0382 193.694 66.8117 195.122 67.5867 196.548C67.6291 196.61 67.6462 196.685 67.6346 196.759C67.623 196.833 67.5835 196.9 67.5243 196.946C67.463 196.99 67.3869 197.008 67.3123 196.996C67.2377 196.985 67.1708 196.944 67.126 196.883L67.1249 196.884Z" fill="#F2F2F2"/>
</g>
<defs>
<clipPath id="clip0">
<rect width="242" height="197" fill="white"/>
</clipPath>
</defs>
</svg>
