<svg width="305" height="164" viewBox="0 0 305 164" fill="none" xmlns="http://www.w3.org/2000/svg">
<path d="M47.4904 148.919C47.4904 148.919 26.3817 113.937 32.3043 82.5471C34.7942 69.3722 33.1933 55.7414 27.2865 43.706C24.4746 38.0004 21.1461 32.5646 17.3428 27.4668" stroke="#535461" stroke-width="2" stroke-miterlimit="10"/>
<path d="M20.975 7.66639C22.1931 12.3134 17.3209 27.9954 17.3209 27.9954C17.3209 27.9954 5.3776 16.7293 4.15638 12.0823C3.56902 9.85078 3.8917 7.47719 5.05343 5.4837C6.21516 3.49021 8.12077 2.04013 10.3511 1.45244C12.5814 0.864755 14.9536 1.18761 16.946 2.34998C18.9384 3.51236 20.3877 5.41903 20.975 7.65056V7.66639Z" fill="#6C63FF"/>
<path d="M41.628 29.7557C40.1284 34.3204 27.5175 44.8331 27.5175 44.8331C27.5175 44.8331 23.6103 28.882 25.1131 24.3173C25.4577 23.2173 26.0173 22.1968 26.7596 21.3151C27.5018 20.4335 28.4117 19.7082 29.4365 19.1814C30.4613 18.6547 31.5805 18.337 32.7291 18.2469C33.8777 18.1567 35.0327 18.2958 36.1271 18.6562C37.2215 19.0166 38.2333 19.591 39.1039 20.3461C39.9744 21.1012 40.6863 22.0218 41.1981 23.0546C41.71 24.0873 42.0115 25.2116 42.0853 26.3619C42.1591 27.5123 42.0037 28.6659 41.628 29.7557V29.7557Z" fill="#6C63FF"/>
<path d="M52.559 73.8989C48.9617 77.0644 32.7695 79.7868 32.7695 79.7868C32.7695 79.7868 37.4456 64.0445 41.0428 60.8632C42.7758 59.3731 45.0254 58.6255 47.3051 58.7822C49.5847 58.9389 51.711 59.9872 53.2241 61.7004C54.7372 63.4136 55.5154 65.6539 55.3903 67.9368C55.2652 70.2196 54.247 72.3614 52.5558 73.8989H52.559Z" fill="#6C63FF"/>
<path d="M53.315 109.163C50.3062 112.908 34.8069 118.312 34.8069 118.312C34.8069 118.312 36.7558 102.003 39.7645 98.261C41.2138 96.4765 43.3102 95.3387 45.5955 95.0963C47.8808 94.854 50.1691 95.5268 51.96 96.9677C53.7509 98.4086 54.8988 100.5 55.1527 102.786C55.4066 105.071 54.7459 107.364 53.315 109.163Z" fill="#6C63FF"/>
<path d="M10.0977 50.3694C14.2771 52.7309 30.6623 52.0092 30.6623 52.0092C30.6623 52.0092 22.8161 37.5838 18.6399 35.2318C17.6442 34.6356 16.5392 34.2447 15.3902 34.0825C14.2411 33.9202 13.0712 33.9897 11.9494 34.2869C10.8277 34.5841 9.77669 35.1031 8.8585 35.8131C7.94031 36.5231 7.17347 37.4099 6.6032 38.4211C6.03292 39.4323 5.67074 40.5475 5.53801 41.701C5.40528 42.8545 5.50469 44.0229 5.83037 45.1373C6.15605 46.2517 6.70141 47.2896 7.43431 48.1899C8.16721 49.0901 9.07281 49.8344 10.0977 50.3789V50.3694Z" fill="#6C63FF"/>
<path d="M11.5025 91.6006C16.1976 92.6041 31.6305 87.0043 31.6305 87.0043C31.6305 87.0043 19.8359 75.5893 15.1314 74.5827C12.8763 74.1012 10.5225 74.5358 8.58764 75.7907C6.65281 77.0457 5.29549 79.0183 4.81428 81.2746C4.33306 83.5309 4.76736 85.8861 6.02165 87.822C7.27594 89.7579 9.24746 91.116 11.5025 91.5975V91.6006Z" fill="#6C63FF"/>
<path d="M18.3647 131.486C22.8225 133.268 38.9799 130.359 38.9799 130.359C38.9799 130.359 29.2766 117.112 24.8188 115.329C22.6992 114.568 20.367 114.659 18.3134 115.584C16.2597 116.509 14.6448 118.195 13.8088 120.287C12.9727 122.38 12.9808 124.715 13.8311 126.801C14.6815 128.888 16.3079 130.563 18.3679 131.474L18.3647 131.486Z" fill="#6C63FF"/>
<path d="M20.975 7.66639C22.1931 12.3134 17.3209 27.9954 17.3209 27.9954C17.3209 27.9954 5.3776 16.7293 4.15638 12.0823C3.56902 9.85078 3.8917 7.47719 5.05343 5.4837C6.21516 3.49021 8.12077 2.04013 10.3511 1.45244C12.5814 0.864755 14.9536 1.18761 16.946 2.34998C18.9384 3.51236 20.3877 5.41903 20.975 7.65056V7.66639Z" fill="#489CEA"/>
<path d="M41.628 29.7557C40.1284 34.3204 27.5175 44.8331 27.5175 44.8331C27.5175 44.8331 23.6103 28.882 25.1131 24.3173C25.4577 23.2173 26.0173 22.1968 26.7596 21.3151C27.5018 20.4335 28.4117 19.7082 29.4365 19.1814C30.4613 18.6547 31.5805 18.337 32.7291 18.2469C33.8777 18.1567 35.0327 18.2958 36.1271 18.6562C37.2215 19.0166 38.2333 19.591 39.1039 20.3461C39.9744 21.1012 40.6863 22.0218 41.1981 23.0546C41.71 24.0873 42.0115 25.2116 42.0853 26.3619C42.1591 27.5123 42.0037 28.6659 41.628 29.7557V29.7557Z" fill="#489CEA"/>
<path d="M52.559 73.8989C48.9617 77.0644 32.7695 79.7868 32.7695 79.7868C32.7695 79.7868 37.4456 64.0445 41.0428 60.8632C42.7758 59.3731 45.0254 58.6255 47.3051 58.7822C49.5847 58.9389 51.711 59.9872 53.2241 61.7004C54.7372 63.4136 55.5154 65.6539 55.3903 67.9368C55.2652 70.2196 54.247 72.3614 52.5558 73.8989H52.559Z" fill="#FC6681"/>
<path d="M53.315 109.163C50.3062 112.908 34.8069 118.312 34.8069 118.312C34.8069 118.312 36.7558 102.003 39.7645 98.261C41.2138 96.4765 43.3102 95.3387 45.5955 95.0963C47.8808 94.854 50.1691 95.5268 51.96 96.9677C53.7509 98.4086 54.8988 100.5 55.1527 102.786C55.4066 105.071 54.7459 107.364 53.315 109.163Z" fill="#FC6681"/>
<path d="M10.0977 50.3694C14.2771 52.7309 30.6623 52.0092 30.6623 52.0092C30.6623 52.0092 22.8161 37.5838 18.6399 35.2318C17.6442 34.6356 16.5392 34.2447 15.3902 34.0825C14.2411 33.9202 13.0712 33.9897 11.9494 34.2869C10.8277 34.5841 9.77669 35.1031 8.8585 35.8131C7.94031 36.5231 7.17347 37.4099 6.6032 38.4211C6.03292 39.4323 5.67074 40.5475 5.53801 41.701C5.40528 42.8545 5.50469 44.0229 5.83037 45.1373C6.15605 46.2517 6.70141 47.2896 7.43431 48.1899C8.16721 49.0901 9.07281 49.8344 10.0977 50.3789V50.3694Z" fill="#489CEA"/>
<path d="M11.5025 91.6006C16.1976 92.6041 31.6305 87.0043 31.6305 87.0043C31.6305 87.0043 19.8359 75.5893 15.1314 74.5827C12.8763 74.1012 10.5225 74.5358 8.58764 75.7907C6.65281 77.0457 5.29549 79.0183 4.81428 81.2746C4.33306 83.5309 4.76736 85.8861 6.02165 87.822C7.27594 89.7579 9.24746 91.116 11.5025 91.5975V91.6006Z" fill="#489CEA"/>
<path d="M18.3647 131.486C22.8225 133.268 38.9799 130.359 38.9799 130.359C38.9799 130.359 29.2766 117.112 24.8188 115.329C22.6992 114.568 20.367 114.659 18.3134 115.584C16.2597 116.509 14.6448 118.195 13.8088 120.287C12.9727 122.38 12.9808 124.715 13.8311 126.801C14.6815 128.888 16.3079 130.563 18.3679 131.474L18.3647 131.486Z" fill="#489CEA"/>
<path opacity="0.1" d="M152.981 163.354C236.939 163.354 305 158.677 305 152.908C305 147.138 236.939 142.461 152.981 142.461C69.0224 142.461 0.960938 147.138 0.960938 152.908C0.960938 158.677 69.0224 163.354 152.981 163.354Z" fill="#489CEA"/>
<path d="M283.793 143.959C283.793 143.959 283.54 143.62 283.189 143.24L283.29 143.205C283.29 143.205 278.772 131.908 279.778 127.137C280.784 122.367 275.763 110.819 275.763 110.819C275.763 110.819 268.357 95.6432 271.862 83.5319C272.263 82.1054 272.565 80.6533 272.767 79.1856C273.814 72.0125 273.444 70.5342 271.688 67.9131L271.495 67.6314C271.712 67.4204 271.883 67.1672 271.998 66.8875C273.504 62.8704 264.975 55.5897 267.243 48.8091C269.338 42.5255 263.887 29.5595 263.077 27.695L262.985 27.4829L262.713 27.5715C262.758 25.9524 263.395 24.4061 264.503 23.2252L264.554 23.1746C265.307 22.4813 266.221 21.9717 266.927 21.2278L266.968 21.1803C267.038 21.1138 267.11 21.0474 267.177 20.9777C267.876 20.2433 268.354 19.1544 267.974 18.211C267.629 17.35 266.661 16.8245 266.433 15.9255C266.379 15.5213 266.345 15.1145 266.332 14.7068C266.149 13.4406 264.918 12.646 263.801 12.0192C262.412 11.2342 260.954 10.4365 259.35 10.4175C257.179 10.4175 255.237 11.8736 253.082 12.0541C252.348 12.1174 251.586 12.0287 250.89 12.2725C250.359 12.4934 249.872 12.8063 249.45 13.1968C249.202 13.392 248.968 13.6035 248.748 13.8299C248.261 14.2858 247.846 14.8239 247.865 15.4697C247.9 15.9412 248.121 16.3795 248.479 16.6884C247.784 17.6335 247.305 18.7193 247.075 19.8696C246.845 21.0198 246.869 22.2065 247.146 23.3463C247.423 24.4861 247.946 25.5514 248.679 26.4673C249.412 27.3832 250.336 28.1275 251.386 28.6478C251.412 28.8219 251.437 28.9992 251.462 29.1859C251.779 31.5633 251.965 34.9251 251.121 37.5588C247.517 39.417 241.901 42.4464 240.895 43.7917C240.817 43.9056 240.765 44.035 240.742 44.1712C240.719 44.3073 240.726 44.4468 240.762 44.5799C240.734 44.7034 240.728 44.8309 240.743 44.9566C239.956 45.1371 238.908 44.9567 237.633 43.7917C234.622 41.0314 225.089 32.744 225.089 32.744C225.089 32.744 220.824 22.1996 217.812 24.1971C214.801 26.1945 221.324 35.9982 221.324 35.9982L235.606 51.3194C235.606 51.3194 236.109 54.583 241.376 52.8262C243.116 52.2469 244.689 51.6929 246.018 51.2149L246.334 51.484C245.147 58.4292 244.534 67.6852 248.909 70.4012C249.252 70.8557 249.499 71.3747 249.637 71.927C249.615 72.0093 249.593 72.0948 249.574 72.1771C249.238 73.5632 249.027 74.9764 248.941 76.3999C248.116 78.2868 247.736 80.3382 247.83 82.3954L246.154 106.298C246.154 106.298 245.904 111.569 247.66 115.586C249.415 119.603 254.936 139.689 251.171 141.195L251.529 141.243C250.45 142.354 248.634 144.038 247.251 144.37C245.151 144.87 245.739 148.093 250.396 148.631C255.053 149.169 255.613 149.125 258.888 146.393C261.773 143.987 262.232 142.911 262.298 142.68L262.463 142.702C262.463 142.702 260.707 136.175 262.463 133.414C264.219 130.654 258.451 113.836 258.451 113.836C258.403 111.687 258.482 109.536 258.688 107.397C259.574 109.717 260.207 111.325 260.207 111.325C260.207 111.325 261.713 118.606 263.469 119.872C265.225 121.138 274.511 138.451 273.005 145.982L272.831 146.858L273.254 146.735H273.292C272.713 148.169 271.66 150.435 270.496 151.268C268.74 152.534 270.496 155.285 275.014 154.028C279.531 152.772 280.031 152.522 282.04 148.758C284.049 144.994 283.793 143.959 283.793 143.959Z" fill="url(#paint0_linear)"/>
<path d="M250.542 76.9254L249.441 75.5674C248.315 77.6607 247.778 80.0207 247.887 82.3954L246.249 105.767C246.249 105.767 246.002 110.92 247.72 114.849C249.438 118.777 254.835 138.413 251.156 139.885L262.181 141.376C262.181 141.376 260.463 134.994 262.181 132.294C263.899 129.594 258.255 113.149 258.255 113.149C258.255 113.149 257.765 99.4039 262.425 96.2099C267.085 93.0158 250.542 76.9254 250.542 76.9254Z" fill="black"/>
<path d="M252.402 138.964C252.402 138.964 249.375 142.503 247.324 142.993C245.274 143.484 245.847 146.63 250.4 147.159C254.952 147.688 255.5 147.643 258.705 144.972C261.91 142.3 262.052 141.297 262.052 141.297C262.052 141.297 261.419 138.922 260.653 138.872C259.888 138.821 252.402 138.964 252.402 138.964Z" fill="#231F1F"/>
<path opacity="0.1" d="M251.279 77.663L249.444 75.5674C248.318 77.6607 247.781 80.0207 247.891 82.3954L246.252 105.767C246.252 105.767 246.005 110.92 247.723 114.849C249.441 118.777 254.839 138.413 251.159 139.885L262.182 141.376C262.182 141.376 260.464 134.994 262.182 132.294C263.9 129.594 258.255 113.149 258.255 113.149C258.255 113.149 257.765 99.4039 262.425 96.2099C267.086 93.0158 251.279 77.663 251.279 77.663Z" fill="black"/>
<path d="M262.2 109.695C262.2 109.695 259.135 49.4832 246.549 28.1728C246.549 28.1728 237.32 11.3068 229.607 6.3876V4.44395C217.022 -4.27393 201.535 4.44395 201.535 4.44395V5.30498L198.308 7.99568L183.777 7.94504C183.119 7.15193 182.295 6.51375 181.362 6.07601C180.43 5.63827 179.412 5.41176 178.382 5.41261H112.076C111.107 5.41154 110.148 5.61188 109.26 6.00095C108.372 6.39002 107.575 6.95932 106.919 7.6728H91.8276C91.8276 7.6728 90.9386 6.63767 88.6006 5.59621V4.44395C76.015 -4.27393 60.5283 4.44395 60.5283 4.44395V6.78329C60.1604 7.02638 59.8336 7.32666 59.5602 7.6728C59.5602 7.6728 46.8134 16.2197 43.909 26.8813C43.909 26.8813 28.2578 73.8578 27.9351 110.664C27.6124 147.469 41.8114 152.635 49.2305 153.604C56.6496 154.573 69.8805 153.287 82.7887 120.682L88.2747 101.635C88.2747 101.635 89.2428 90.3344 100.86 97.4379C112.478 104.541 122.801 93.5633 122.801 93.5633H166.366C166.366 93.5633 180.872 102.591 194.116 95.4753C194.116 95.4753 199.279 88.6947 204.12 111.62C204.12 111.62 218.964 158.757 241.873 153.914C264.782 149.071 262.2 109.695 262.2 109.695Z" fill="url(#paint1_linear)"/>
<path d="M62.1799 9.35057V5.86847C62.1799 5.86847 77.3661 -2.67849 89.7048 5.86847V9.03401L62.1799 9.35057Z" fill="#535461"/>
<path d="M200.437 9.35057V5.86847C200.437 5.86847 215.623 -2.67849 227.962 5.86847V9.03401L200.437 9.35057Z" fill="#535461"/>
<path opacity="0.1" d="M62.1799 9.35057V5.86847C62.1799 5.86847 77.3661 -2.67849 89.7048 5.86847V9.03401L62.1799 9.35057Z" fill="black"/>
<path opacity="0.1" d="M200.437 9.35057V5.86847C200.437 5.86847 215.623 -2.67849 227.962 5.86847V9.03401L200.437 9.35057Z" fill="black"/>
<path d="M107.738 9.03421H92.8686C92.8686 9.03421 89.0721 4.60246 76.4169 4.91902C63.7618 5.23557 61.2308 9.03421 61.2308 9.03421C61.2308 9.03421 48.7339 17.4229 45.8865 27.8692C45.8865 27.8692 30.5421 73.9277 30.2258 110.015C29.9094 146.102 43.83 151.167 51.1067 152.116C58.3834 153.066 71.3549 151.8 84.01 119.828L89.3884 101.151C89.3884 101.151 90.3376 90.0719 101.727 97.0361C113.117 104 123.241 93.2375 123.241 93.2375H165.952C165.952 93.2375 180.189 102.101 193.16 95.1368C193.16 95.1368 198.222 88.4892 202.968 110.964C202.968 110.964 217.521 157.181 239.984 152.433C262.447 147.685 259.916 109.065 259.916 109.065C259.916 109.065 256.911 50.0279 244.572 29.1354C244.572 29.1354 232.708 7.45145 224.798 6.50179C224.798 6.50179 207.714 3.33625 201.07 6.18523L197.273 9.35077L107.738 9.03421Z" fill="#535461"/>
<path d="M73.2532 67.5964C88.4547 67.5964 100.778 55.2663 100.778 40.0563C100.778 24.8463 88.4547 12.5161 73.2532 12.5161C58.0516 12.5161 45.7283 24.8463 45.7283 40.0563C45.7283 55.2663 58.0516 67.5964 73.2532 67.5964Z" fill="#E2E2EC"/>
<path d="M216.889 67.5964C232.09 67.5964 244.414 55.2663 244.414 40.0563C244.414 24.8463 232.09 12.5161 216.889 12.5161C201.687 12.5161 189.364 24.8463 189.364 40.0563C189.364 55.2663 201.687 67.5964 216.889 67.5964Z" fill="#E2E2EC"/>
<path d="M78.0495 33.9151L74.3795 37.163C74.0687 37.4367 73.6688 37.5877 73.2548 37.5877C72.8407 37.5877 72.4408 37.4367 72.13 37.163L68.4537 33.9151C68.2739 33.7566 68.1297 33.5619 68.0305 33.3436C67.9312 33.1254 67.8792 32.8887 67.8779 32.6489V23.7126C67.8788 23.2615 68.0585 22.8291 68.3776 22.5104C68.6967 22.1917 69.1292 22.0127 69.58 22.0127H76.9358C77.1595 22.0123 77.381 22.0561 77.5877 22.1415C77.7944 22.2269 77.9822 22.3524 78.1403 22.5106C78.2985 22.6688 78.4238 22.8567 78.5092 23.0635C78.5946 23.2703 78.6383 23.492 78.6379 23.7158V32.6426C78.6359 32.8844 78.5824 33.1229 78.4809 33.3424C78.3795 33.5618 78.2324 33.7571 78.0495 33.9151V33.9151Z" fill="#535461"/>
<path d="M78.0495 46.1944L74.3795 42.9497C74.0687 42.6759 73.6688 42.5249 73.2548 42.5249C72.8407 42.5249 72.4408 42.6759 72.13 42.9497L68.4537 46.1975C68.2739 46.356 68.1297 46.5508 68.0305 46.769C67.9312 46.9872 67.8792 47.224 67.8779 47.4637V56.3905C67.8775 56.6143 67.9213 56.836 68.0066 57.0428C68.092 57.2496 68.2174 57.4375 68.3755 57.5957C68.5337 57.7539 68.7215 57.8794 68.9282 57.9648C69.1349 58.0502 69.3564 58.094 69.58 58.0936H76.9358C77.1592 58.094 77.3805 58.0504 77.587 57.9651C77.7934 57.8799 77.9811 57.7547 78.1392 57.5968C78.2973 57.4389 78.4227 57.2514 78.5083 57.045C78.5939 56.8385 78.6379 56.6172 78.6379 56.3937V47.4669C78.6359 47.2251 78.5824 46.9865 78.4809 46.7671C78.3795 46.5477 78.2324 46.3524 78.0495 46.1944V46.1944Z" fill="#535461"/>
<path d="M67.1187 44.8618L70.3648 41.1834C70.6384 40.8724 70.7893 40.4723 70.7893 40.0581C70.7893 39.6438 70.6384 39.2437 70.3648 38.9327L67.1187 35.2544C66.9602 35.0746 66.7655 34.9304 66.5475 34.8311C66.3294 34.7318 66.0928 34.6797 65.8532 34.6782H56.9314C56.4805 34.6791 56.0484 34.8589 55.7298 35.1782C55.4113 35.4974 55.2324 35.9302 55.2324 36.3813V43.7412C55.232 43.9649 55.2757 44.1866 55.3611 44.3934C55.4465 44.6002 55.5719 44.7881 55.73 44.9463C55.8882 45.1046 56.076 45.23 56.2827 45.3154C56.4894 45.4009 56.7109 45.4446 56.9345 45.4442H65.8564C66.096 45.4417 66.3323 45.3885 66.5498 45.2881C66.7674 45.1877 66.9613 45.0424 67.1187 44.8618V44.8618Z" fill="#535461"/>
<path d="M79.3909 44.8615L76.1512 41.18C75.8769 40.8693 75.7256 40.4691 75.7256 40.0546C75.7256 39.6401 75.8769 39.2399 76.1512 38.9293L79.3972 35.2509C79.5556 35.071 79.7503 34.9267 79.9684 34.8274C80.1865 34.7281 80.4231 34.6761 80.6627 34.6748H89.5846C89.8082 34.6744 90.0298 34.7182 90.2365 34.8036C90.4431 34.889 90.631 35.0145 90.7891 35.1727C90.9472 35.3309 91.0726 35.5188 91.158 35.7256C91.2434 35.9325 91.2871 36.1541 91.2867 36.3779V43.7377C91.2871 43.9612 91.2435 44.1826 91.1583 44.3892C91.0731 44.5958 90.948 44.7836 90.7902 44.9418C90.6324 45.1 90.445 45.2255 90.2386 45.3111C90.0323 45.3967 89.8111 45.4408 89.5878 45.4408H80.6659C80.4244 45.4404 80.1858 45.3886 79.966 45.2887C79.7461 45.1888 79.5501 45.0432 79.3909 44.8615Z" fill="#535461"/>
<path d="M68.5076 19.7968H77.9989L73.2532 15.6816L68.5076 19.7968Z" stroke="#535461" stroke-width="2" stroke-miterlimit="10"/>
<path d="M68.5076 60.3159H77.9989L73.2532 64.4311L68.5076 60.3159Z" stroke="#535461" stroke-width="2" stroke-miterlimit="10"/>
<path d="M53.005 35.3076V44.8042L48.8921 40.0559L53.005 35.3076Z" stroke="#535461" stroke-width="2" stroke-miterlimit="10"/>
<path d="M93.5012 35.3076V44.8042L97.6141 40.0559L93.5012 35.3076Z" stroke="#535461" stroke-width="2" stroke-miterlimit="10"/>
<path d="M110.586 90.0718C121.594 90.0718 130.517 81.1431 130.517 70.1289C130.517 59.1148 121.594 50.186 110.586 50.186C99.5776 50.186 90.6538 59.1148 90.6538 70.1289C90.6538 81.1431 99.5776 90.0718 110.586 90.0718Z" fill="#E2E2EC"/>
<path d="M109.953 80.2585C117.292 80.2585 123.241 74.306 123.241 66.9632C123.241 59.6205 117.292 53.668 109.953 53.668C102.614 53.668 96.665 59.6205 96.665 66.9632C96.665 74.306 102.614 80.2585 109.953 80.2585Z" fill="#535461"/>
<path d="M179.556 90.0718C190.564 90.0718 199.488 81.1431 199.488 70.1289C199.488 59.1148 190.564 50.186 179.556 50.186C168.548 50.186 159.625 59.1148 159.625 70.1289C159.625 81.1431 168.548 90.0718 179.556 90.0718Z" fill="#E2E2EC"/>
<path d="M178.923 80.2585C186.262 80.2585 192.211 74.306 192.211 66.9632C192.211 59.6205 186.262 53.668 178.923 53.668C171.584 53.668 165.635 59.6205 165.635 66.9632C165.635 74.306 171.584 80.2585 178.923 80.2585Z" fill="#535461"/>
<path opacity="0.1" d="M109.953 75.8266C114.846 75.8266 118.812 71.8583 118.812 66.9631C118.812 62.0679 114.846 58.0996 109.953 58.0996C105.061 58.0996 101.094 62.0679 101.094 66.9631C101.094 71.8583 105.061 75.8266 109.953 75.8266Z" stroke="black" stroke-width="2" stroke-miterlimit="10"/>
<path opacity="0.1" d="M178.923 75.8266C183.815 75.8266 187.782 71.8583 187.782 66.9631C187.782 62.0679 183.815 58.0996 178.923 58.0996C174.031 58.0996 170.064 62.0679 170.064 66.9631C170.064 71.8583 174.031 75.8266 178.923 75.8266Z" stroke="black" stroke-width="2" stroke-miterlimit="10"/>
<path d="M145.704 78.0424C148.849 78.0424 151.398 75.4913 151.398 72.3444C151.398 69.1975 148.849 66.6465 145.704 66.6465C142.558 66.6465 140.009 69.1975 140.009 72.3444C140.009 75.4913 142.558 78.0424 145.704 78.0424Z" fill="#E2E2EC"/>
<path d="M137 54.5701C137.687 54.5701 138.244 54.0132 138.244 53.3261C138.244 52.639 137.687 52.082 137 52.082C136.314 52.082 135.757 52.639 135.757 53.3261C135.757 54.0132 136.314 54.5701 137 54.5701Z" fill="#E2E2EC"/>
<path d="M141.657 54.5701C142.344 54.5701 142.901 54.0132 142.901 53.3261C142.901 52.639 142.344 52.082 141.657 52.082C140.97 52.082 140.414 52.639 140.414 53.3261C140.414 54.0132 140.97 54.5701 141.657 54.5701Z" fill="#E2E2EC"/>
<path d="M141.037 60.474C141.724 60.474 142.28 59.917 142.28 59.2299C142.28 58.5428 141.724 57.9858 141.037 57.9858C140.35 57.9858 139.794 58.5428 139.794 59.2299C139.794 59.917 140.35 60.474 141.037 60.474Z" fill="#E2E2EC"/>
<path d="M145.387 60.632C146.086 60.632 146.653 60.0651 146.653 59.3658C146.653 58.6665 146.086 58.0996 145.387 58.0996C144.688 58.0996 144.122 58.6665 144.122 59.3658C144.122 60.0651 144.688 60.632 145.387 60.632Z" fill="#E2E2EC"/>
<path d="M149.731 60.474C150.418 60.474 150.975 59.917 150.975 59.2299C150.975 58.5428 150.418 57.9858 149.731 57.9858C149.044 57.9858 148.488 58.5428 148.488 59.2299C148.488 59.917 149.044 60.474 149.731 60.474Z" fill="#E2E2EC"/>
<path d="M139.174 57.679C139.86 57.679 140.417 57.122 140.417 56.435C140.417 55.7479 139.86 55.1909 139.174 55.1909C138.487 55.1909 137.93 55.7479 137.93 56.435C137.93 57.122 138.487 57.679 139.174 57.679Z" fill="#E2E2EC"/>
<path d="M143.173 57.7834C143.872 57.7834 144.438 57.2165 144.438 56.5172C144.438 55.8179 143.872 55.251 143.173 55.251C142.474 55.251 141.907 55.8179 141.907 56.5172C141.907 57.2165 142.474 57.7834 143.173 57.7834Z" fill="#E2E2EC"/>
<path d="M147.286 57.7834C147.984 57.7834 148.551 57.2165 148.551 56.5172C148.551 55.8179 147.984 55.251 147.286 55.251C146.587 55.251 146.02 55.8179 146.02 56.5172C146.02 57.2165 146.587 57.7834 147.286 57.7834Z" fill="#E2E2EC"/>
<path d="M151.595 57.679C152.281 57.679 152.838 57.122 152.838 56.435C152.838 55.7479 152.281 55.1909 151.595 55.1909C150.908 55.1909 150.351 55.7479 150.351 56.435C150.351 57.122 150.908 57.679 151.595 57.679Z" fill="#E2E2EC"/>
<path d="M145.387 54.6179C146.086 54.6179 146.653 54.051 146.653 53.3517C146.653 52.6524 146.086 52.0854 145.387 52.0854C144.688 52.0854 144.122 52.6524 144.122 53.3517C144.122 54.051 144.688 54.6179 145.387 54.6179Z" fill="#E2E2EC"/>
<path d="M149.817 54.6179C150.515 54.6179 151.082 54.051 151.082 53.3517C151.082 52.6524 150.515 52.0854 149.817 52.0854C149.118 52.0854 148.551 52.6524 148.551 53.3517C148.551 54.051 149.118 54.6179 149.817 54.6179Z" fill="#E2E2EC"/>
<path d="M153.458 54.5701C154.145 54.5701 154.702 54.0132 154.702 53.3261C154.702 52.639 154.145 52.082 153.458 52.082C152.772 52.082 152.215 52.639 152.215 53.3261C152.215 54.0132 152.772 54.5701 153.458 54.5701Z" fill="#E2E2EC"/>
<path d="M99.9872 11.25H98.4053C96.9201 11.25 95.7161 12.4547 95.7161 13.9407V20.5883C95.7161 22.0744 96.9201 23.279 98.4053 23.279H99.9872C101.472 23.279 102.676 22.0744 102.676 20.5883V13.9407C102.676 12.4547 101.472 11.25 99.9872 11.25Z" fill="#E2E2EC"/>
<path d="M192.369 11.25H190.787C189.302 11.25 188.098 12.4547 188.098 13.9407V20.5883C188.098 22.0744 189.302 23.279 190.787 23.279H192.369C193.854 23.279 195.058 22.0744 195.058 20.5883V13.9407C195.058 12.4547 193.854 11.25 192.369 11.25Z" fill="#E2E2EC"/>
<path d="M217.205 30.8762C221.398 30.8762 224.798 27.4748 224.798 23.2789C224.798 19.0831 221.398 15.6816 217.205 15.6816C213.011 15.6816 209.612 19.0831 209.612 23.2789C209.612 27.4748 213.011 30.8762 217.205 30.8762Z" fill="#535461"/>
<path d="M201.07 47.0203C205.263 47.0203 208.663 43.6188 208.663 39.423C208.663 35.2271 205.263 31.8257 201.07 31.8257C196.876 31.8257 193.477 35.2271 193.477 39.423C193.477 43.6188 196.876 47.0203 201.07 47.0203Z" fill="#535461"/>
<path d="M233.973 46.071C238.166 46.071 241.566 42.6696 241.566 38.4737C241.566 34.2779 238.166 30.8765 233.973 30.8765C229.779 30.8765 226.38 34.2779 226.38 38.4737C226.38 42.6696 229.779 46.071 233.973 46.071Z" fill="#535461"/>
<path d="M218.47 62.8479C222.664 62.8479 226.064 59.4465 226.064 55.2506C226.064 51.0547 222.664 47.6533 218.47 47.6533C214.277 47.6533 210.877 51.0547 210.877 55.2506C210.877 59.4465 214.277 62.8479 218.47 62.8479Z" fill="#535461"/>
<path d="M177.737 6.81787H112.721C108.921 6.81787 105.84 9.90041 105.84 13.7029V42.0345C105.84 45.837 108.921 48.9195 112.721 48.9195H177.737C181.537 48.9195 184.618 45.837 184.618 42.0345V13.7029C184.618 9.90041 181.537 6.81787 177.737 6.81787Z" fill="#E2E2EC"/>
<path d="M212.618 26.4445L217.047 18.8472L221.793 26.4445H212.618Z" stroke="#E2E2EC" stroke-width="2" stroke-miterlimit="10"/>
<path d="M205.025 35.9409H197.115V42.9051H205.025V35.9409Z" stroke="#E2E2EC" stroke-width="2" stroke-miterlimit="10"/>
<path d="M233.973 42.905C236.419 42.905 238.403 40.9208 238.403 38.4733C238.403 36.0257 236.419 34.0415 233.973 34.0415C231.527 34.0415 229.544 36.0257 229.544 38.4733C229.544 40.9208 231.527 42.905 233.973 42.905Z" stroke="#E2E2EC" stroke-width="2" stroke-miterlimit="10"/>
<path d="M214.832 51.6895L221.951 58.8119" stroke="#E2E2EC" stroke-width="2" stroke-miterlimit="10"/>
<path d="M222.109 51.6895L214.832 58.6536" stroke="#E2E2EC" stroke-width="2" stroke-miterlimit="10"/>
<path d="M104.831 150.391C105.78 149.666 106.682 148.808 106.957 147.773C107.098 147.223 107.023 146.64 106.746 146.144C106.47 145.648 106.015 145.277 105.473 145.108C104.109 144.684 102.654 145.453 101.547 146.232C100.439 147.01 99.1771 147.9 97.7313 147.735C99.2278 146.653 99.9459 144.886 99.5283 143.303C99.4579 142.959 99.2834 142.644 99.0284 142.401C98.2723 141.74 96.8992 142.024 95.9944 142.544C93.1122 144.199 92.3086 147.393 92.2927 150.271C92.0017 149.232 92.2485 148.153 92.239 147.086C92.2295 146.019 91.8751 144.842 90.7741 144.269C90.0699 143.964 89.3073 143.819 88.5405 143.842C87.2465 143.804 85.8007 143.908 84.918 144.684C83.8201 145.633 84.1049 147.257 85.0603 148.314C86.0158 149.372 87.4711 150.036 88.8094 150.768C89.8313 151.325 90.8627 151.974 91.4891 152.854C91.5693 152.97 91.6361 153.096 91.6885 153.227H99.8099C101.594 152.493 103.281 151.54 104.831 150.391V150.391Z" fill="#489CEA"/>
<path d="M273.236 144.063C273.236 144.063 271.765 148.495 270.047 149.71C268.329 150.926 270.047 153.639 274.476 152.411C278.905 151.182 279.383 150.939 281.344 147.257C283.306 143.576 283.062 142.594 283.062 142.594C283.062 142.594 281.591 140.632 280.848 140.875C280.104 141.119 273.236 144.063 273.236 144.063Z" fill="#231F1F"/>
<path d="M264.159 33.8456C264.159 33.8456 244.287 44.8901 248.947 41.6993C252.079 39.5562 251.89 33.8677 251.428 30.3635C251.282 29.2714 251.111 28.3913 251.007 27.8975C250.947 27.6189 250.909 27.4638 250.909 27.4638C250.909 27.4638 260.546 21.6772 260.005 25.1561C260.005 25.1878 260.005 25.2195 259.989 25.2511C259.942 25.4836 259.918 25.72 259.916 25.957C259.85 29.5341 264.159 33.8456 264.159 33.8456Z" fill="#C87486"/>
<path d="M242.566 44.6463C242.566 44.6463 240.848 47.3465 237.906 44.6463C234.963 41.9461 225.64 33.8455 225.64 33.8455C225.64 33.8455 221.47 23.5354 218.521 25.5011C215.572 27.4669 221.957 37.0395 221.957 37.0395L235.941 52.0125C235.941 52.0125 236.431 55.2034 241.585 53.4845C246.739 51.7656 250.418 50.2936 250.418 50.2936L242.566 44.6463Z" fill="#C87486"/>
<path d="M282.559 141.853L272.752 145.291L272.337 145.412L272.508 144.554C273.979 137.191 264.915 120.252 263.184 119.024C261.454 117.795 259.989 110.67 259.989 110.67C259.989 110.67 256.775 94.4685 256.284 91.0434C256.161 90.1856 255.712 89.5018 255.167 88.5585C254.347 87.1289 253.709 85.6016 253.269 84.0128C252.19 80.2141 249.675 73.4715 250.599 69.6571C250.785 68.8815 250.023 70.8631 250.282 70.1066L250.431 69.6887L270.293 66.9854C270.623 67.3857 270.931 67.8031 271.217 68.2357C272.72 70.4674 272.622 70.4674 272.938 74.7093C272.802 77.2684 272.441 79.8106 271.859 82.3065C269.186 94.2185 275.216 110.163 275.216 110.163C275.216 110.163 280.123 121.455 279.142 126.118C278.162 130.78 282.559 141.853 282.559 141.853Z" fill="black"/>
<path opacity="0.1" d="M271.217 68.2326C268.278 71.9204 249.45 74.7852 249.684 73.614C249.755 73.2098 249.724 72.7943 249.596 72.4047C249.783 71.6268 250.009 70.8587 250.273 70.1034L250.421 69.6856L270.293 66.9854C270.623 67.3847 270.931 67.801 271.217 68.2326V68.2326Z" fill="black"/>
<path d="M262.687 28.6826C262.687 28.6826 254.588 31.1454 252.373 36.7927C250.159 42.44 254.053 42.7471 254.053 42.7471C254.053 42.7471 247.093 61.1072 248.938 70.6671C248.938 70.6671 249.918 71.8953 249.675 73.1204C249.431 74.3455 270.037 71.1578 271.505 67.2293C272.973 63.3009 264.636 56.1848 266.845 49.5562C269.053 42.9275 262.687 28.6826 262.687 28.6826Z" fill="#DFE5EE"/>
<path opacity="0.1" d="M259.989 25.7451C259.975 25.8189 259.951 25.8904 259.916 25.9572C259.581 26.5903 258.515 25.897 258.885 26.8467C257.461 28.2775 257.012 31.1423 254.838 31.1423C253.656 31.1458 252.489 30.8806 251.425 30.3667C251.279 29.2746 251.108 28.3946 251.004 27.9008C251.953 27.3373 259.546 22.9372 260.002 25.1594C260.037 25.3535 260.033 25.5527 259.989 25.7451V25.7451Z" fill="black"/>
<path d="M254.835 30.6547C259.17 30.6547 262.685 27.1384 262.685 22.801C262.685 18.4635 259.17 14.9473 254.835 14.9473C250.5 14.9473 246.986 18.4635 246.986 22.801C246.986 27.1384 250.5 30.6547 254.835 30.6547Z" fill="#C87486"/>
<path opacity="0.1" d="M262.687 47.8371L248.95 54.2188C248.95 54.2188 239.627 47.1026 241.098 45.1432C242.569 43.1837 254.101 37.5459 254.101 37.5459C254.101 37.5459 265.877 39.9834 262.687 47.8371Z" fill="black"/>
<path d="M262.688 47.359L248.951 53.7407C248.951 53.7407 239.627 46.6214 241.101 44.6588C242.576 42.6962 254.105 37.0615 254.105 37.0615C254.105 37.0615 265.877 39.4927 262.688 47.359Z" fill="#DFE5EE"/>
<path opacity="0.1" d="M252.57 19.4359C251.371 19.3156 250.13 19.1826 249.09 18.578C248.485 18.2298 247.932 17.6537 247.913 16.9541C247.89 16.131 248.583 15.4884 249.219 14.9661C249.632 14.5848 250.108 14.2794 250.627 14.0639C251.307 13.8265 252.051 13.912 252.769 13.8518C254.882 13.6746 256.774 12.2374 258.897 12.2501C260.457 12.2501 261.89 13.0478 263.247 13.817C264.333 14.4311 265.538 15.2099 265.718 16.4444C265.73 16.8426 265.763 17.2399 265.816 17.6347C266.041 18.5147 266.987 19.0275 267.326 19.8695C267.696 20.7907 267.227 21.8575 266.544 22.5761C265.861 23.2946 264.962 23.7885 264.244 24.4596C263.578 25.0778 263.049 25.83 262.694 26.6669C262.338 27.5037 262.164 28.4063 262.181 29.3155C262.197 29.4354 262.179 29.5573 262.127 29.6669C262.073 29.7326 262.006 29.7862 261.929 29.8243C261.853 29.8625 261.77 29.8843 261.685 29.8885C260.903 30.0341 259.938 30.1132 259.47 29.4674C259.002 28.8217 259.372 27.7454 258.837 27.1091C258.157 26.2892 256.727 26.9413 255.806 26.4032C255.496 26.2019 255.253 25.9118 255.11 25.5707C254.351 23.9341 255.221 22.6489 255.537 21.0851C255.907 19.2586 253.857 19.5656 252.57 19.4359Z" fill="black"/>
<path d="M252.817 19.1859C251.618 19.0656 250.378 18.9326 249.337 18.328C248.732 17.9798 248.179 17.4037 248.16 16.7041C248.138 15.881 248.83 15.2384 249.466 14.7161C249.879 14.3348 250.356 14.0294 250.874 13.8139C251.554 13.5765 252.298 13.662 253.016 13.6018C255.13 13.4246 257.021 11.9874 259.144 12.0001C260.704 12.0001 262.137 12.7978 263.495 13.567C264.58 14.1811 265.785 14.9599 265.965 16.1944C265.978 16.5926 266.01 16.9899 266.064 17.3847C266.288 18.2647 267.234 18.7775 267.573 19.6195C267.943 20.5407 267.475 21.6075 266.791 22.3261C266.108 23.0447 265.209 23.5385 264.491 24.2096C263.822 24.8289 263.293 25.5831 262.937 26.4223C262.58 27.2615 262.406 28.1667 262.425 29.0782C262.441 29.198 262.422 29.32 262.371 29.4295C262.317 29.4952 262.25 29.5489 262.173 29.587C262.097 29.6252 262.014 29.647 261.928 29.6511C261.147 29.7967 260.182 29.8759 259.714 29.2301C259.246 28.5843 259.616 27.5081 259.081 26.8718C258.401 26.0519 256.971 26.704 256.05 26.1659C255.74 25.9646 255.497 25.6745 255.354 25.3333C254.588 23.6936 255.462 22.3989 255.778 20.8193C256.151 19.0118 254.101 19.322 252.817 19.1859Z" fill="#50404C"/>
<defs>
<linearGradient id="paint0_linear" x1="250.406" y1="154.323" x2="250.406" y2="10.4048" gradientUnits="userSpaceOnUse">
<stop stop-color="#808080" stop-opacity="0.25"/>
<stop offset="0.54" stop-color="#808080" stop-opacity="0.12"/>
<stop offset="1" stop-color="#808080" stop-opacity="0.1"/>
</linearGradient>
<linearGradient id="paint1_linear" x1="136652" y1="108624" x2="136652" y2="33996.2" gradientUnits="userSpaceOnUse">
<stop stop-color="#808080" stop-opacity="0.25"/>
<stop offset="0.54" stop-color="#808080" stop-opacity="0.12"/>
<stop offset="1" stop-color="#808080" stop-opacity="0.1"/>
</linearGradient>
</defs>
</svg>
