<svg width="268" height="209" viewBox="0 0 268 209" fill="none" xmlns="http://www.w3.org/2000/svg">
<path d="M210.306 77.7453C199.035 33.3624 160.089 1.32414 114.376 0.0391105C90.2085 -0.64025 64.7778 7.38622 46.2623 35.4738C13.1639 85.6833 48.2963 120.38 72.7896 136.867C84.6229 144.848 95.2854 154.445 104.468 165.379C121.013 185.039 152.84 209.47 190.746 171.191C218.22 143.446 217.814 107.309 210.306 77.7453Z" fill="#F2F2F2"/>
<path d="M268 87.6274C268 99.1464 258.675 117.531 247.172 117.531C235.67 117.531 226.345 99.1464 226.345 87.6274C226.345 82.0958 228.539 76.7908 232.445 72.8794C236.351 68.9679 241.649 66.7705 247.172 66.7705C252.696 66.7705 257.994 68.9679 261.9 72.8794C265.806 76.7908 268 82.0958 268 87.6274V87.6274Z" fill="#FF6584"/>
<path d="M247.943 118.273C245.326 119.175 244.7 122.75 245.6 125.371C246.5 127.992 248.407 130.167 249.366 132.767C249.804 134.078 250.118 135.428 250.305 136.798C250.853 140.06 251.403 143.379 250.98 146.66C250.58 149.772 249.321 152.706 247.916 155.511C245.195 160.942 241.886 166.056 238.048 170.762" stroke="#2F2E41" stroke-width="2"/>
<path d="M249.18 119.541C247.841 118.681 246.503 118.681 245.165 119.541V115.521H249.18V119.541Z" fill="#FF6584"/>
<path d="M245.175 117.446C245.799 117.762 246.489 117.925 247.188 117.923C247.888 117.92 248.576 117.751 249.197 117.429" stroke="#2F2E41" stroke-width="2"/>
<path opacity="0.4" d="M255.829 84.1098C258.255 84.1098 260.221 81.7471 260.221 78.8327C260.221 75.9183 258.255 73.5557 255.829 73.5557C253.404 73.5557 251.438 75.9183 251.438 78.8327C251.438 81.7471 253.404 84.1098 255.829 84.1098Z" fill="white"/>
<path d="M0 84.3608C0 95.8798 9.32489 114.264 20.8277 114.264C32.3305 114.264 41.6554 95.8798 41.6554 84.3608C41.6554 78.8292 39.4611 73.5242 35.5551 69.6128C31.6492 65.7013 26.3516 63.5039 20.8277 63.5039C15.3039 63.5039 10.0063 65.7013 6.1003 69.6128C2.19434 73.5242 0 78.8292 0 84.3608V84.3608Z" fill="#FF6584"/>
<path d="M20.0563 115.006C22.6737 115.908 23.3003 119.483 22.4 122.104C21.4997 124.725 19.593 126.9 18.6336 129.5C18.1958 130.811 17.8816 132.161 17.695 133.531C17.1469 136.793 16.5973 140.112 17.0196 143.393C17.4202 146.505 18.6793 149.439 20.084 152.244C22.8044 157.675 26.1135 162.789 29.9515 167.495" stroke="#2F2E41" stroke-width="2"/>
<path d="M18.8203 116.275C20.1586 115.414 21.497 115.414 22.8353 116.275V112.254H18.8203V116.275Z" fill="#FF6584"/>
<path d="M22.8246 114.179C22.2008 114.495 21.5108 114.659 20.8116 114.656C20.1123 114.653 19.4237 114.484 18.8025 114.163" stroke="#2F2E41" stroke-width="2"/>
<path opacity="0.4" d="M12.1704 80.8432C14.5957 80.8432 16.5618 78.4805 16.5618 75.5661C16.5618 72.6517 14.5957 70.2891 12.1704 70.2891C9.74514 70.2891 7.77905 72.6517 7.77905 75.5661C7.77905 78.4805 9.74514 80.8432 12.1704 80.8432Z" fill="white"/>
<path d="M252.944 176.081C252.944 187.947 197.219 209 128.479 209C59.7396 209 10.5393 166.336 10.5393 154.47C10.5393 142.604 59.7396 166.03 128.479 166.03C197.219 166.03 252.944 164.215 252.944 176.081Z" fill="#3F3D56"/>
<path opacity="0.1" d="M252.944 176.081C252.944 187.947 197.219 209 128.479 209C59.7396 209 10.5393 166.336 10.5393 154.47C10.5393 142.604 59.7396 166.03 128.479 166.03C197.219 166.03 252.944 164.215 252.944 176.081Z" fill="black"/>
<path d="M252.944 175.956C252.944 187.822 197.219 197.441 128.479 197.441C59.7396 197.441 10.5393 166.336 10.5393 154.471C10.5393 142.605 59.7396 154.471 128.479 154.471C197.219 154.471 252.944 164.09 252.944 175.956Z" fill="#3F3D56"/>
<path d="M109.456 142.517L106.936 158.633C106.936 158.633 94.5266 165.234 103.252 165.428C111.977 165.622 153.081 165.428 153.081 165.428C153.081 165.428 161.031 165.428 148.428 158.438L145.908 141.546L109.456 142.517Z" fill="#2F2E41"/>
<path opacity="0.1" d="M101.496 165.253C103.478 163.487 106.935 161.648 106.935 161.648L109.456 145.532L145.907 145.567L148.428 161.453C151.367 163.083 153.187 164.333 154.252 165.291C155.871 164.922 157.64 163.547 148.428 158.438L145.907 141.546L109.456 142.517L106.935 158.632C106.935 158.632 96.5082 164.18 101.496 165.253Z" fill="black"/>
<path d="M203.826 30.1943H51.1493C47.9604 30.1943 45.3752 32.7831 45.3752 35.9765V138.968C45.3752 142.161 47.9604 144.75 51.1493 144.75H203.826C207.015 144.75 209.6 142.161 209.6 138.968V35.9765C209.6 32.7831 207.015 30.1943 203.826 30.1943Z" fill="#2F2E41"/>
<path d="M204.074 36.3105H50.9011V122.13H204.074V36.3105Z" fill="#3F3D56"/>
<path d="M127.488 34.5627C128.023 34.5627 128.457 34.1281 128.457 33.5919C128.457 33.0557 128.023 32.6211 127.488 32.6211C126.952 32.6211 126.518 33.0557 126.518 33.5919C126.518 34.1281 126.952 34.5627 127.488 34.5627Z" fill="#F2F2F2"/>
<path d="M209.6 128.926V138.968C209.6 139.727 209.451 140.479 209.161 141.181C208.871 141.882 208.445 142.52 207.909 143.057C207.373 143.594 206.737 144.019 206.036 144.31C205.335 144.601 204.584 144.75 203.826 144.75H51.1493C50.391 144.75 49.6401 144.601 48.9395 144.31C48.239 144.019 47.6024 143.594 47.0662 143.057C46.53 142.52 46.1047 141.882 45.8146 141.181C45.5244 140.479 45.3752 139.727 45.3752 138.968V128.926H209.6Z" fill="#2F2E41"/>
<path d="M170.338 175.913V177.854H66.0247V176.301L66.1682 175.913L68.739 168.923H168.205L170.338 175.913Z" fill="#2F2E41"/>
<path d="M210.48 174.012C210.29 174.826 209.573 175.684 207.952 176.496C202.135 179.408 190.308 175.719 190.308 175.719C190.308 175.719 181.195 174.166 181.195 170.088C181.451 169.913 181.718 169.754 181.994 169.612C184.44 168.317 192.548 165.12 206.925 169.748C207.985 170.081 208.931 170.702 209.658 171.541C210.241 172.224 210.698 173.091 210.48 174.012Z" fill="#2F2E41"/>
<path opacity="0.1" d="M210.48 174.012C203.361 176.744 197.015 176.948 190.502 172.418C187.218 170.135 184.234 169.57 181.994 169.612C184.44 168.317 192.548 165.12 206.925 169.748C207.985 170.081 208.931 170.702 209.658 171.541C210.241 172.224 210.698 173.09 210.48 174.012Z" fill="black"/>
<path d="M201.554 172.418C202.946 172.418 204.074 172.07 204.074 171.641C204.074 171.212 202.946 170.865 201.554 170.865C200.162 170.865 199.033 171.212 199.033 171.641C199.033 172.07 200.162 172.418 201.554 172.418Z" fill="#F2F2F2"/>
<path opacity="0.1" d="M170.338 175.913V177.855H66.0247V176.302L66.1682 175.913H170.338Z" fill="black"/>
<path d="M218.584 76.5591C215.967 77.4615 215.34 81.0358 216.24 83.6571C217.141 86.2785 219.047 88.4529 220.007 91.0531C220.445 92.3645 220.759 93.7141 220.946 95.0841C221.494 98.3461 222.043 101.665 221.621 104.946C221.22 108.058 219.961 110.992 218.557 113.797C215.836 119.228 212.527 124.342 208.689 129.048" stroke="#2F2E41" stroke-width="2"/>
<path d="M238.641 45.914C238.641 57.433 229.316 75.8173 217.813 75.8173C206.31 75.8173 196.985 57.433 196.985 45.914C196.985 40.3824 199.179 35.0774 203.085 31.166C206.991 27.2545 212.289 25.0571 217.813 25.0571C223.337 25.0571 228.634 27.2545 232.54 31.166C236.446 35.0774 238.641 40.3824 238.641 45.914V45.914Z" fill="#00759C"/>
<path d="M219.82 77.8277C218.482 76.9677 217.143 76.9677 215.805 77.8277V73.8071H219.82V77.8277Z" fill="#6C63FF"/>
<path d="M215.816 75.7319C216.44 76.0482 217.129 76.2116 217.829 76.2087C218.528 76.2058 219.217 76.0367 219.838 75.7153" stroke="#2F2E41" stroke-width="2"/>
<path opacity="0.4" d="M226.47 42.3959C228.895 42.3959 230.861 40.0333 230.861 37.1189C230.861 34.2044 228.895 31.8418 226.47 31.8418C224.045 31.8418 222.079 34.2044 222.079 37.1189C222.079 40.0333 224.045 42.3959 226.47 42.3959Z" fill="white"/>
<path d="M151.467 72.5098V94.2578L145.726 105.857V105.858L145.544 106.224L130.345 105.219L124.502 104.832L110.941 103.935V77.9208L124.502 78.3037L130.566 78.4753L145.908 78.9093L151.467 72.5098Z" fill="#008BB0"/>
<path opacity="0.1" d="M151.467 73.7925V94.2574L150.064 97.0909V97.0919L148.626 99.9963V99.9973L145.726 105.857L146.05 84.1086L146.116 79.7216L148.873 76.6665V76.6655L150.076 75.3336L151.467 73.7925Z" fill="black"/>
<path d="M152.246 66.7348V74.331L151.467 75.5744L150.075 77.796L148.841 79.7639L146.116 84.1124L146.05 84.1092L109.746 82.2393V74.7472L109.838 74.6484L114.172 69.9501L115.741 68.2498L118.579 65.1738L152.246 66.7348Z" fill="#008BB0"/>
<path opacity="0.1" d="M146.116 76.6198V84.112L109.746 82.2389V74.7467L109.838 74.6479L146.116 76.6198Z" fill="black"/>
<path opacity="0.15" d="M152.246 66.7344V74.3306L146.115 84.1119V76.6198L152.246 66.7344Z" fill="black"/>
<path d="M150.079 70.2297L150.076 75.3338L150.075 77.7957L150.064 97.0911V97.0921L148.626 99.9965L148.841 79.7635L148.873 76.6667V76.6657L148.922 72.0945L114.172 69.9497L115.741 68.2495L150.079 70.2297Z" fill="#2F2E41"/>
<path d="M133.023 70.4805L130.588 75.7759L130.566 78.4752L130.345 105.219L124.502 104.832V75.4233L127.619 70.4805H133.023Z" fill="#2F2E41"/>
<path d="M125.004 70.837C123.597 71.3057 122.085 71.3589 120.649 70.9901C120.37 70.9359 120.107 70.8141 119.885 70.6354C119.646 70.3711 119.483 70.0473 119.413 69.6979C119.159 68.976 119.018 68.2191 118.996 67.4541C119.013 66.6902 119.305 65.893 119.927 65.4509C120.054 65.3743 120.172 65.2852 120.281 65.1848C120.411 65.0207 120.504 64.8308 120.555 64.6277C120.981 63.356 121.806 62.0132 123.13 61.8096C124.351 61.6218 125.463 62.476 126.404 63.278L128.469 65.0382C128.698 64.4213 129.109 63.8882 129.646 63.5089C130.183 63.1297 130.822 62.9219 131.479 62.9129C132.136 62.904 132.781 63.0942 133.328 63.4587C133.876 63.8232 134.3 64.3449 134.546 64.9553C135.797 63.5434 137.375 62.4595 139.141 61.7981C139.532 61.6521 139.991 61.5332 140.348 61.7506C140.569 61.9135 140.736 62.1381 140.829 62.3961C141.391 63.6285 141.696 64.963 141.724 66.3176C141.869 66.2681 142.025 66.2683 142.17 66.3181C142.314 66.368 142.437 66.4646 142.521 66.5927C142.681 66.8537 142.772 67.1512 142.786 67.4571C142.841 67.9299 142.868 68.4054 142.868 68.8813C142.868 69.3832 142.821 69.9254 142.495 70.306C142.073 70.7979 141.344 70.8499 140.696 70.8653C141.008 71.1424 140.856 71.7005 140.511 71.935C140.166 72.1695 139.72 72.1739 139.303 72.1698C137.696 72.1541 135.987 72.1084 134.65 71.2151C134.123 70.8624 133.68 70.3926 133.151 70.0419C131.854 69.1825 130.226 69.1414 128.725 69.2125C127.37 69.2767 126.294 70.4043 125.004 70.837Z" fill="#2F2E41"/>
<path d="M124.71 70.4805C124.71 70.4805 111.305 72.3535 109.435 80.47L112.24 80.0538L114.215 83.5917C114.215 83.5917 116.293 75.6834 122.424 73.8103C128.554 71.9373 130.737 71.6251 130.737 71.6251C130.737 71.6251 134.997 72.6657 138.842 85.0486L141.024 82.0309L144.869 82.8633C144.869 82.8633 142.063 73.186 134.477 70.4805L124.71 70.4805Z" fill="#2F2E41"/>
<path d="M128 137.014C130.761 137.014 133 134.772 133 132.007C133 129.242 130.761 127 128 127C125.239 127 123 129.242 123 132.007C123 134.772 125.239 137.014 128 137.014Z" fill="#F2F2F2"/>
<path d="M128.651 131.126C128.673 131.223 128.715 131.315 128.774 131.396C128.832 131.477 128.906 131.546 128.991 131.599C129.163 131.705 129.37 131.739 129.567 131.692C129.664 131.669 129.756 131.627 129.837 131.569C129.919 131.51 129.987 131.437 130.04 131.351C130.093 131.266 130.128 131.172 130.144 131.073C130.16 130.974 130.156 130.873 130.134 130.776C130.087 130.579 129.964 130.409 129.793 130.303C129.621 130.197 129.414 130.163 129.217 130.209C129.02 130.256 128.85 130.378 128.744 130.55C128.638 130.722 128.604 130.929 128.651 131.126V131.126Z" fill="black"/>
<path d="M126.595 134.944C126.913 134.944 127.217 134.817 127.441 134.593C127.666 134.369 127.792 134.064 127.792 133.747V133.724L129.238 132.594C129.289 132.598 129.34 132.601 129.393 132.601C129.719 132.601 130.038 132.504 130.31 132.323C130.581 132.141 130.793 131.883 130.918 131.582C131.043 131.28 131.075 130.948 131.012 130.628C130.948 130.308 130.791 130.014 130.56 129.783C130.329 129.552 130.035 129.395 129.715 129.331C129.395 129.267 129.063 129.3 128.761 129.425C128.459 129.55 128.202 129.761 128.02 130.033C127.839 130.304 127.742 130.624 127.742 130.95C127.742 131 127.744 131.049 127.749 131.097L126.611 132.551H126.595C126.383 132.55 126.175 132.607 125.991 132.714L123.038 131.384C122.975 131.898 122.99 132.419 123.084 132.928L125.421 133.98C125.475 134.252 125.622 134.496 125.836 134.672C126.05 134.847 126.318 134.944 126.595 134.944ZM129.392 129.873C129.605 129.873 129.813 129.936 129.991 130.055C130.168 130.173 130.306 130.342 130.388 130.538C130.469 130.735 130.49 130.952 130.449 131.161C130.407 131.37 130.305 131.562 130.154 131.713C130.003 131.863 129.811 131.966 129.602 132.008C129.393 132.049 129.177 132.028 128.98 131.946C128.783 131.865 128.615 131.727 128.496 131.549C128.378 131.372 128.315 131.164 128.315 130.951C128.315 130.665 128.428 130.391 128.63 130.189C128.832 129.987 129.106 129.873 129.392 129.873V129.873ZM126.352 134.399C126.436 134.437 126.525 134.457 126.616 134.46C126.708 134.463 126.798 134.448 126.884 134.415C126.969 134.383 127.047 134.334 127.113 134.272C127.18 134.209 127.233 134.134 127.271 134.051C127.346 133.883 127.352 133.692 127.287 133.52C127.221 133.348 127.09 133.209 126.923 133.133L126.299 132.852C126.473 132.795 126.66 132.789 126.836 132.836C127.013 132.883 127.173 132.98 127.295 133.116C127.417 133.252 127.498 133.421 127.526 133.602C127.554 133.782 127.529 133.967 127.454 134.134C127.379 134.301 127.257 134.442 127.103 134.541C126.949 134.639 126.769 134.691 126.587 134.689C126.404 134.688 126.225 134.633 126.073 134.531C125.921 134.43 125.801 134.287 125.729 134.119L126.352 134.399Z" fill="black"/>
</svg>
