<svg width="392" height="215" viewBox="0 0 392 215" fill="none" xmlns="http://www.w3.org/2000/svg">
<g clip-path="url(#clip0)">
<path d="M134.741 134.09C135.144 133.282 135.814 132.643 136.371 131.929C136.29 131.996 136.206 132.059 136.119 132.117C135.707 132.292 135.325 132.531 134.99 132.827C134.784 133.112 134.645 133.44 134.583 133.785L133.623 137.509C133.811 137.272 133.999 137.039 134.191 136.806C134.179 135.872 134.367 134.946 134.741 134.09V134.09Z" fill="#F2F2F2"/>
<path d="M225.363 136.604C225.299 137.025 225.172 137.434 224.986 137.817C224.994 139.398 224.78 140.971 224.35 142.492C224.173 143.132 224.041 143.784 223.955 144.442C223.066 150.507 222.208 156.842 223.725 162.718C223.835 162.362 224.033 162.039 224.301 161.779C225.303 160.55 225.698 158.95 225.995 157.394C227.557 149.199 227.125 140.839 226.748 132.467C226.515 132.212 226.237 132.003 225.927 131.851C225.945 132.215 225.936 132.581 225.901 132.944C225.784 134.172 225.604 135.394 225.363 136.604Z" fill="#F2F2F2"/>
<path d="M172.578 134.101C172.572 133.611 172.472 133.126 172.284 132.674C172.089 132.305 171.843 131.966 171.554 131.667L170.741 130.742C170.326 140.557 169.446 150.398 171.275 160.009C171.572 161.565 171.968 163.166 172.969 164.394C173.237 164.654 173.435 164.977 173.545 165.334C175.051 159.472 174.204 153.122 173.315 147.057C173.229 146.399 173.097 145.747 172.92 145.107C172.252 142.649 172.095 140.079 172.461 137.558C172.613 136.413 172.652 135.255 172.578 134.101V134.101Z" fill="#F2F2F2"/>
<path d="M177.238 113.386C178.326 115.174 179.003 117.294 179.613 119.319L179.873 120.195C179.749 117.226 179.688 114.254 179.666 111.282C179.079 111.803 178.488 112.318 177.893 112.826L177.238 113.386Z" fill="#F2F2F2"/>
<path d="M185.99 213.55C186.155 211.468 185.994 209.374 185.512 207.342C185.181 206.054 184.669 204.795 184.624 203.468C184.633 202.582 184.742 201.7 184.948 200.838C186.495 192.981 187.161 184.722 184.82 177.064C184.191 175.013 183.359 173.029 182.719 170.985C182.427 171.752 182.072 172.493 181.657 173.202C181.569 172.872 181.408 172.565 181.186 172.305C180.964 172.045 180.686 171.838 180.374 171.699C180.391 172.063 180.383 172.429 180.347 172.792C180.235 174.02 180.061 175.242 179.824 176.452C179.761 176.935 179.604 177.401 179.361 177.823C179.05 178.255 178.632 178.6 178.149 178.823C178.367 179.319 178.586 179.811 178.8 180.326L177.23 180.769C178.262 183.024 177.404 185.598 176.854 187.991C174.885 196.329 176.658 205.234 175.725 213.666L185.99 213.55Z" fill="#F2F2F2"/>
<path d="M180.291 94.2607C180.694 93.4528 181.364 92.814 181.921 92.1001C181.84 92.1669 181.756 92.2296 181.669 92.288C181.256 92.4626 180.875 92.7024 180.539 92.9981C180.334 93.2831 180.195 93.6106 180.133 93.9563L179.173 97.68C179.361 97.4433 179.549 97.2103 179.741 96.9773C179.729 96.0431 179.917 95.117 180.291 94.2607V94.2607Z" fill="#F2F2F2"/>
<path d="M218.128 94.2718C218.122 93.7815 218.022 93.2968 217.834 92.844C217.639 92.4758 217.393 92.1368 217.104 91.8369L216.29 90.9126C215.884 100.581 215.026 110.271 216.75 119.744C217.055 118.718 217.363 117.696 217.668 116.674C218.133 114.987 218.738 113.341 219.479 111.755C219.302 110.252 219.084 108.723 218.865 107.228C218.779 106.569 218.647 105.918 218.47 105.277C217.802 102.819 217.645 100.25 218.011 97.7287C218.163 96.583 218.202 95.4251 218.128 94.2718V94.2718Z" fill="#F2F2F2"/>
<path d="M201.711 168.133L200.423 213.392L203.811 213.354C203.215 207.846 202.943 202.308 202.998 196.769C202.998 195.157 203.055 193.526 202.72 191.952C202.482 190.851 202.068 189.795 201.843 188.69C201.621 187.368 201.536 186.027 201.59 184.688L201.711 168.133Z" fill="#F2F2F2"/>
<path d="M172.596 168.159C172.649 168.031 172.702 167.911 172.751 167.783C172.928 167.325 173.086 166.863 173.233 166.397L173.202 166.45C172.905 166.938 172.581 167.408 172.246 167.87C172.367 167.96 172.483 168.058 172.596 168.159Z" fill="#F2F2F2"/>
<path d="M70.1843 117.568C70.1786 117.078 70.079 116.593 69.8907 116.14C69.6957 115.772 69.4499 115.433 69.1604 115.133L68.3472 114.209C67.9331 124.024 67.0523 133.864 68.8818 143.476C69.1792 145.032 69.5744 146.632 70.5758 147.861C70.8436 148.121 71.0417 148.444 71.1518 148.8C72.6575 142.939 71.8105 136.589 70.9221 130.524C70.8419 129.866 70.7161 129.214 70.5457 128.574C69.8708 126.117 69.7081 123.548 70.0676 121.025C70.2197 119.879 70.2588 118.722 70.1843 117.568Z" fill="#F2F2F2"/>
<path d="M70.2031 151.626C70.2558 151.498 70.3085 151.378 70.3575 151.25C70.5344 150.792 70.6925 150.33 70.8393 149.864L70.8092 149.916C70.5118 150.405 70.1881 150.875 69.853 151.337C69.9735 151.427 70.0902 151.525 70.2031 151.626Z" fill="#F2F2F2"/>
<path d="M53.7677 191.429C53.5469 199.282 53.3235 207.136 53.0977 214.989L54.7126 214.97C54.4717 213.97 54.1141 212.997 53.907 211.986C53.6855 210.665 53.6009 209.324 53.6548 207.985L53.7677 191.429Z" fill="#F2F2F2"/>
<path d="M77.9544 214.124C77.4708 213.901 77.0533 213.557 76.7422 213.125C76.4991 212.703 76.3418 212.237 76.2792 211.754C76.0427 210.543 75.868 209.322 75.7559 208.094C75.7207 207.73 75.7119 207.365 75.7296 207C75.417 207.14 75.1396 207.347 74.9175 207.607C74.6954 207.867 74.5343 208.173 74.4459 208.503C73.3453 206.559 72.6272 204.423 72.3303 202.209C72.2173 202.585 72.1006 202.999 71.9538 203.393C71.1708 205.719 70.0339 207.97 69.8081 210.412C69.6995 211.884 69.8266 213.365 70.1845 214.797L77.6607 214.718L77.9544 214.124Z" fill="#F2F2F2"/>
<path d="M82.8706 201.717C83.0174 202.183 83.1755 202.645 83.3525 203.104C83.4014 203.232 83.4541 203.352 83.5068 203.48C83.6197 203.378 83.7364 203.28 83.8569 203.19C83.5219 202.728 83.1981 202.258 82.9007 201.77L82.8706 201.717Z" fill="#F2F2F2"/>
<path d="M136.804 209.533C136.276 207.294 135.915 205.02 135.724 202.728C135.126 197.217 134.529 191.706 133.932 186.195C133.913 186.049 133.898 185.906 133.883 185.759C133.86 185.831 133.841 185.902 133.819 185.973C133.363 187.307 132.46 188.435 131.56 189.532C130.66 190.629 129.535 191.76 128.213 191.441C127.672 191.262 127.18 190.959 126.779 190.554L123.768 187.957C123.173 187.456 122.582 186.942 121.995 186.413C121.968 190.039 121.885 193.665 121.697 197.283C121.637 198.411 121.543 199.624 121.001 200.628C122.112 204.073 122.728 207.658 122.83 211.276C122.857 212.257 122.83 213.234 122.8 214.215L131.624 214.121H131.677L138.313 214.049C137.76 212.569 137.203 211.077 136.804 209.533Z" fill="#F2F2F2"/>
<path d="M121.897 172.127C122.085 172.36 122.273 172.593 122.465 172.829L121.505 169.121C121.443 168.775 121.304 168.448 121.099 168.163C120.763 167.867 120.381 167.627 119.969 167.453C119.882 167.394 119.798 167.331 119.717 167.265C120.274 167.979 120.944 168.617 121.347 169.425C121.719 170.277 121.907 171.198 121.897 172.127V172.127Z" fill="#F2F2F2"/>
<path d="M132.81 155.62C133.047 158.228 133.187 160.847 133.318 163.466C133.45 166.085 133.586 168.636 133.717 171.221C134.024 169.223 134.49 167.251 135.11 165.326C134.568 164.323 134.474 163.128 134.414 161.982C134.226 158.363 134.143 154.737 134.116 151.111C133.54 151.626 132.957 152.13 132.37 152.614C132.589 153.604 132.736 154.609 132.81 155.62V155.62Z" fill="#F2F2F2"/>
<path d="M82.7991 182.392C81.9107 188.457 81.0524 194.792 82.5695 200.669C82.6795 200.312 82.8776 199.989 83.1454 199.729C84.1468 198.501 84.542 196.9 84.8394 195.344C86.6689 185.733 85.7881 175.892 85.374 166.077L84.5721 167.001C84.2758 167.295 84.0223 167.629 83.8193 167.993C83.6289 168.441 83.5255 168.92 83.5143 169.406C83.4403 170.557 83.4794 171.712 83.631 172.856C84.0034 175.383 83.8509 177.961 83.1831 180.427C83.0094 181.072 82.8811 181.729 82.7991 182.392V182.392Z" fill="#F2F2F2"/>
<path d="M218.925 213.193L221.877 213.159C220.303 204.115 222.573 194.402 220.435 185.353C220.1 183.944 219.682 182.468 219.577 181.036C218.824 183.035 217.962 185.004 217.766 187.116C217.423 190.776 219.148 194.278 219.788 197.892C220.668 202.878 219.475 207.962 218.944 212.997C218.937 213.084 218.933 213.129 218.925 213.193Z" fill="#F2F2F2"/>
<path d="M320.407 208.657C316.989 198.49 320.407 187.153 317.934 176.719C317.366 174.325 316.507 171.733 317.558 169.497L315.988 169.02C316.203 168.524 316.421 168.031 316.639 167.517C316.334 167.362 316.05 167.167 315.796 166.938L314.644 177.538C314.453 179.83 314.092 182.104 313.564 184.343C312.912 186.845 311.855 189.227 311.098 191.689C309.076 198.291 309.299 205.336 310.386 212.189L321.68 212.065C321.266 210.938 320.795 209.807 320.407 208.657Z" fill="#F2F2F2"/>
<path d="M315.126 108.152L315.156 108.047L315.292 107.607C314.968 107.341 314.611 107.117 314.23 106.942C314.143 106.884 314.059 106.821 313.978 106.754C314.351 107.228 314.769 107.671 315.126 108.152Z" fill="#F2F2F2"/>
<path d="M277.116 141.222C277.263 141.688 277.421 142.15 277.598 142.608C277.647 142.736 277.7 142.856 277.753 142.984C277.866 142.882 277.982 142.785 278.103 142.695C277.768 142.232 277.444 141.763 277.147 141.274L277.116 141.222Z" fill="#F2F2F2"/>
<path d="M323.506 148.752C324.661 142.695 324.737 136.547 324.53 130.37C324.256 130.621 323.927 130.806 323.57 130.909C323.213 131.012 322.836 131.03 322.47 130.964L322.406 130.945C322.315 131.928 322.132 132.9 321.861 133.85C321.684 134.49 321.552 135.141 321.465 135.8C320.577 141.864 319.719 148.199 321.236 154.076C321.346 153.72 321.544 153.397 321.812 153.137C322.813 151.908 323.208 150.307 323.506 148.752Z" fill="#F2F2F2"/>
<path d="M156.123 213.873C156.123 211.904 156.136 209.934 156.161 207.962C156.103 209.936 156.048 211.908 155.995 213.877L156.123 213.873Z" fill="#F2F2F2"/>
<path d="M390.713 50.8691C390.462 49.4512 390.164 48.0597 389.821 46.6945C386.169 31.9576 377.62 20.1966 361.964 13.8314C360.621 13.2879 359.226 12.7869 357.778 12.3284C354.483 11.2837 351.116 10.48 347.704 9.92365C314.863 4.44146 287.247 7.04916 262.352 11.994C260.948 12.2683 259.555 12.5576 258.166 12.8507C223.27 20.2117 193.553 31.6157 161.845 30.6199C160.456 30.5786 159.06 30.5109 157.663 30.4208C143.84 29.5039 129.58 26.126 114.308 18.9416C96.2571 10.4535 77.9017 13.3054 61.3418 23.413C51.9947 29.1094 43.2198 37.1204 35.3935 46.7095L35.3671 46.7396C34.2629 48.0923 33.1787 49.47 32.1146 50.8728C6.6481 84.6452 -7.49118 135.146 4.1071 174.28C4.5237 175.69 4.97543 177.083 5.4623 178.458C8.81267 187.999 13.7968 196.769 20.633 204.336C24.5998 208.714 29.6874 211.929 35.3483 213.636C36.3195 213.933 37.3096 214.181 38.3109 214.388C38.5933 209.638 38.2658 204.889 36.8767 200.35C36.1238 197.881 35.0622 195.506 34.411 193.004C33.883 190.765 33.5218 188.491 33.3306 186.199C32.7333 180.688 32.136 175.177 31.5387 169.666C31.1622 166.262 30.7858 162.846 30.8874 159.427C30.9897 155.809 31.6057 152.223 32.7169 148.778C32.1749 147.775 32.0808 146.58 32.0205 145.434C31.8323 141.815 31.7495 138.189 31.7231 134.563C31.1359 135.085 30.5449 135.599 29.9501 136.108L26.9197 138.704C26.5187 139.109 26.0271 139.413 25.4854 139.591C24.1641 139.91 22.9934 138.738 22.1388 137.682C21.2843 136.626 20.3469 135.458 19.8802 134.124C19.5231 132.885 19.3842 131.593 19.4698 130.306C19.4999 128.657 19.5828 127.011 19.6693 125.365L20.3921 111.631C20.5276 109.001 20.6632 106.394 20.9003 103.786C21.0697 101.907 21.3107 99.9945 22.2781 98.3938C24.0963 95.3878 27.9963 94.3357 31.5387 94.5912C31.4499 94.4175 31.4008 94.2263 31.3949 94.0314C31.3891 93.8365 31.4266 93.6427 31.5048 93.464C31.7256 93.1276 32.0432 92.8656 32.4158 92.7125L37.6409 89.9207C38.0118 89.6857 38.4315 89.5379 38.8681 89.4886C39.0994 89.4807 39.3291 89.5284 39.5381 89.6276L40.5508 88.9212C40.7777 88.7445 41.032 88.6062 41.3037 88.5116C41.6436 88.4264 42.0011 88.4434 42.3314 88.5605C42.5867 88.0538 42.7341 87.4998 42.7643 86.9335C42.7427 86.2283 42.5921 85.533 42.3201 84.8819C41.1081 83.9661 40.1229 82.7849 39.4403 81.4293C38.7576 80.0736 38.3957 78.5797 38.3825 77.0625C37.2531 76.4313 35.8 76.0743 35.3408 74.7442C35.0283 73.8424 35.401 72.8429 35.273 71.896C35.023 71.6502 34.8325 71.3508 34.7159 71.0205C34.3921 70.0811 34.8137 69.0365 34.6406 68.0596C34.5427 67.526 34.2641 66.9962 34.3733 66.4626C34.4839 66.0847 34.6885 65.7409 34.9681 65.4632L38.6685 61.0857C39.4854 60.1238 40.3287 59.1355 41.4505 58.5606C44.1383 57.1854 47.3569 58.5606 50.376 58.5606C51.3886 58.5606 52.4352 58.4066 53.3876 58.7297C54.0722 59.0107 54.7017 59.4101 55.2472 59.9096L59.3881 63.2913C60.781 64.4186 62.283 65.7638 62.4185 67.5523C62.4506 68.0937 62.3712 68.6359 62.1851 69.1455C62.6657 69.7609 62.962 70.4996 63.0396 71.276C63.1337 72.516 62.5314 73.6996 61.8388 74.7329C60.7987 76.2748 59.5293 77.6495 58.0743 78.8098C57.7337 80.5919 56.9094 82.2465 55.6914 83.5931C55.9637 84.9048 56.3208 86.1976 56.7605 87.4633C56.7709 87.4839 56.7797 87.5052 56.7869 87.5272C57.1388 87.5474 57.4779 87.6659 57.7656 87.8691C58.063 88.0896 58.3356 88.3416 58.5787 88.6206C58.7089 88.4137 58.9013 88.2533 59.1284 88.1622C59.6855 87.9367 60.3104 88.1922 60.8562 88.4402C62.5164 89.1917 64.2066 89.9733 65.558 91.1945C66.0512 91.641 66.466 92.1668 66.7853 92.7501C68.6838 92.4703 70.6188 92.9056 72.2136 93.9713C75.0595 95.9176 76.2303 99.4722 77.2203 102.771L79.4376 110.17C80.4088 113.413 81.3876 116.685 81.6134 120.06C81.8205 123.133 81.3989 126.207 80.9772 129.254C80.3938 133.47 81.7678 138.099 81.7866 142.357C81.7866 143.45 81.7866 144.555 81.7602 145.663C83.2934 144.713 85.1114 144.329 86.8987 144.577C87.218 143.994 87.6328 143.468 88.1259 143.022C89.4774 141.8 91.1676 141.026 92.8277 140.267C93.3736 140.019 93.9985 139.764 94.5556 139.989C94.7827 140.08 94.9751 140.241 95.1052 140.448C95.3484 140.169 95.621 139.917 95.9184 139.696C96.2061 139.493 96.5452 139.375 96.8971 139.354C96.9043 139.332 96.9131 139.311 96.9235 139.29C97.3632 138.025 97.7203 136.732 97.9926 135.42C96.7745 134.074 95.9503 132.419 95.6097 130.637C94.1547 129.477 92.8853 128.102 91.8452 126.56C91.1526 125.527 90.5502 124.343 90.6444 123.103C90.722 122.327 91.0183 121.588 91.4989 120.973C91.3128 120.463 91.2334 119.921 91.2655 119.379C91.401 117.591 92.903 116.253 94.2959 115.118L98.4368 111.737C98.9823 111.237 99.6118 110.838 100.296 110.557C101.253 110.234 102.299 110.388 103.308 110.388C106.32 110.388 109.546 109.02 112.233 110.388C113.363 110.963 114.199 111.951 115.015 112.913L118.716 117.29C118.995 117.568 119.2 117.912 119.311 118.29C119.416 118.823 119.141 119.353 119.043 119.887C118.87 120.864 119.292 121.908 118.968 122.848C118.851 123.178 118.661 123.477 118.411 123.723C118.283 124.67 118.656 125.669 118.343 126.571C117.884 127.901 116.438 128.258 115.302 128.89C115.284 130.401 114.92 131.888 114.238 133.237C113.556 134.587 112.574 135.762 111.368 136.675C111.096 137.326 110.945 138.022 110.923 138.727C110.954 139.293 111.101 139.847 111.356 140.354C111.687 140.237 112.044 140.22 112.384 140.305C112.656 140.399 112.91 140.538 113.137 140.714L114.15 141.421C114.359 141.322 114.588 141.274 114.82 141.282C115.256 141.331 115.676 141.479 116.047 141.714L121.272 144.506C121.5 144.623 121.715 144.766 121.912 144.93C121.953 143.92 121.998 142.905 122.051 141.894L122.785 128.164C122.921 125.534 123.056 122.926 123.293 120.319C123.463 118.44 123.704 116.527 124.671 114.927C126.489 111.921 130.389 110.869 133.932 111.124C133.843 110.951 133.794 110.759 133.788 110.564C133.782 110.369 133.82 110.176 133.898 109.997C134.119 109.661 134.436 109.399 134.809 109.245L140.034 106.454C140.405 106.219 140.825 106.071 141.261 106.022C141.492 106.014 141.722 106.061 141.931 106.161L142.944 105.454C143.171 105.278 143.425 105.139 143.697 105.045C144.037 104.959 144.394 104.976 144.724 105.093C144.98 104.587 145.127 104.033 145.157 103.466C145.136 102.761 144.985 102.066 144.713 101.415C143.501 100.499 142.516 99.3179 141.833 97.9622C141.151 96.6066 140.789 95.1127 140.776 93.5955C139.646 92.9642 138.193 92.6073 137.734 91.2771C137.421 90.3753 137.794 89.3758 137.666 88.429C137.416 88.1832 137.226 87.8838 137.109 87.5535C136.785 86.6141 137.207 85.5695 137.034 84.5926C136.908 84.1701 136.813 83.7395 136.748 83.3037C136.337 84.0744 136.021 84.892 135.807 85.7386C135.276 87.8691 135.37 90.101 135.054 92.2729C134.941 93.0244 134.726 93.8285 134.09 94.223C133.597 94.5311 132.961 94.5048 132.43 94.7265C131.541 95.1023 131.048 96.0792 130.924 97.0299C130.8 97.9805 130.95 98.9462 130.95 99.9081C130.95 102.422 129.742 105.022 127.544 106.247C124.649 107.863 121.054 106.792 117.925 105.695C119.319 105.193 120.558 104.335 121.517 103.207L118.076 102.512C120.074 101.578 121.923 100.354 123.561 98.8785C124.172 98.3924 124.654 97.7623 124.961 97.0449C125.338 95.989 124.987 94.7904 125.338 93.7345C125.921 91.9272 128.138 91.2433 129.268 89.7178C130.258 88.3876 130.292 86.6028 130.288 84.9495L130.269 78.6444C130.269 76.8296 130.386 74.7366 131.835 73.6357C133.45 72.407 135.739 73.1059 137.772 73.0946C139.914 73.0946 141.954 72.2041 144.085 71.9674C146.095 71.7382 149.449 73.1435 149.392 74.7366C150.512 74.9343 151.644 75.0511 152.78 75.0861C153.793 75.0861 154.84 74.932 155.792 75.2552C156.477 75.5362 157.106 75.9356 157.652 76.435L161.793 79.8168C163.185 80.944 164.687 82.2892 164.804 84.0778C164.836 84.6192 164.757 85.1614 164.571 85.671C165.051 86.2864 165.348 87.025 165.425 87.8014C165.519 89.0414 164.917 90.225 164.224 91.2583C163.184 92.8003 161.915 94.175 160.46 95.3352C160.119 97.1173 159.295 98.7719 158.077 100.119C158.349 101.43 158.706 102.723 159.146 103.989C159.156 104.009 159.165 104.031 159.172 104.053C159.524 104.073 159.863 104.191 160.151 104.395C160.449 104.615 160.721 104.867 160.964 105.146C161.094 104.939 161.287 104.779 161.514 104.688C162.071 104.462 162.696 104.718 163.242 104.966C164.705 105.57 166.094 106.339 167.383 107.258C167.383 107.183 167.383 107.104 167.383 107.029C167.413 105.379 167.496 103.733 167.582 102.087L168.335 88.335C168.471 85.7048 168.606 83.0971 168.843 80.4894C169.013 78.6106 169.254 76.6981 170.221 75.0974C172.039 72.0914 175.939 71.0393 179.482 71.2948C179.393 71.1211 179.344 70.9299 179.338 70.735C179.332 70.54 179.37 70.3462 179.448 70.1675C179.669 69.8311 179.986 69.5692 180.359 69.416L185.584 66.6242C185.955 66.3892 186.374 66.2414 186.811 66.1921C187.042 66.1842 187.272 66.2319 187.481 66.3311L188.494 65.6247C188.721 65.4481 188.975 65.3097 189.247 65.2152C189.587 65.1299 189.944 65.1469 190.274 65.264C190.53 64.7573 190.677 64.2034 190.707 63.637C190.686 62.9318 190.535 62.2366 190.263 61.5854C189.051 60.6696 188.066 59.4884 187.383 58.1328C186.701 56.7772 186.339 55.2833 186.325 53.7661C185.196 53.1348 183.743 52.7779 183.284 51.4477C182.971 50.5459 183.344 49.5464 183.216 48.5995C182.966 48.3538 182.776 48.0543 182.659 47.724C182.335 46.7847 182.757 45.7401 182.584 44.7631C182.486 44.2296 182.207 43.6998 182.316 43.1662C182.427 42.7883 182.632 42.4444 182.911 42.1667L186.612 37.7892C187.428 36.8273 188.272 35.8391 189.394 35.2642C192.081 33.8889 195.3 35.2642 198.319 35.2642C199.332 35.2642 200.378 35.1101 201.331 35.4333C202.015 35.7143 202.645 36.1137 203.19 36.6131L207.331 39.9949C208.724 41.1221 210.226 42.4673 210.343 44.2559C210.375 44.7973 210.295 45.3395 210.109 45.849C210.59 46.4645 210.886 47.2031 210.964 47.9795C211.058 49.2195 210.456 50.4031 209.763 51.4364C208.723 52.9783 207.453 54.3531 205.999 55.5133C205.658 57.2954 204.834 58.95 203.616 60.2966C203.888 61.6084 204.245 62.9011 204.685 64.1668C204.695 64.1874 204.704 64.2088 204.711 64.2307C205.063 64.251 205.402 64.3694 205.69 64.5726C205.987 64.7932 206.26 65.0451 206.503 65.3241C206.633 65.1173 206.825 64.9568 207.053 64.8657C207.61 64.6403 208.235 64.8958 208.78 65.1438C210.441 65.8953 212.131 66.6768 213.482 67.898C213.975 68.3446 214.39 68.8704 214.709 69.4536C216.614 69.169 218.557 69.6045 220.157 70.6748C223.003 72.6212 224.173 76.1758 225.163 79.4749L227.381 86.8733C228.352 90.1161 229.331 93.3888 229.556 96.7631C229.748 99.6338 229.391 102.508 228.999 105.36C229.093 105.263 229.188 105.165 229.293 105.071C230.644 103.85 232.335 103.076 233.995 102.317C234.541 102.069 235.166 101.813 235.723 102.039C235.95 102.13 236.142 102.29 236.272 102.497C236.515 102.218 236.788 101.966 237.085 101.746C237.373 101.542 237.712 101.424 238.064 101.404C238.071 101.382 238.08 101.36 238.09 101.34C238.53 100.074 238.887 98.7812 239.16 97.4695C237.942 96.1229 237.117 94.4683 236.777 92.6862C235.322 91.526 234.052 90.1512 233.012 88.6093C232.32 87.576 231.717 86.3924 231.811 85.1524C231.889 84.376 232.185 83.6373 232.666 83.0219C232.48 82.5124 232.4 81.9701 232.433 81.4287C232.568 79.6402 234.07 78.3025 235.444 77.1677L239.585 73.786C240.13 73.2866 240.76 72.8872 241.445 72.6062C242.401 72.283 243.447 72.4371 244.456 72.4371C245.592 72.4021 246.725 72.2853 247.844 72.0876C247.788 70.4944 251.142 69.0816 253.152 69.3183C255.279 69.5626 257.323 70.4456 259.465 70.4456C261.498 70.4456 263.787 69.758 265.402 70.9867C266.851 72.0876 266.971 74.1805 266.968 75.9954L266.983 82.323C266.983 83.9763 267.013 85.7611 268.003 87.0913C269.079 88.5417 271.139 89.2368 271.835 90.8488C272.686 88.6657 273.838 86.6404 275.743 85.3403C277.327 84.2718 279.251 83.8274 281.145 84.0928C281.464 83.5096 281.879 82.9838 282.372 82.5372C283.723 81.316 285.413 80.542 287.074 79.783C287.619 79.535 288.244 79.2795 288.801 79.5049C289.029 79.596 289.221 79.7564 289.351 79.9633C289.594 79.6843 289.867 79.4324 290.164 79.2118C290.452 79.0086 290.791 78.8901 291.143 78.8699C291.15 78.848 291.159 78.8266 291.169 78.806C291.609 77.5403 291.966 76.2476 292.238 74.9358C291.02 73.5892 290.196 71.9346 289.855 70.1525C288.4 68.9923 287.131 67.6175 286.091 66.0756C285.398 65.0423 284.796 63.8587 284.89 62.6187C284.968 61.8423 285.264 61.1037 285.745 60.4882C285.559 59.9787 285.479 59.4365 285.511 58.8951C285.647 57.1065 287.149 55.7688 288.523 54.6341L292.664 51.2523C293.209 50.7529 293.839 50.3535 294.523 50.0725C295.48 49.7493 296.526 49.9034 297.535 49.9034C298.671 49.8684 299.804 49.7516 300.923 49.5539C300.866 47.9608 304.221 46.5479 306.231 46.7847C308.358 47.0289 310.402 47.9119 312.544 47.9119C314.577 47.9119 316.865 47.2243 318.48 48.453C319.93 49.5539 320.05 51.6469 320.046 53.4617L320.061 59.7781C320.061 61.4314 320.092 63.2162 321.082 64.5463C322.211 66.0719 324.428 66.7557 325.012 68.5631C325.351 69.6227 325.012 70.8176 325.388 71.8734C325.696 72.5909 326.177 73.221 326.789 73.7071C327.631 74.4662 328.531 75.1596 329.48 75.7812C329.635 75.2814 329.876 74.8122 330.192 74.3947C330.006 73.8852 329.926 73.3429 329.958 72.8015C330.094 71.013 331.596 69.6753 332.97 68.5405L337.111 65.1588C337.656 64.6594 338.286 64.2599 338.97 63.9789C339.926 63.6558 340.973 63.8099 341.982 63.8099C344.993 63.8099 348.22 62.4421 350.907 63.8099C352.037 64.3848 352.872 65.373 353.689 66.3349L357.39 70.7124C357.669 70.9901 357.874 71.334 357.985 71.7119C358.09 72.2454 357.815 72.7752 357.717 73.3088C357.544 74.2858 357.966 75.3303 357.642 76.2697C357.525 76.6 357.335 76.8994 357.085 77.1452C356.957 78.0921 357.33 79.0916 357.017 79.9934C356.558 81.3235 355.112 81.6805 353.975 82.3118C353.957 83.8229 353.594 85.3099 352.912 86.6593C352.23 88.0086 351.248 89.1846 350.042 90.0973C349.77 90.7484 349.619 91.4437 349.597 92.1489C349.628 92.7152 349.775 93.2692 350.03 93.7759C350.361 93.6588 350.718 93.6418 351.058 93.727C351.33 93.8216 351.584 93.96 351.811 94.1366L352.824 94.843C353.032 94.7438 353.262 94.6961 353.494 94.704C353.93 94.7533 354.35 94.9011 354.721 95.1361L359.946 97.9279C360.318 98.081 360.636 98.343 360.857 98.6794C360.935 98.8581 360.973 99.0519 360.967 99.2468C360.961 99.4417 360.912 99.6329 360.823 99.8066C364.365 99.5511 368.265 100.599 370.083 103.609C371.051 105.21 371.292 107.138 371.461 109.001C371.698 111.609 371.838 114.228 371.969 116.847L372.681 130.614C372.768 132.26 372.85 133.906 372.881 135.555C372.966 136.842 372.827 138.134 372.47 139.373C372.015 140.707 371.111 141.834 370.212 142.931C369.312 144.029 368.186 145.16 366.865 144.84C366.323 144.662 365.832 144.358 365.431 143.953L362.4 141.357C361.805 140.856 361.214 140.341 360.627 139.813C360.601 143.439 360.518 147.065 360.33 150.683C360.27 151.81 360.175 153.024 359.633 154.027C360.745 157.473 361.361 161.058 361.463 164.676C361.491 167.626 361.325 170.574 360.966 173.502C361.282 172.834 361.6 172.157 361.918 171.473C378.271 136.596 397.135 86.3135 390.713 50.8691Z" fill="#F2F2F2"/>
<path d="M32.2048 117.268L31.2449 120.992C31.4331 120.755 31.6213 120.522 31.8133 120.289C31.7964 119.356 31.9787 118.43 32.3479 117.572C32.7507 116.764 33.4207 116.126 33.9779 115.412C33.897 115.478 33.8128 115.541 33.7256 115.599C33.3134 115.774 32.9321 116.014 32.5963 116.31C32.3959 116.596 32.2622 116.923 32.2048 117.268V117.268Z" fill="#F2F2F2"/>
<path d="M263.064 134.176C263.252 134.409 263.44 134.642 263.632 134.879L262.672 131.17C262.61 130.824 262.471 130.497 262.266 130.212C261.93 129.916 261.548 129.676 261.136 129.502C261.049 129.443 260.965 129.381 260.884 129.314C261.441 130.028 262.111 130.667 262.514 131.475C262.886 132.326 263.074 133.247 263.064 134.176V134.176Z" fill="#F2F2F2"/>
<path d="M322.173 156.887C322.286 156.785 322.402 156.688 322.523 156.597C322.188 156.135 321.864 155.666 321.567 155.177L321.537 155.125C321.683 155.59 321.842 156.053 322.018 156.511C322.067 156.639 322.109 156.759 322.173 156.887Z" fill="#F2F2F2"/>
<path d="M224.038 163.767C224.184 164.233 224.343 164.695 224.519 165.153C224.568 165.281 224.621 165.401 224.674 165.529C224.787 165.427 224.903 165.33 225.024 165.24C224.689 164.777 224.365 164.308 224.068 163.819L224.038 163.767Z" fill="#F2F2F2"/>
<path d="M256.495 90.9652C256.477 92.4763 256.113 93.9634 255.431 95.3127C254.749 96.6621 253.768 97.838 252.561 98.7507C252.289 99.4019 252.138 100.097 252.117 100.802C252.147 101.369 252.294 101.923 252.55 102.429C252.88 102.312 253.237 102.295 253.577 102.38C253.849 102.475 254.103 102.613 254.33 102.79L255.343 103.496C255.552 103.397 255.782 103.35 256.013 103.357C256.449 103.407 256.869 103.555 257.24 103.79L262.465 106.581C262.838 106.734 263.155 106.996 263.376 107.333C263.454 107.512 263.492 107.705 263.486 107.9C263.48 108.095 263.431 108.286 263.342 108.46C264.463 108.378 265.589 108.434 266.696 108.625C267.098 106.526 267.619 104.451 268.259 102.411C267.008 100.985 266.325 99.1504 266.339 97.2552C266.339 96.2933 266.493 95.3277 266.365 94.377C266.237 93.4264 265.744 92.4419 264.859 92.0737C264.321 91.852 263.692 91.8783 263.199 91.5702C262.563 91.1944 262.348 90.3603 262.236 89.62C261.908 87.4482 262.002 85.2162 261.483 83.0857C261.269 82.2392 260.953 81.4216 260.542 80.6509C260.476 81.0866 260.381 81.5173 260.255 81.9397C260.082 82.9167 260.504 83.9612 260.18 84.9006C260.064 85.2309 259.873 85.5303 259.623 85.7761C259.495 86.723 259.868 87.7225 259.555 88.6243C259.077 89.9695 257.632 90.3264 256.495 90.9652Z" fill="#F2F2F2"/>
<path d="M277.045 121.897C276.157 127.962 275.298 134.297 276.815 140.174C276.925 139.817 277.123 139.494 277.391 139.234C278.393 138.005 278.788 136.405 279.085 134.849C280.915 125.237 280.034 115.397 279.62 105.582L278.818 106.506C278.522 106.8 278.268 107.134 278.065 107.498C277.875 107.946 277.771 108.425 277.76 108.911C277.686 110.062 277.725 111.217 277.877 112.361C278.249 114.888 278.097 117.465 277.429 119.932C277.255 120.577 277.127 121.234 277.045 121.897V121.897Z" fill="#F2F2F2"/>
<path d="M271.315 153.016C271.051 153.234 270.741 153.392 270.409 153.477C270.076 153.562 269.729 153.573 269.392 153.508C268.85 153.33 268.359 153.026 267.958 152.622L264.946 150.025C264.351 149.524 263.76 149.01 263.173 148.481C263.147 152.107 263.064 155.733 262.876 159.351C262.815 160.479 262.721 161.692 262.179 162.696C263.29 166.141 263.906 169.726 264.009 173.344C264.099 176.764 263.73 180.179 263.357 183.583C262.763 189.094 262.165 194.605 261.566 200.116C261.374 202.408 261.013 204.683 260.485 206.921C259.966 208.916 259.186 210.833 258.509 212.783L262.352 212.742L267.246 212.689H267.848L276.13 212.599C276.132 212.59 276.132 212.581 276.13 212.573C276.77 208.958 278.494 205.456 278.152 201.796C277.926 199.354 276.789 197.103 276.006 194.777C272.588 184.609 276.006 173.273 273.533 162.838C272.964 160.445 272.106 157.852 273.156 155.616L271.586 155.139C271.801 154.643 272.019 154.151 272.238 153.636C271.902 153.475 271.591 153.266 271.315 153.016V153.016Z" fill="#F2F2F2"/>
<path d="M241.109 205.332C241.124 207.872 241.141 210.412 241.158 212.952H241.324L241.109 205.332Z" fill="#F2F2F2"/>
<path d="M338.609 196.689C338.634 200.527 338.659 204.361 338.684 208.191L338.933 208.045C338.822 204.26 338.714 200.475 338.609 196.689Z" fill="#F2F2F2"/>
<path d="M329.484 77.8965L328.848 78.0242C329.203 78.4444 329.599 78.8283 330.03 79.1703C329.801 78.767 329.618 78.3398 329.484 77.8965V77.8965Z" fill="#F2F2F2"/>
<path d="M294.188 182.787L294.301 199.343C294.355 200.682 294.271 202.023 294.049 203.344C293.823 204.449 293.409 205.505 293.172 206.606C292.837 208.18 292.878 209.811 292.893 211.423C292.893 211.746 292.893 212.069 292.893 212.392L295.028 212.37C294.749 202.51 294.469 192.649 294.188 182.787Z" fill="#F2F2F2"/>
<path d="M360.563 125.534C360.751 125.767 360.939 126 361.131 126.237L360.171 122.513C360.11 122.167 359.971 121.84 359.765 121.555C359.429 121.259 359.048 121.019 358.636 120.845C358.548 120.786 358.464 120.724 358.383 120.657C358.94 121.371 359.61 122.009 360.013 122.817C360.388 123.674 360.575 124.6 360.563 125.534Z" fill="#F2F2F2"/>
<path d="M309.573 68.4204C309.555 69.9316 309.192 71.4186 308.51 72.7679C307.828 74.1173 306.846 75.2932 305.64 76.206C305.367 76.8571 305.217 77.5524 305.195 78.2575C305.226 78.8239 305.373 79.3779 305.628 79.8845C305.958 79.7674 306.316 79.7505 306.656 79.8357C306.928 79.9303 307.182 80.0686 307.409 80.2453L308.421 80.9517C308.63 80.8525 308.86 80.8048 309.092 80.8126C309.528 80.862 309.948 81.0097 310.319 81.2447L315.544 84.0366C315.916 84.1897 316.234 84.4516 316.455 84.7881C316.533 84.9668 316.571 85.1606 316.565 85.3555C316.559 85.5504 316.51 85.7416 316.421 85.9153C319.963 85.6598 323.863 86.7081 325.681 89.7179C326.649 91.3186 326.89 93.2462 327.059 95.1099C327.089 95.4518 327.116 95.7938 327.142 96.1394C328.433 95.0836 329.977 94.3697 331.498 93.6745C332.043 93.4265 332.668 93.171 333.225 93.3965C333.453 93.4876 333.645 93.648 333.775 93.8549C334.018 93.5759 334.291 93.3239 334.588 93.1034C334.876 92.9002 335.215 92.7817 335.567 92.7615C335.574 92.7395 335.583 92.7182 335.593 92.6976C336.033 91.4319 336.39 90.1391 336.662 88.8274C335.444 87.4808 334.62 85.8262 334.279 84.0441C333.138 83.1264 332.109 82.077 331.215 80.9178C328.403 81.8309 325.346 82.4584 322.824 81.0531C320.626 79.8282 319.436 77.228 319.436 74.7142C319.436 73.7523 319.591 72.7866 319.463 71.836C319.335 70.8853 318.841 69.9009 317.957 69.5326C317.418 69.3109 316.79 69.3373 316.297 69.0291C315.66 68.6534 315.446 67.8192 315.333 67.079C315.005 64.9072 315.1 62.6752 314.58 60.5447C314.366 59.6982 314.05 58.8806 313.639 58.1099C313.574 58.5456 313.478 58.9763 313.353 59.3987C313.18 60.3756 313.601 61.4202 313.278 62.3596C313.161 62.6899 312.97 62.9893 312.72 63.2351C312.592 64.182 312.965 65.1815 312.653 66.0833C312.156 67.4247 310.71 67.7817 309.573 68.4204Z" fill="#F2F2F2"/>
<path d="M248.702 205.994V215.011H54.833V205.994C54.833 205.296 55.1106 204.627 55.6048 204.134C56.099 203.64 56.7692 203.363 57.4681 203.363H246.067C246.766 203.363 247.436 203.64 247.931 204.134C248.425 204.627 248.702 205.296 248.702 205.994V205.994Z" fill="#3F3D56"/>
<path d="M175.209 71.9637C176.647 73.4404 178.029 75.1463 178.3 77.1866C175.235 77.9869 172.1 76.484 169.235 75.1425C160.37 70.9813 151.008 67.9671 141.378 66.1734C140.625 66.0344 139.819 65.8803 139.251 65.3618C138.178 64.3811 138.374 61.9086 139.371 60.8903C140.448 59.7932 142.439 59.951 143.889 59.8721C149.67 59.5797 155.447 60.5053 160.846 62.5886C166.245 64.6718 171.144 67.8661 175.224 71.9637H175.209Z" fill="#192534"/>
<path d="M239.043 214.996H162.041C161.013 212.656 160.204 210.226 159.624 207.737C159.428 206.963 159.248 206.181 159.067 205.404C158.909 204.72 158.758 204.032 158.615 203.348C158.179 201.292 157.802 199.226 157.486 197.152C157.182 195.198 156.931 193.238 156.733 191.272C156.537 189.39 156.385 187.503 156.277 185.609C156.277 185.556 156.277 185.504 156.277 185.447C156.232 184.549 156.277 183.569 156.895 182.934C157.437 182.389 158.265 182.269 159.037 182.216C165.436 181.78 171.655 184.095 178.04 183.753C179.771 183.651 181.164 183.377 182.775 183.708C183.03 183.755 183.282 183.819 183.528 183.899C183.905 184.016 184.255 184.14 184.613 184.275C187.063 185.151 189.348 186.255 191.983 186.748C196.471 187.593 201.074 187.428 205.629 187.755C206.006 187.777 206.382 187.807 206.759 187.845C207.222 187.882 207.685 187.931 208.144 187.988C212.047 188.504 215.879 189.462 219.565 190.843C221.553 191.561 223.511 192.373 225.442 193.233C225.995 193.481 226.545 193.729 227.094 193.984C228.073 194.439 229.067 194.92 230.038 195.442C230.415 195.642 230.791 195.844 231.145 196.059C234.07 197.753 236.713 199.857 238.252 202.713C238.369 202.924 238.474 203.138 238.576 203.356C238.678 203.574 238.753 203.758 238.836 203.964C240.18 207.448 239.709 211.205 239.043 214.996Z" fill="#202F42"/>
<path opacity="0.1" d="M239.043 214.996H162.041C161.013 212.656 160.204 210.226 159.624 207.737C159.428 206.963 159.248 206.181 159.067 205.404C158.909 204.72 158.758 204.032 158.615 203.348C158.179 201.292 157.802 199.226 157.486 197.152C157.182 195.198 156.931 193.238 156.733 191.272C156.537 189.39 156.385 187.503 156.277 185.609C156.277 185.556 156.277 185.504 156.277 185.447C156.232 184.549 156.277 183.569 156.895 182.934C157.437 182.389 158.265 182.269 159.037 182.216C165.436 181.78 171.655 184.095 178.04 183.753C179.771 183.651 181.164 183.377 182.775 183.708C183.03 183.755 183.282 183.819 183.528 183.899C183.905 184.016 184.255 184.14 184.613 184.275C187.063 185.151 189.348 186.255 191.983 186.748C196.471 187.593 201.074 187.428 205.629 187.755C206.006 187.777 206.382 187.807 206.759 187.845C207.222 187.882 207.685 187.931 208.144 187.988C212.047 188.504 215.879 189.462 219.565 190.843C221.553 191.561 223.511 192.373 225.442 193.233C225.995 193.481 226.545 193.729 227.094 193.984C228.073 194.439 229.067 194.92 230.038 195.442C230.415 195.642 230.791 195.844 231.145 196.059C234.07 197.753 236.713 199.857 238.252 202.713C238.369 202.924 238.474 203.138 238.576 203.356C238.678 203.574 238.753 203.758 238.836 203.964C240.18 207.448 239.709 211.205 239.043 214.996Z" fill="black"/>
<path d="M168.764 214.997H81.9748C80.0248 212.855 78.7487 210.063 79.0649 207.219C79.1784 206.036 79.3772 204.863 79.6597 203.709C79.6898 203.585 79.7237 203.465 79.7575 203.333C80.3138 201.149 81.6952 199.264 83.6123 198.073C87.0305 195.882 91.1412 195.025 94.9057 193.605C96.9272 192.854 98.8772 191.903 100.899 191.148C103.806 190.101 106.808 189.336 109.862 188.863C110.201 188.807 110.543 188.75 110.882 188.702C111.221 188.653 111.578 188.593 111.929 188.544C113.811 188.273 115.693 188.052 117.594 187.834C121.735 187.349 125.94 186.868 130.107 187.236C133.437 187.581 136.714 188.315 139.872 189.423C142.251 190.216 144.6 191.136 146.934 192.053C150.574 193.489 154.245 194.958 157.493 197.111C157.776 197.299 158.051 197.487 158.325 197.686C160.487 199.253 162.384 201.156 163.942 203.322C164.846 204.564 165.641 205.881 166.317 207.26C167.514 209.703 168.339 212.31 168.764 214.997V214.997Z" fill="#202F42"/>
<path d="M144.017 63.509C142.594 66.624 140.181 69.4459 136.947 70.5919C135.227 71.2006 133.371 71.3096 131.617 71.8093C129.862 72.3091 128.093 73.3424 127.476 75.0521C127.249 75.8011 127.14 76.5806 127.152 77.3629C126.885 84.7088 126.666 92.344 129.607 99.085C132.148 104.902 136.804 109.497 141.404 113.878C146.787 119.003 152.487 124.2 159.568 126.492C163.709 127.826 168.584 127.973 172.009 125.316C173.417 124.223 174.464 122.746 175.491 121.288C177.75 118.075 180.046 114.818 181.469 111.143C184.387 103.628 183.404 95.2561 182.377 87.2714C182.37 86.7973 182.191 86.3416 181.872 85.9901C181.473 85.6557 180.89 85.7008 180.366 85.7309C176.704 85.9488 172.706 84.0738 171.479 80.6244C170.951 79.1214 170.967 77.5132 170.993 75.9351L171.136 66.8344C171.136 65.8537 171.162 64.8392 170.793 63.9261C170.15 62.3405 168.535 61.4124 166.988 60.6458C161.999 58.1549 156.798 56.1104 151.448 54.5362C149.106 53.8485 147.326 52.7025 146.283 55.2125C145.18 57.824 145.229 60.8525 144.017 63.509Z" fill="#FBBEBE"/>
<path opacity="0.1" d="M144.017 63.509C142.594 66.624 140.181 69.4459 136.947 70.5919C135.227 71.2006 133.371 71.3096 131.617 71.8093C129.862 72.3091 128.093 73.3424 127.476 75.0521C127.249 75.8011 127.14 76.5806 127.152 77.3629C126.885 84.7088 126.666 92.344 129.607 99.085C132.148 104.902 136.804 109.497 141.404 113.878C146.787 119.003 152.487 124.2 159.568 126.492C163.709 127.826 168.584 127.973 172.009 125.316C173.417 124.223 174.464 122.746 175.491 121.288C177.75 118.075 180.046 114.818 181.469 111.143C184.387 103.628 183.404 95.2561 182.377 87.2714C182.37 86.7973 182.191 86.3416 181.872 85.9901C181.473 85.6557 180.89 85.7008 180.366 85.7309C176.704 85.9488 172.706 84.0738 171.479 80.6244C170.951 79.1214 170.967 77.5132 170.993 75.9351L171.136 66.8344C171.136 65.8537 171.162 64.8392 170.793 63.9261C170.15 62.3405 168.535 61.4124 166.988 60.6458C161.999 58.1549 156.798 56.1104 151.448 54.5362C149.106 53.8485 147.326 52.7025 146.283 55.2125C145.18 57.824 145.229 60.8525 144.017 63.509Z" fill="black"/>
<path d="M168.708 70.9C184.093 70.9 196.565 58.451 196.565 43.0945C196.565 27.738 184.093 15.2891 168.708 15.2891C153.323 15.2891 140.851 27.738 140.851 43.0945C140.851 58.451 153.323 70.9 168.708 70.9Z" fill="#FBBEBE"/>
<path d="M171.354 86.6891L168.241 94.4032C167.537 96.1467 166.822 97.9089 165.737 99.4457C162.745 103.68 156.85 105.619 151.933 103.989C147.292 102.459 143.173 98.1231 138.381 99.1639C135.897 99.705 133.917 101.696 132.81 103.981C131.703 106.266 131.349 108.836 131.112 111.365C130.017 123.061 131.134 134.859 134.406 146.144C134.745 147.309 135.159 148.53 136.059 149.334C137.158 150.296 138.735 150.439 140.199 150.521C146.975 150.925 153.764 151.163 160.565 151.235C164.744 151.284 168.941 151.269 173.067 150.623C177.193 149.977 181.142 148.744 185.211 147.932C189.017 147.181 192.913 146.832 196.632 145.738C197.238 145.561 197.878 145.336 198.251 144.833C198.54 144.352 198.671 143.794 198.628 143.236C198.628 141.071 197.954 138.967 197.223 136.931C195.341 131.734 193.143 126.62 192.096 121.198C190.654 113.739 191.501 106.055 191.343 98.4575C191.291 95.7371 191.102 92.9716 190.165 90.4127C189.228 87.8539 187.455 85.5017 184.959 84.4007C180.656 82.4882 173.413 81.6315 171.354 86.6891Z" fill="white"/>
<path d="M157.038 123.193C155.05 121.51 155.156 118.508 154.918 115.915C154.485 111.053 152.366 106.521 150.281 102.103L144.05 88.8913C141.445 83.3828 138.78 77.1115 140.93 71.4039C141.649 69.4801 142.88 67.7667 143.512 65.8128C144.145 63.8589 144.017 61.4165 142.413 60.1277C140.373 58.4894 137.357 59.6054 135.05 60.8491C130.807 63.1462 126.717 65.7128 122.804 68.5332C121.742 69.2847 120.628 70.1752 120.282 71.4377C120.067 72.223 120.18 73.0835 119.879 73.8425C119.292 75.3455 117.462 75.7964 115.9 76.1496C109.461 77.631 103.393 80.4077 98.0656 84.31C92.7386 88.2122 88.265 93.158 84.9184 98.8449C83.8081 100.69 82.9234 102.662 82.2833 104.718C81.5304 107.348 81.3346 110.08 81.1539 112.796C80.6721 119.785 80.2078 126.771 79.7611 133.752C79.5616 136.844 79.3658 140.012 80.2128 142.992C80.7587 144.908 81.7186 146.7 82.1251 148.654C82.9496 152.716 81.2104 156.864 79.0383 160.396C76.8662 163.928 74.1934 167.243 72.8307 171.139C72.0299 173.619 71.6185 176.207 71.611 178.812C71.4106 187.604 73.8519 196.254 78.6204 203.649C83.247 204.329 86.7103 199.737 90.9603 197.787C97.1905 194.935 105.058 197.22 110.912 193.695C112.342 192.835 113.581 191.662 115.094 190.952C116.468 190.31 117.993 190.081 119.495 189.863C125.044 189.062 130.664 188.322 136.239 188.923C144.145 189.776 152.317 193.282 159.752 190.453C161.585 189.754 163.264 188.698 165.105 188.018C171.881 185.511 179.41 188.506 186.626 187.954C185.497 187.894 184.993 186.616 184.782 185.493C184.307 183 183.888 180.495 183.524 177.978C183.204 175.795 182.93 173.551 183.43 171.406C183.89 169.414 184.989 167.648 185.911 165.822C188.821 160.073 190.052 153.625 192.548 147.681C193.734 144.848 195.183 142.142 196.591 139.415C202.275 128.217 206.702 116.427 209.793 104.259C206.506 98.3714 203.529 92.2354 200.242 86.3512C199.29 84.6453 198.311 82.9093 196.854 81.5905C194.769 79.6817 191.942 78.8513 189.22 78.081C186.882 77.4159 184.511 76.7471 182.068 76.7433C179.624 76.7395 172.751 74.192 171.102 75.9693C169.4 77.8029 173.229 83.7247 173.142 86.2197C173.056 88.7147 173.33 91.2397 172.916 93.7046C172.314 97.3006 170.281 100.506 169.359 104.03C168.994 105.698 168.714 107.384 168.519 109.08C167.905 112.874 166.91 116.596 165.549 120.191C165.301 120.948 164.934 121.661 164.461 122.303C162.677 124.482 159.808 123.656 157.038 123.193Z" fill="#192534"/>
<path d="M212.345 162.786C213.06 163.658 214.039 164.255 214.924 164.95C218.406 167.675 220.454 171.819 223.529 174.994C225.08 176.599 226.884 177.94 228.536 179.439C232.38 182.934 235.357 187.251 238.301 191.527C239.054 192.617 239.807 193.733 240.183 194.999C240.842 197.16 240.308 199.568 239.107 201.484C237.906 203.401 236.095 204.866 234.141 206.016C233.122 206.62 232.058 207.147 230.96 207.594C228.702 208.511 226.549 206.027 227.821 203.953C228.629 202.653 229.368 201.311 230.034 199.933C230.46 199.169 230.705 198.318 230.75 197.445C230.72 195.912 229.507 194.612 228.115 193.969C226.722 193.327 225.152 193.218 223.627 193.03C215.005 191.99 206.802 188.732 199.821 183.576C195.868 180.645 192.059 176.351 192.687 171.477C193.154 167.84 196.038 164.947 199.204 163.083C201.775 161.577 204.603 160.558 207.546 160.077C208.374 159.942 210.452 159.374 211.193 159.945C211.852 160.434 211.728 162.034 212.345 162.786Z" fill="#FBBEBE"/>
<path opacity="0.1" d="M212.345 162.786C213.06 163.658 214.039 164.255 214.924 164.95C218.406 167.675 220.454 171.819 223.529 174.994C225.08 176.599 226.884 177.94 228.536 179.439C232.38 182.934 235.357 187.251 238.301 191.527C239.054 192.617 239.807 193.733 240.183 194.999C240.842 197.16 240.308 199.568 239.107 201.484C237.906 203.401 236.095 204.866 234.141 206.016C233.122 206.62 232.058 207.147 230.96 207.594C228.702 208.511 226.549 206.027 227.821 203.953C228.629 202.653 229.368 201.311 230.034 199.933C230.46 199.169 230.705 198.318 230.75 197.445C230.72 195.912 229.507 194.612 228.115 193.969C226.722 193.327 225.152 193.218 223.627 193.03C215.005 191.99 206.802 188.732 199.821 183.576C195.868 180.645 192.059 176.351 192.687 171.477C193.154 167.84 196.038 164.947 199.204 163.083C201.775 161.577 204.603 160.558 207.546 160.077C208.374 159.942 210.452 159.374 211.193 159.945C211.852 160.434 211.728 162.034 212.345 162.786Z" fill="black"/>
<path d="M180.961 27.3846C177.197 31.2323 171.151 31.3939 165.76 31.3L165.937 29.192L158.356 31.9049C160.321 30.4469 162.007 28.6471 163.332 26.5918C162.35 25.7313 160.81 25.7576 159.643 26.3513C158.476 26.945 157.618 27.9934 156.884 29.0755C154.733 32.2907 153.364 35.9626 152.886 39.7989C152.407 43.6352 152.833 47.53 154.128 51.1733C152.622 52.0075 150.702 51.7633 149.257 50.8539C147.811 49.9446 146.802 48.4642 146.117 46.9011C145.669 45.879 145.203 44.6691 144.133 44.3497C143.237 44.0829 142.251 44.6278 141.754 45.4206C141.308 46.2483 141.128 47.1927 141.239 48.126C141.378 50.3129 142.978 52.387 143.298 54.5513C143.618 56.7156 146.855 58.399 145.18 59.8118C144.698 60.2214 139.755 61.3374 139.13 61.2397C138.283 61.1081 137.723 60.2928 137.369 59.515C135.682 55.8176 136.288 51.4965 135.291 47.5586C134.489 44.3911 132.682 41.5804 130.901 38.8375C130.423 38.0383 129.859 37.2936 129.219 36.6168C128.628 36.0381 127.897 35.5384 127.611 34.7644C127.325 33.9903 127.852 32.8856 128.669 33.0096C127.351 31.7371 125.932 30.5723 124.427 29.5264C125.917 27.6427 127.375 25.7351 128.801 23.8038C129.29 23.1424 129.798 22.3008 129.441 21.5493C129.232 21.205 128.938 20.9202 128.586 20.7226L124.694 18.0924C124.607 16.3076 128.247 16.9651 128.808 15.278C128.907 14.8296 128.873 14.3623 128.71 13.9328L127.385 9.1082L132.418 11.3852C133.028 11.6633 133.68 11.9451 134.346 11.8474C135.675 11.6558 136.315 10.0851 136.382 8.74372C136.45 7.4023 136.236 5.95942 136.902 4.79084C139.181 4.70066 141.458 4.71694 143.734 4.83969C143.878 3.6963 143.575 2.54164 142.887 1.61576L159.707 0.683902C162.579 0.526088 165.531 0.37955 168.26 1.28135C169.186 1.58946 170.119 2.03284 171.091 1.92388C172.062 1.81491 173.041 0.920628 172.762 -0.0112305C175.283 1.40935 177.589 3.18059 179.61 5.24926C180.155 5.89782 180.815 6.44154 181.556 6.8537C182.309 7.20691 183.34 7.19188 183.912 6.56814C184.372 6.06839 184.601 5.19665 185.279 5.16659C185.701 5.16659 186.032 5.49725 186.299 5.83167C187.261 7.0597 188.044 8.41701 188.625 9.86346C189.832 9.70108 191.015 9.39062 192.145 8.93911C190.971 9.92733 190.941 11.7685 191.502 13.1964C192.062 14.6242 193.079 15.8266 193.76 17.1943C194.438 18.6633 194.894 20.2247 195.112 21.8273C195.454 23.8338 195.458 26.3626 193.674 27.3471C192.123 28.2038 190.199 27.2907 188.78 26.2198C184.872 23.2965 184.127 24.1532 180.961 27.3846Z" fill="black"/>
<path d="M200.645 204.911L226.729 202.563C227.778 202.469 228.749 201.973 229.438 201.179C230.128 200.385 230.482 199.355 230.426 198.305L230.407 197.93C230.364 197.094 230.063 196.292 229.545 195.635C229.028 194.977 228.319 194.495 227.516 194.255L223.3 192.992C222.92 192.878 222.526 192.82 222.129 192.819H212.564C212.302 192.82 212.041 192.845 211.784 192.894C209.763 193.289 200.461 195.115 200.115 195.45C199.93 195.637 198.823 196.464 197.754 197.253C197.114 197.725 196.627 198.374 196.354 199.119C196.08 199.865 196.032 200.674 196.215 201.447L196.294 201.792C196.517 202.75 197.082 203.595 197.882 204.168C198.683 204.742 199.664 205.006 200.645 204.911Z" fill="#464A5F"/>
<path d="M187.906 196.773L198.447 193.767L218.022 191.136C218.022 191.136 230.445 187.755 231.574 198.276L230.52 200.057C230.52 200.057 231.574 193.391 218.775 195.27C218.775 195.27 195.763 194.499 196.73 203.536C196.73 203.529 188.659 202.033 187.906 196.773Z" fill="white"/>
<path d="M202.211 190.389C203.667 190.389 204.846 190.22 204.846 190.013C204.846 189.805 203.667 189.637 202.211 189.637C200.756 189.637 199.576 189.805 199.576 190.013C199.576 190.22 200.756 190.389 202.211 190.389Z" fill="white"/>
<path d="M225.739 190.201H223.857V193.582H225.739V190.201Z" fill="white"/>
<path d="M203.152 190.201H201.27V193.582H203.152V190.201Z" fill="white"/>
<path d="M227.226 190.507C227.412 190.023 226.304 189.149 224.751 188.555C223.198 187.961 221.788 187.872 221.602 188.357C221.416 188.841 222.524 189.715 224.077 190.309C225.631 190.903 227.04 190.992 227.226 190.507Z" fill="white"/>
<path d="M117.899 196.22C118.705 197.058 119.525 197.911 120.561 198.437C121.585 198.891 122.675 199.179 123.79 199.29C135.194 201.044 146.558 203.005 157.881 205.174C161.07 205.791 164.281 206.429 167.292 207.666C168.828 208.301 170.304 209.09 171.81 209.755C180.468 213.546 190.256 213.302 199.701 212.986C201.549 212.926 203.465 212.851 205.133 212.081C206.379 211.513 207.519 210.435 207.632 209.075C207.828 206.711 205.136 205.317 202.987 204.299C197.856 201.883 193.384 197.952 190.681 192.97C190.199 192.091 189.808 190.907 190.485 190.163C190.993 189.607 191.855 189.603 192.612 189.633C195.774 189.756 198.936 189.724 202.099 189.536C203.736 189.434 205.904 188.66 205.645 187.048C205.532 186.357 204.96 185.842 204.417 185.391C201.568 183.001 198.334 180.54 194.611 180.612C192.657 180.649 190.794 181.393 188.964 182.021C179.109 185.357 168.497 185.542 158.096 185.474C155.551 185.474 152.987 185.425 150.495 184.906C148.449 184.423 146.443 183.779 144.499 182.979C138.189 180.578 131.854 178.162 126.011 174.791C123.689 173.454 121.099 171.906 118.509 172.593C117.347 172.97 116.29 173.613 115.422 174.472C112.339 177.252 109.738 180.657 110.615 184.925C111.507 189.412 114.835 193.026 117.899 196.22Z" fill="#FBBEBE"/>
<path d="M116.22 123.655C117.191 126.793 117.76 130.115 119.431 132.944C121.204 135.95 124.155 138.28 125.179 141.613C125.902 143.972 125.556 146.497 125.556 148.973C125.556 151.78 126.087 154.674 127.641 157.011C128.424 158.191 129.444 159.19 130.337 160.291C134.293 165.176 135.513 171.699 136.006 177.951C132.241 175.825 127.837 173.63 123.76 175.092C122.111 175.685 120.718 176.828 119.424 178.011C116.911 180.302 114.613 182.817 112.561 185.526C111.484 186.943 110.426 188.675 110.893 190.389C108.665 187.157 106.406 183.903 104.674 180.349C103.447 177.808 102.495 175.126 101.023 172.713C99.1708 169.681 96.562 167.19 94.3673 164.394C89.4359 158.112 86.669 150.334 85.3251 142.484C83.9812 134.635 83.9247 126.594 83.9661 118.613C83.9661 115.983 84.0226 113.247 85.1331 110.854C85.7919 109.43 86.797 108.197 87.7946 106.983C89.0594 105.439 90.3619 103.865 92.0823 102.85C97.5558 99.6338 103.428 104.966 107.087 108.614C111.308 112.815 114.442 117.977 116.22 123.655V123.655Z" fill="#192534"/>
<path d="M210.58 105.619C211.087 106.081 211.497 106.639 211.784 107.261C212.071 108.013 211.995 108.839 211.935 109.64C211.578 114.405 211.917 119.197 212.94 123.866C213.554 126.688 214.329 129.953 212.526 132.211C212.247 132.508 211.995 132.828 211.773 133.169C210.937 134.732 212.481 136.434 213.655 137.776C217.224 141.909 217.796 148.376 215.029 153.091C214.506 153.989 213.866 154.839 213.573 155.831C213.374 156.647 213.296 157.487 213.339 158.326L213.354 164.612C209.398 164.082 204.975 163.669 201.794 166.077C199.109 168.106 198.048 171.638 195.77 174.096C193.561 176.463 190.124 177.989 189.262 181.107L189.307 168.118C189.363 166.392 189.27 164.665 189.028 162.955C188.577 160.268 187.406 157.754 186.721 155.117C185.825 151.667 185.768 148.064 185.716 144.498C185.629 138.61 185.546 132.658 186.77 126.898C187.27 124.553 187.982 122.257 188.531 119.924C189.529 115.716 190.037 111.334 191.788 107.382C193.538 103.429 196.975 99.844 201.289 99.4194C205.833 98.9647 207.76 102.677 210.58 105.619Z" fill="#192534"/>
<path d="M227.431 189.919C228.691 189.193 228.618 186.71 227.266 184.374C225.915 182.037 223.798 180.732 222.537 181.458C221.277 182.185 221.351 184.667 222.702 187.004C224.053 189.34 226.171 190.645 227.431 189.919Z" fill="#FBBEBE"/>
<path opacity="0.1" d="M227.431 189.919C228.691 189.193 228.618 186.71 227.266 184.374C225.915 182.037 223.798 180.732 222.537 181.458C221.277 182.185 221.351 184.667 222.702 187.004C224.053 189.34 226.171 190.645 227.431 189.919Z" fill="black"/>
</g>
<defs>
<clipPath id="clip0">
<rect width="392" height="215" fill="white"/>
</clipPath>
</defs>
</svg>
