<svg width="892" height="501" viewBox="0 0 892 501" fill="none" xmlns="http://www.w3.org/2000/svg">
<path d="M795.293 485C669.316 431.612 555.345 433.642 447.993 466.227C282.586 437.34 169.323 441.809 96.6704 485V350.908H795.293V485Z" fill="#E5E5E5"/>
<path d="M795.293 448.124C679.232 395.537 563.313 392.142 445.646 448.124C325.127 413.424 208.619 413.787 96 448.124V40.4832C215.737 4.74633 332.209 5.60511 445.646 40.4832C565.473 5.72558 682.127 4.62323 795.293 40.4832V448.124Z" fill="white"/>
<path d="M127.451 91.0711L123.547 81.079C125.078 80.4812 161.64 66.3465 215.298 59.1364C264.907 52.4691 338.819 50.8774 409.213 81.1471L404.976 91.0024C336.935 61.7456 265.209 63.2862 217.019 69.7289C164.566 76.7432 127.816 90.9284 127.451 91.0711Z" fill="#CCCCCC"/>
<path d="M127.451 128.617L123.547 118.625C125.078 118.027 161.64 103.892 215.298 96.6822C264.907 90.0156 338.819 88.4239 409.213 118.693L404.976 128.548C336.935 99.2914 265.209 100.831 217.019 107.275C164.566 114.289 127.816 128.474 127.451 128.617Z" fill="#CCCCCC"/>
<path d="M127.451 166.163L123.547 156.171C125.078 155.573 161.64 141.438 215.298 134.228C264.907 127.561 338.819 125.969 409.213 156.239L404.976 166.094C336.935 136.837 265.209 138.377 217.019 144.821C164.566 151.835 127.816 166.02 127.451 166.163Z" fill="#CCCCCC"/>
<path d="M127.451 203.709L123.547 193.717C125.078 193.119 161.64 178.984 215.298 171.774C264.907 165.108 338.819 163.514 409.213 193.785L404.976 203.64C336.935 174.383 265.209 175.923 217.019 182.367C164.566 189.381 127.816 203.566 127.451 203.709Z" fill="#CCCCCC"/>
<path d="M127.451 241.255L123.547 231.263C125.078 230.665 161.64 216.53 215.298 209.32C264.907 202.653 338.819 201.061 409.213 231.331L404.976 241.186C336.935 211.929 265.209 213.469 217.019 219.913C164.566 226.927 127.816 241.112 127.451 241.255Z" fill="#CCCCCC"/>
<path d="M127.451 278.801L123.547 268.809C125.078 268.211 161.64 254.076 215.298 246.866C264.907 240.2 338.819 238.607 409.213 268.877L404.976 278.732C336.935 249.474 265.209 251.016 217.019 257.458C164.566 264.473 127.816 278.658 127.451 278.801Z" fill="#CCCCCC"/>
<path d="M477.433 357.915L473.529 347.923C475.059 347.325 511.621 333.191 565.28 325.981C614.889 319.315 688.8 317.721 759.195 347.991L754.957 357.846C686.916 328.589 615.191 330.13 567 336.573C514.548 343.587 477.798 357.773 477.433 357.915Z" fill="#CCCCCC"/>
<path d="M474.141 285.858V80.7903L477.906 79.6144C573.303 49.8148 668.239 49.8207 760.073 79.632L763.781 80.8355V285.585L756.523 282.845C660.956 246.776 568.445 246.755 481.559 282.782L474.141 285.858ZM615.694 245.026C660.595 245.026 706.381 253.396 753.054 270.135V88.6492C665.74 61.1138 575.546 61.1289 484.869 88.6931V269.886C526.533 253.471 570.912 245.038 615.694 245.026V245.026Z" fill="#CCCCCC"/>
<path d="M448 79H446V382.038H448V79Z" fill="#CBCBCB"/>
</svg>
