<svg width="450" height="450" viewBox="0 0 450 450" fill="none" xmlns="http://www.w3.org/2000/svg">
<path d="M399.5 330H51.5C47.1254 329.995 42.9315 328.255 39.8382 325.162C36.7449 322.068 35.0049 317.875 35 313.5V136.5C35.0049 132.125 36.7449 127.931 39.8382 124.838C42.9315 121.745 47.1254 120.005 51.5 120H399.5C403.875 120.005 408.069 121.745 411.162 124.838C414.255 127.931 415.995 132.125 416 136.5V313.5C415.995 317.875 414.255 322.069 411.162 325.162C408.069 328.255 403.875 329.995 399.5 330Z" fill="#E6E6E6"/>
<path d="M395.5 318H55.5C53.2464 317.997 51.0859 317.101 49.4924 315.508C47.8989 313.914 47.0025 311.754 47 309.5V140.5C47.0025 138.246 47.8989 136.086 49.4924 134.492C51.0859 132.899 53.2464 132.003 55.5 132H395.5C397.754 132.003 399.914 132.899 401.508 134.492C403.101 136.086 403.997 138.246 404 140.5V309.5C403.997 311.754 403.101 313.914 401.508 315.508C399.914 317.101 397.754 317.997 395.5 318Z" fill="white"/>
<path d="M358.5 293.5H92.5C90.3783 293.5 88.3434 292.657 86.8431 291.157C85.3428 289.657 84.5 287.622 84.5 285.5C84.5 283.378 85.3428 281.343 86.8431 279.843C88.3434 278.343 90.3783 277.5 92.5 277.5H358.5C360.622 277.5 362.657 278.343 364.157 279.843C365.657 281.343 366.5 283.378 366.5 285.5C366.5 287.622 365.657 289.657 364.157 291.157C362.657 292.657 360.622 293.5 358.5 293.5Z" fill="#E6E6E6"/>
<path d="M358.5 259.5H92.5C90.3783 259.5 88.3434 258.657 86.8431 257.157C85.3428 255.657 84.5 253.622 84.5 251.5C84.5 249.378 85.3428 247.343 86.8431 245.843C88.3434 244.343 90.3783 243.5 92.5 243.5H358.5C360.622 243.5 362.657 244.343 364.157 245.843C365.657 247.343 366.5 249.378 366.5 251.5C366.5 253.622 365.657 255.657 364.157 257.157C362.657 258.657 360.622 259.5 358.5 259.5Z" fill="#E6E6E6"/>
<path d="M150.5 220.127H92.5C90.2464 220.125 88.0859 219.229 86.4924 217.635C84.8989 216.041 84.0025 213.881 84 211.627V169.372C84.0025 167.119 84.8989 164.958 86.4924 163.365C88.0859 161.771 90.2464 160.875 92.5 160.872H150.5C152.754 160.875 154.914 161.771 156.508 163.365C158.101 164.958 158.997 167.119 159 169.372V211.627C158.997 213.881 158.101 216.041 156.508 217.635C154.914 219.229 152.754 220.125 150.5 220.127Z" fill="#006CFF"/>
<path d="M358.795 215.5H223.795C221.674 215.5 219.639 214.657 218.139 213.157C216.638 211.657 215.795 209.622 215.795 207.5C215.795 205.378 216.638 203.343 218.139 201.843C219.639 200.343 221.674 199.5 223.795 199.5H358.795C360.917 199.5 362.952 200.343 364.452 201.843C365.953 203.343 366.795 205.378 366.795 207.5C366.795 209.622 365.953 211.657 364.452 213.157C362.952 214.657 360.917 215.5 358.795 215.5Z" fill="#CCCCCC"/>
<path d="M302.795 181.5H223.795C221.674 181.5 219.639 180.657 218.139 179.157C216.638 177.657 215.795 175.622 215.795 173.5C215.795 171.378 216.638 169.343 218.139 167.843C219.639 166.343 221.674 165.5 223.795 165.5H302.795C304.917 165.5 306.952 166.343 308.452 167.843C309.953 169.343 310.795 171.378 310.795 173.5C310.795 175.622 309.953 177.657 308.452 179.157C306.952 180.657 304.917 181.5 302.795 181.5Z" fill="#CCCCCC"/>
</svg>
