<?xml version="1.0" standalone="no"?><!DOCTYPE svg PUBLIC "-//W3C//DTD SVG 1.1//EN" "http://www.w3.org/Graphics/SVG/1.1/DTD/svg11.dtd"><svg t="1663775981599" class="icon" viewBox="0 0 1024 1024" version="1.1" xmlns="http://www.w3.org/2000/svg" p-id="5777" xmlns:xlink="http://www.w3.org/1999/xlink" width="200" height="200"><path d="M742 318V184h86c4.4 0 8-3.6 8-8v-56c0-4.4-3.6-8-8-8H196c-4.4 0-8 3.6-8 8v56c0 4.4 3.6 8 8 8h86v134c0 81.5 42.4 153.2 106.4 194-64 40.8-106.4 112.5-106.4 194v134h-86c-4.4 0-8 3.6-8 8v56c0 4.4 3.6 8 8 8h632c4.4 0 8-3.6 8-8v-56c0-4.4-3.6-8-8-8h-86V706c0-81.5-42.4-153.2-106.4-194 64-40.8 106.4-112.5 106.4-194z m-72 388v134H354V706c0-42.2 16.4-81.9 46.3-111.7C430.1 564.4 469.8 548 512 548s81.9 16.4 111.7 46.3C653.6 624.1 670 663.8 670 706z m0-388c0 42.2-16.4 81.9-46.3 111.7C593.9 459.6 554.2 476 512 476s-81.9-16.4-111.7-46.3C370.4 399.9 354 360.2 354 318V184h316v134z" p-id="5778"></path></svg>