<svg width="48" height="48" viewBox="0 0 48 48" fill="none" xmlns="http://www.w3.org/2000/svg">
<path fill-rule="evenodd" clip-rule="evenodd" d="M10 0H38C43.524 0 48 4.478 48 10V38C48 43.522 43.524 48 38 48H10C4.478 48 0 43.522 0 38V30.826L8.046 34.21C8.698 37.502 11.612 40.03 15.166 40C19.102 39.962 22.264 36.77 22.288 32.846L22.306 32.838L30.536 26.704C35.804 26.76 40 22.516 40 17.354C40 12.188 35.808 8 30.644 8C25.54 8 21.392 12.094 21.296 17.176L15.262 25.618C13.736 25.586 12.362 26.004 11.17 26.784L0 22.086V10C0 4.478 4.478 0 10 0ZM16.66 29.092C18.712 29.954 19.674 32.316 18.812 34.366C17.95 36.416 15.59 37.38 13.536 36.516L10.01 35.034C10.876 36.996 12.834 38.374 15.152 38.364C18.224 38.336 20.686 35.828 20.658 32.752C20.63 29.716 18.136 27.244 15.1 27.244C14.444 27.246 13.798 27.36 13.136 27.61L16.66 29.092ZM30.644 23.714C27.14 23.714 24.286 20.86 24.286 17.354C24.286 13.848 27.14 10.996 30.644 10.996C34.152 10.996 37.002 13.848 37.002 17.354C37.002 20.86 34.152 23.714 30.644 23.714ZM35.444 17.354C35.444 20.002 33.294 22.156 30.644 22.156C27.996 22.156 25.842 20.002 25.842 17.354C25.842 14.708 27.996 12.552 30.644 12.552C33.294 12.552 35.444 14.708 35.444 17.354Z" fill="white"/>
</svg>
