<svg width="48" height="48" viewBox="0 0 48 48" fill="none" xmlns="http://www.w3.org/2000/svg">
<path fill-rule="evenodd" clip-rule="evenodd" d="M8 0C3.58172 0 0 3.58172 0 8V40C0 44.4183 3.58172 48 8 48H40C44.4183 48 48 44.4183 48 40V8C48 3.58172 44.4183 0 40 0H8ZM34.1481 15.9453C34.7295 17.1641 34.9233 18.5234 34.9853 19.8594C35.0163 20.7344 35.0085 21.6172 34.8612 22.4609C34.7295 23.2031 34.4892 23.9453 34.0939 24.5938C33.7451 25.1719 33.2568 25.6641 32.6677 25.9844C32.1018 26.2969 31.4507 26.4453 30.8074 26.4297C29.8307 26.4453 28.42 26.1328 27.5674 25.7188V15.3047C27.5674 14.5781 27.0248 13.9922 26.366 13.9922H26.3272C25.6606 13.9922 25.0793 14.5781 25.0793 15.3047V15.6016C25.0793 23.4688 25.0715 39 25.0715 39L18.8783 36.9922V9C18.8783 9 21.0409 9.34375 24.6762 10.4375C28.3115 11.5312 29.8927 12.0625 31.2182 12.8594C31.815 13.2188 32.3809 13.6328 32.8692 14.1328C33.3963 14.6562 33.8303 15.2734 34.1481 15.9453ZM17.6382 29.6484V25.9609C17.6382 25.9609 11.7085 27.8984 9.01112 28.8594C8.83111 28.9248 8.65054 28.9885 8.47002 29.0521L8.46977 29.0522C7.98185 29.2243 7.49427 29.3963 7.01907 29.6016C6.25946 29.9219 5.51534 30.2812 4.84099 30.7578C4.54645 30.9609 4.28291 31.2188 4.12789 31.5469C3.97286 31.875 3.95736 32.2656 4.08913 32.6094C4.24415 33.0078 4.5387 33.3359 4.872 33.5938C5.47659 34.0547 6.19745 34.3359 6.9183 34.5469C9.11963 35.2812 11.445 35.6406 13.7703 35.5859C14.8943 35.5703 16.5608 35.4375 17.6459 35.2422V31.9609C17.6459 31.9609 16.7933 32.1562 14.4447 32.9375C14.3531 32.9676 14.2616 32.9992 14.1698 33.0309C13.904 33.1228 13.6361 33.2154 13.3595 33.2734C12.8092 33.3984 12.2434 33.4375 11.6853 33.4453C11.1814 33.4219 10.6621 33.3906 10.1893 33.2031C10.0188 33.125 9.83274 33.0312 9.76298 32.8438C9.70097 32.6875 9.78623 32.5312 9.89475 32.4219C10.1118 32.1953 10.4218 32.0703 10.7164 31.9531C12.8402 31.1875 17.6382 29.6484 17.6382 29.6484ZM41.5259 29.2591C42.1937 29.5063 42.8616 29.8153 43.4004 30.302C43.7192 30.5955 43.9924 30.9972 44 31.4607C44 31.8546 43.8558 32.1945 43.6205 32.4726C43.1652 32.9902 42.5656 33.3455 41.9661 33.6545C41.4771 33.9063 40.9663 34.0915 40.4535 34.2774C40.2898 34.3368 40.1259 34.3962 39.9625 34.4579C35.8946 35.941 27 39 27 39V35.3694C27 35.3694 33.9594 33.0365 37.071 31.9164C37.1626 31.8808 37.2561 31.8474 37.35 31.8139C37.6836 31.6948 38.0221 31.5739 38.3004 31.3448C38.4522 31.2289 38.5888 31.0435 38.5205 30.8427C38.4446 30.665 38.2701 30.5646 38.1031 30.4951C37.6326 30.3097 37.1241 30.2711 36.6308 30.2556C35.8567 30.2556 35.0674 30.356 34.3312 30.611C32.1304 31.3989 27.0076 33.0674 27.0076 33.0674V29.2978C27.0076 29.2978 30.4531 28.3013 32.1152 28.1081C32.5652 28.056 33.3232 28.0342 33.93 28.0169C34.1315 28.0111 34.3165 28.0058 34.4679 28C36.4714 28.0077 38.4978 28.2395 40.4103 28.8729C40.7103 28.969 40.9453 29.0528 41.2134 29.1483C41.3115 29.1833 41.4141 29.2198 41.5259 29.2591Z" fill="white"/>
</svg>
