<svg width="17" height="20" viewBox="0 0 17 20" fill="none" xmlns="http://www.w3.org/2000/svg">
<path d="M3.01377 0H1.1541C0.516721 0 0 0.516721 0 1.1541V18.8459C0 19.4833 0.516721 20 1.1541 20H3.01377C3.65115 20 4.16787 19.4833 4.16787 18.8459V1.1541C4.16787 0.516721 3.65115 0 3.01377 0ZM15.5069 0H13.6472C13.0098 0 12.4931 0.516721 12.4931 1.1541V18.8459C12.4931 19.4833 13.0098 20 13.6472 20H15.5069C16.1443 20 16.661 19.4833 16.661 18.8459V1.1541C16.661 0.516721 16.1443 0 15.5069 0Z" fill="white"/>
</svg>
