<svg width="16" height="13" viewBox="0 0 16 13" fill="none" xmlns="http://www.w3.org/2000/svg">
<path d="M5.23009 10.3284C3.12497 10.3284 1.41401 8.61572 1.41401 6.51237C1.41401 4.40726 3.12674 2.6963 5.23009 2.6963C5.27074 2.6963 5.31139 2.69276 5.35028 2.68569V3.71616C5.35028 3.93356 5.59773 4.05906 5.77272 3.93003L8.11644 2.20493C8.25961 2.09888 8.25961 1.88324 8.11644 1.77719L5.77272 0.0520922C5.59773 -0.0769367 5.35028 0.0485573 5.35028 0.265962V1.29289C5.31139 1.28582 5.27074 1.28229 5.23009 1.28229C4.52662 1.28229 3.84259 1.42192 3.19744 1.69588C2.57527 1.96101 2.01674 2.33749 1.53597 2.81826C1.05521 3.29902 0.67696 3.85756 0.413599 4.47973C0.139634 5.12487 0 5.8089 0 6.51237C0 7.21585 0.139634 7.89988 0.413599 8.54502C0.678727 9.16719 1.05521 9.72572 1.53597 10.2065C2.01674 10.6873 2.57527 11.0655 3.19744 11.3289C3.84259 11.6028 4.52662 11.7425 5.23009 11.7425C5.62071 11.7425 5.93709 11.4261 5.93709 11.0355C5.93709 10.6448 5.62071 10.3284 5.23009 10.3284ZM15.4234 4.47973C15.1582 3.85756 14.7818 3.29902 14.301 2.81826C13.8202 2.33749 13.2617 1.95924 12.6395 1.69588C11.9944 1.42192 11.3104 1.28229 10.6069 1.28229C10.2163 1.28229 9.89987 1.59867 9.89987 1.98929C9.89987 2.37991 10.2163 2.6963 10.6069 2.6963C12.712 2.6963 14.423 4.40903 14.423 6.51237C14.423 8.61749 12.7102 10.3284 10.6069 10.3284C10.5344 10.3284 10.4637 10.339 10.3983 10.3603V9.28561C10.3983 9.0682 10.1509 8.94271 9.97587 9.07174L7.63214 10.7968C7.48898 10.9029 7.48898 11.1185 7.63214 11.2246L9.97411 12.9479C10.1491 13.0769 10.3965 12.9514 10.3965 12.734V11.7106C10.4619 11.7319 10.5326 11.7425 10.6051 11.7425C11.3086 11.7425 11.9926 11.6028 12.6378 11.3289C13.2599 11.0637 13.8185 10.6873 14.2992 10.2065C14.78 9.72572 15.1582 9.16719 15.4216 8.54502C15.6956 7.89988 15.8352 7.21585 15.8352 6.51237C15.8352 5.8089 15.6973 5.12487 15.4234 4.47973Z" fill="white"/>
</svg>
