<?xml version="1.0" standalone="no"?><!DOCTYPE svg PUBLIC "-//W3C//DTD SVG 1.1//EN" "http://www.w3.org/Graphics/SVG/1.1/DTD/svg11.dtd"><svg t="1663687346271" class="icon" viewBox="0 0 1024 1024" version="1.1" xmlns="http://www.w3.org/2000/svg" p-id="7594" xmlns:xlink="http://www.w3.org/1999/xlink" width="200" height="200"><path d="M204.896 863.104c-3.456 0-6.912-0.128-10.4-0.416-107.776-8.832-179.584-169.792-163.488-366.4C47.36 296.352 141.024 151.744 249.44 161.056c48.384 3.968 81.92 42.912 105.76 76.416 10.24 14.4 6.88 34.368-7.52 44.64-14.432 10.24-34.368 6.816-44.64-7.552-23.456-32.96-41.6-48.288-58.816-49.728-59.008-4.256-135.584 107.584-149.408 276.672-13.824 169.056 44.192 292.384 104.928 297.344 52.96 4.96 105.024-61.152 132.192-166.848 3.616-14.112 16.352-24 30.976-24h299.904c14.432 0 27.072 9.664 30.88 23.552C722.848 738.24 774.912 803.904 829.024 798.4c29.408-2.976 57.28-33.632 76.448-84.096 22.208-58.592 30.016-135.04 21.888-215.232s-31.072-153.536-64.64-206.56c-28.928-45.696-62.016-70.592-91.744-67.2-18.336 1.888-39.616 19.2-59.808 48.736A31.958 31.958 0 0 1 684.736 288H448c-17.664 0-32-14.336-32-32s14.336-32 32-32h220.48c29.28-37.92 61.568-58.848 96.064-62.336C871.872 150.72 971.136 296.256 991.04 492.672c9.088 89.888-0.032 176.672-25.76 244.384-28.512 75.072-74.592 119.456-129.824 125.056-81.76 8.352-156.128-63.968-196.544-190.08H387.104c-36.48 119.52-104.512 191.072-182.208 191.072zM320 448h-32v-32c0-17.664-14.336-32-32-32s-32 14.336-32 32v32h-32c-17.664 0-32 14.336-32 32s14.336 32 32 32h32v32c0 17.696 14.336 32 32 32s32-14.304 32-32v-32h32c17.664 0 32-14.336 32-32s-14.336-32-32-32z m416-64a2 2 0 1 0 128 0 2 2 0 1 0-128 0zM608 512a2 2 0 1 0 128 0 2 2 0 1 0-128 0z" fill="#333333" p-id="7595"></path></svg>