<svg width="708" height="528" viewBox="0 0 708 528" fill="none" xmlns="http://www.w3.org/2000/svg">
<path d="M348.55 528C541.048 528 697.099 512.752 697.099 493.944C697.099 475.136 541.048 459.889 348.55 459.889C156.051 459.889 0 475.136 0 493.944C0 512.752 156.051 528 348.55 528Z" fill="#3F3D56"/>
<path opacity="0.1" d="M244.947 513.934C335.679 513.934 409.231 502.83 409.231 489.132C409.231 475.435 335.679 464.331 244.947 464.331C154.215 464.331 80.6623 475.435 80.6623 489.132C80.6623 502.83 154.215 513.934 244.947 513.934Z" fill="black"/>
<path d="M163.078 193.035C85.9238 193.035 23.3846 255.608 23.3846 332.788C23.3846 409.968 85.9534 472.542 163.078 472.542C172.584 472.545 182.066 471.583 191.377 469.669C178.085 447.808 171.074 422.704 171.115 397.116C171.115 329.642 218.92 273.332 282.503 260.243C270.05 239.715 252.518 222.746 231.599 210.974C210.68 199.201 187.08 193.023 163.078 193.035V193.035Z" fill="#546BFF"/>
<path opacity="0.1" d="M37.482 336.808C37.482 259.628 100.029 197.063 177.176 197.063C184.686 197.063 192.184 197.665 199.598 198.862C187.69 195.652 175.411 194.032 163.078 194.042C85.9238 194.042 23.3846 256.615 23.3846 333.795C23.3846 403.387 74.2167 461.066 140.759 471.757C111.115 463.741 84.9357 446.179 66.2679 421.787C47.6001 397.394 37.4835 367.529 37.482 336.808V336.808Z" fill="black"/>
<path d="M281.837 259.229C302.357 246.772 319.32 229.232 331.089 208.304C342.858 187.376 349.035 163.766 349.023 139.753C349.023 62.5732 286.484 0 209.33 0C132.175 0 69.6434 62.5732 69.6434 139.753C69.6397 149.265 70.6018 158.753 72.5146 168.071C94.3635 154.766 119.458 147.749 145.037 147.793C212.467 147.771 268.753 195.626 281.837 259.229Z" fill="#546BFF"/>
<path opacity="0.1" d="M336.983 139.753C337 161.639 331.87 183.223 322.009 202.759C312.148 222.296 297.831 239.238 280.216 252.218C280.816 254.535 281.371 256.867 281.859 259.229C302.379 246.772 319.343 229.232 331.112 208.304C342.88 187.376 349.057 163.766 349.046 139.753C349.046 62.5732 286.506 0 209.352 0C207.332 0 205.326 0.0518197 203.328 0.14066C277.656 3.30189 336.983 64.5943 336.983 139.753Z" fill="black"/>
<path d="M275.739 322.076C273.451 323.244 271.276 324.622 269.242 326.192C267.197 327.775 265.632 329.894 264.72 332.314C263.455 329.686 262.767 326.829 261.923 324.037C260.307 318.974 258.4 314.007 256.21 309.164C259.816 307.787 262.941 305.386 265.201 302.257C269.641 306.662 274.163 311.252 276.361 317.064C276.738 318.07 277.841 319.144 278.1 320.025C278.448 321.335 276.701 321.543 275.739 322.076Z" fill="#FFBFC5"/>
<path d="M153.458 464.723C153.458 497.757 177.279 501.259 206.673 501.259C236.067 501.259 259.88 497.757 259.88 464.723C259.88 431.689 236.059 419.141 206.673 419.141C177.287 419.141 153.458 431.697 153.458 464.723Z" fill="#3F3D56"/>
<path d="M317.321 429.373C322.149 430.896 326.651 433.306 330.597 436.48C330.893 436.665 331.108 436.956 331.196 437.294C331.3 438.034 330.279 438.368 329.539 438.582C327.319 439.212 325.964 441.262 324.358 442.861C322.753 444.461 320.177 445.727 318.305 444.446C317.813 444.068 317.384 443.616 317.032 443.106L309.129 432.8C311.808 431.299 314.626 430.06 317.543 429.099" fill="#F1F1F1"/>
<path d="M331.537 431.52C332.588 432.586 333.017 434.126 334.068 435.221C334.757 435.882 335.546 436.429 336.406 436.843L342.459 440.174C343.399 440.731 344.39 441.195 345.419 441.559C346.558 441.883 347.718 442.131 348.89 442.299C350.57 442.624 352.211 443.12 353.789 443.78C354.973 444.268 356.298 445.105 356.29 446.386C356.239 447.015 355.979 447.609 355.55 448.074C353.168 451.079 348.942 451.775 345.123 452.153C336.865 453.026 328.414 453.678 320.34 451.731C318.763 451.44 317.272 450.795 315.981 449.843C313.547 447.822 313.021 444.142 313.969 441.114C314.226 439.951 314.913 438.927 315.893 438.249C317.173 437.509 318.764 437.857 320.237 437.746C321.787 437.527 323.289 437.044 324.677 436.317C325.602 435.902 326.66 435.362 326.897 434.266C327.134 433.171 325.883 432.223 326.157 431.305C326.675 429.239 330.575 430.535 331.537 431.52Z" fill="#575A89"/>
<path opacity="0.1" d="M331.537 431.52C332.588 432.586 333.017 434.126 334.068 435.221C334.757 435.882 335.546 436.429 336.406 436.843L342.459 440.174C343.399 440.731 344.39 441.195 345.419 441.559C346.558 441.883 347.718 442.131 348.89 442.299C350.57 442.624 352.211 443.12 353.789 443.78C354.973 444.268 356.298 445.105 356.29 446.386C356.239 447.015 355.979 447.609 355.55 448.074C353.168 451.079 348.942 451.775 345.123 452.153C336.865 453.026 328.414 453.678 320.34 451.731C318.763 451.44 317.272 450.795 315.981 449.843C313.547 447.822 313.021 444.142 313.969 441.114C314.226 439.951 314.913 438.927 315.893 438.249C317.173 437.509 318.764 437.857 320.237 437.746C321.787 437.527 323.289 437.044 324.677 436.317C325.602 435.902 326.66 435.362 326.897 434.266C327.134 433.171 325.883 432.223 326.157 431.305C326.675 429.239 330.575 430.535 331.537 431.52Z" fill="black"/>
<path d="M345.575 464.583L348.121 466.264C348.898 466.68 349.538 467.312 349.963 468.085C350.518 469.381 349.771 470.847 348.942 471.987C346.455 475.39 343.059 478.023 339.144 479.583C337.787 480.148 336.353 480.505 334.889 480.641C334.556 480.696 334.215 480.655 333.905 480.523C333.128 480.108 333.239 479.005 333.231 478.124C333.231 475.585 331.285 473.519 329.531 471.646C327.777 469.773 326.046 467.478 326.445 464.983C326.811 463.5 327.58 462.148 328.665 461.074C329.619 459.871 330.74 458.811 331.995 457.928C333.794 456.751 334.423 457.387 336.11 458.461C339.282 460.479 342.437 462.52 345.575 464.583Z" fill="#F1F1F1"/>
<path d="M337.316 476.976C338.008 477.151 338.73 477.16 339.426 477.003C340.122 476.846 340.77 476.528 341.32 476.073C342.414 475.155 343.299 474.014 343.917 472.726C344.539 471.587 345.078 470.404 345.53 469.188C346.063 467.759 346.552 466.182 347.81 465.316C349.29 464.264 351.465 464.679 352.99 465.693C354.514 466.708 355.669 468.21 356.979 469.513C360.065 472.593 364.127 474.54 368.301 475.814C372.475 477.087 376.804 477.724 381.088 478.545C381.948 478.66 382.78 478.929 383.545 479.338C385.277 480.396 385.862 482.758 385.373 484.727C384.885 486.697 383.605 488.325 382.206 489.806C381.041 491.187 379.595 492.305 377.966 493.086C376.591 493.587 375.144 493.862 373.681 493.9C366.583 494.379 359.453 493.821 352.516 492.242C349.97 491.546 347.379 491.029 344.761 490.694C343.17 490.554 341.557 490.598 339.966 490.487C336.787 490.268 333.678 489.449 330.804 488.074C330.105 487.815 329.517 487.324 329.139 486.682C328.93 486.093 328.887 485.458 329.013 484.846L330.071 475.562C330.168 474.755 330.434 473.748 331.241 473.622C332.047 473.496 332.558 474.289 333.039 474.896C333.972 476.012 335.25 476.786 336.671 477.097C338.092 477.408 339.577 477.238 340.891 476.613" fill="#575A89"/>
<path d="M275.865 359.9C280.52 359.374 285.922 359.285 289.074 362.758C291.006 364.89 291.59 367.873 292.256 370.664C293.301 375.36 295 379.886 297.303 384.109C298.783 386.73 300.582 389.18 301.743 391.964C302.905 394.747 303.342 397.886 304.023 400.914C306.749 412.789 313.41 423.393 322.923 431.002C321.243 435.57 316.381 438.183 311.652 439.353C310.511 439.731 309.285 439.769 308.122 439.464C307.242 439.082 306.46 438.505 305.836 437.776C303.626 435.386 301.568 432.862 299.671 430.217C292.856 421.111 285.944 411.82 282.229 401.077C280.927 397.302 279.624 392.934 275.961 391.327C273.874 390.424 271.484 390.705 269.242 391.09C264.231 391.938 259.3 393.203 254.501 394.873C249.38 396.658 243.519 398.849 238.834 396.124C236.03 394.488 234.394 391.357 233.75 388.173C233.107 384.99 233.432 381.703 233.75 378.475C233.782 377.02 234.13 375.59 234.772 374.285C235.42 373.307 236.252 372.465 237.221 371.804C241.406 368.633 246.06 366.136 251.015 364.401C255.744 362.728 260.835 362.18 265.771 361.343C269.121 360.761 272.485 360.28 275.865 359.9Z" fill="#575A89"/>
<path opacity="0.1" d="M275.865 359.9C280.52 359.374 285.922 359.285 289.074 362.758C291.006 364.89 291.59 367.873 292.256 370.664C293.301 375.36 295 379.886 297.303 384.109C298.783 386.73 300.582 389.18 301.743 391.964C302.905 394.747 303.342 397.886 304.023 400.914C306.749 412.789 313.41 423.393 322.923 431.002C321.243 435.57 316.381 438.183 311.652 439.353C310.511 439.731 309.285 439.769 308.122 439.464C307.242 439.082 306.46 438.505 305.836 437.776C303.626 435.386 301.568 432.862 299.671 430.217C292.856 421.111 285.944 411.82 282.229 401.077C280.927 397.302 279.624 392.934 275.961 391.327C273.874 390.424 271.484 390.705 269.242 391.09C264.231 391.938 259.3 393.203 254.501 394.873C249.38 396.658 243.519 398.849 238.834 396.124C236.03 394.488 234.394 391.357 233.75 388.173C233.107 384.99 233.432 381.703 233.75 378.475C233.782 377.02 234.13 375.59 234.772 374.285C235.42 373.307 236.252 372.465 237.221 371.804C241.406 368.633 246.06 366.136 251.015 364.401C255.744 362.728 260.835 362.18 265.771 361.343C269.121 360.761 272.485 360.28 275.865 359.9Z" fill="black"/>
<path d="M302.52 393.496C304.694 394.583 306.69 395.993 308.441 397.679C310.328 399.692 311.475 402.291 312.452 404.882C312.835 405.765 313.07 406.706 313.147 407.666C313.183 408.145 313.109 408.627 312.93 409.073C312.752 409.519 312.475 409.919 312.119 410.242C311.259 410.807 310.235 411.067 309.21 410.983C307.863 410.983 306.509 410.983 305.162 410.879C304.342 410.873 303.529 410.717 302.765 410.42C302.065 410.062 301.433 409.584 300.9 409.006C298.526 406.801 296.582 404.176 295.165 401.262C294.188 399.108 292.575 394.133 294.114 391.889C295.653 389.646 300.848 392.541 302.52 393.496Z" fill="#FFBFC5"/>
<path d="M237.228 392.726C244.118 394.947 251.452 395.183 258.652 395.857C270.763 396.991 282.727 399.358 294.358 402.92C296.741 403.66 299.176 404.46 301.092 406.052C302.65 407.492 303.969 409.172 305 411.027C306.891 413.91 308.604 416.906 310.128 420C311.438 422.798 312.437 425.73 313.65 428.565C317.739 438.063 324.205 446.347 332.425 452.619C333.905 453.766 335.599 455.01 335.984 456.853C336.159 458.043 335.966 459.257 335.429 460.333C333.653 464.472 329.968 467.485 326.098 469.787C324.44 470.779 322.605 471.779 321.791 473.541C315.915 471.112 311.541 465.93 307.908 460.718C304.274 455.506 301.04 449.887 296.378 445.563C294.328 443.653 291.997 441.995 290.377 439.7C287.912 436.206 287.246 431.423 283.931 428.728C280.616 426.033 275.791 426.381 271.506 426.803C249.553 428.945 227.433 428.696 205.533 426.063C200.982 425.522 196.305 424.827 192.361 422.48C188.417 420.133 185.346 415.75 185.901 411.197C186.426 406.933 189.971 403.557 193.93 401.891C197.889 400.225 202.255 399.922 206.51 399.44C217.1 398.271 227.209 396.346 237.228 392.726Z" fill="#575A89"/>
<path d="M174.26 401.573C174.8 397.96 176.199 394.54 177.08 390.994C177.519 388.762 178.077 386.555 178.752 384.382C178.752 384.316 178.804 384.257 178.826 384.197C179.049 384.179 179.266 384.112 179.46 384.001C179.655 383.889 179.822 383.737 179.951 383.553C180.072 383.237 180.105 382.894 180.047 382.561C180.021 382.209 180.021 381.855 180.047 381.502C181.49 379.084 183.066 376.749 184.768 374.506C187.728 370.279 190.333 365.785 192.909 361.299C195.025 357.597 197.142 353.94 198.888 350.075C200.205 347.181 201.308 344.153 202.758 341.354C207.938 331.286 217.203 323.86 227.179 318.53C236.755 313.414 247.108 309.971 257.172 305.899C257.428 306.157 257.663 306.434 257.875 306.729C263.314 314.169 263.899 323.941 266.141 332.885C267.044 336.497 268.25 340.096 268.25 343.812C268.25 349.305 265.623 354.414 263.011 359.248C260.561 363.801 258.038 368.354 254.789 372.374C253.25 374.284 251.555 376.076 250.009 377.964C243.659 385.745 239.996 395.317 236.429 404.712C234.372 410.153 230.997 414.973 228.733 420.333C227.86 422.391 227.357 424.605 226.261 426.559C225.166 428.514 223.264 430.217 221.029 430.261C220.375 430.241 219.727 430.139 219.098 429.957C211.01 427.877 204.238 422.554 197.519 417.564C196.313 416.676 195.106 415.802 193.819 415.003C192.531 414.203 191.229 413.47 189.912 412.782L186.907 411.131C183.636 409.339 180.35 407.54 176.939 406.022C175.909 405.62 174.918 405.125 173.979 404.542C173.989 403.546 174.083 402.553 174.26 401.573Z" fill="#3F3D56"/>
<path d="M279.994 321.454C290.285 321.454 298.628 313.108 298.628 302.813C298.628 292.517 290.285 284.171 279.994 284.171C269.703 284.171 261.361 292.517 261.361 302.813C261.361 313.108 269.703 321.454 279.994 321.454Z" fill="#FFBFC5"/>
<path d="M292.538 294.091C292.991 294.876 293.674 295.502 294.494 295.888C295.314 296.273 296.233 296.398 297.126 296.245C298.015 296.067 298.857 295.702 299.595 295.175C300.334 294.648 300.952 293.971 301.41 293.188C302.317 291.616 302.858 289.86 302.994 288.05C303.149 286.636 303.127 285.089 302.217 283.986C301.525 283.308 300.728 282.748 299.856 282.327C298.65 281.587 297.636 280.572 296.896 279.366C296.378 278.5 296.001 277.559 295.535 276.671C293.84 273.451 290.54 270.83 286.906 270.948C285.16 271.007 283.495 271.689 281.77 271.97C275.991 272.984 269.715 269.927 264.35 272.31C263.033 272.952 261.808 273.769 260.709 274.739C259.2 275.987 257.749 277.3 256.358 278.677C255.15 279.706 254.236 281.037 253.709 282.534C252.969 285.274 254.708 288.331 253.605 290.937C253.231 291.684 252.782 292.391 252.266 293.047C251.052 294.831 252.369 301.798 252.266 303.952C252.115 304.998 252.381 306.062 253.006 306.914C253.886 307.898 255.359 307.98 256.706 307.995H259.126C259.487 308.021 259.85 307.984 260.199 307.884C260.674 307.675 261.093 307.355 261.42 306.951C263.433 304.826 263.862 297.889 266.785 297.919C267.231 297.889 267.674 298.003 268.05 298.244C268.576 298.629 268.731 299.347 269.109 299.881C269.537 300.388 270.117 300.744 270.764 300.896C271.41 301.048 272.088 300.988 272.698 300.725C273.904 300.164 274.954 299.315 275.754 298.252C276.549 297.19 277.514 296.267 278.61 295.52C280.172 294.609 281.933 294.217 283.45 293.188C284.716 292.329 285.433 291.085 286.573 290.138C287.713 289.19 288.675 289.323 289.888 289.953C291.642 290.922 291.716 292.462 292.538 294.091Z" fill="#3F3D56"/>
<path opacity="0.1" d="M249.483 326.932C253.833 326.311 258.267 326.665 262.463 327.969C263.864 328.292 265.13 329.045 266.082 330.123C266.627 330.937 266.981 331.863 267.118 332.833C267.973 337.292 267.423 341.908 265.542 346.04C265.409 346.246 265.322 346.478 265.285 346.721C265.248 346.963 265.262 347.21 265.327 347.447C265.518 347.743 265.771 347.996 266.067 348.187C266.328 348.44 266.533 348.744 266.667 349.081C266.802 349.419 266.864 349.78 266.85 350.143C266.835 350.506 266.744 350.862 266.582 351.187C266.421 351.512 266.192 351.799 265.912 352.03C265.564 352.281 265.105 352.503 265.038 352.925C264.972 353.347 265.401 353.755 265.741 354.08C266.238 354.567 266.604 355.17 266.805 355.835C267.007 356.5 267.038 357.205 266.896 357.886C266.712 358.431 266.586 358.994 266.518 359.566C266.592 360.268 266.801 360.949 267.133 361.572C267.698 362.98 267.889 364.511 267.688 366.014C267.508 366.725 267.491 367.466 267.636 368.184C267.844 368.658 268.123 369.097 268.465 369.487C269.804 371.293 270.093 374.314 268.154 375.409C268.985 375.837 269.661 376.514 270.09 377.344C270.518 378.175 270.677 379.119 270.544 380.044C271.706 379.429 273.112 380.222 274.081 381.11C275.051 381.998 276.035 383.094 277.345 383.161C278.263 383.205 279.232 382.731 280.061 383.109C281.334 383.679 281.289 385.744 282.54 386.359C283.635 386.907 285.167 386.018 286.099 386.811C286.425 387.084 286.588 387.506 286.906 387.795C287.609 388.447 288.719 388.173 289.681 388.128C291.953 388.039 294.047 389.609 295.224 391.519C296.4 393.429 296.822 395.761 297.126 398.012C297.376 399.248 297.35 400.525 297.052 401.75C296.895 402.36 296.562 402.909 296.094 403.33C295.627 403.752 295.047 404.026 294.425 404.12C282.991 404.86 271.706 402.113 260.569 399.404C257.298 398.604 253.975 397.671 251.244 395.702C248.765 393.903 246.945 391.371 245.169 388.883C241.891 384.286 238.59 379.659 236.244 374.528C233.225 367.932 231.878 360.706 230.561 353.562C230.107 351.648 229.944 349.676 230.08 347.713C230.479 345.419 231.356 343.234 232.655 341.302C234.222 338.743 235.952 336.287 237.835 333.951C240.699 330.419 244.984 327.576 249.483 326.932Z" fill="black"/>
<path d="M250.231 326.191C254.583 325.57 259.02 325.927 263.218 327.235C264.62 327.553 265.886 328.304 266.837 329.382C267.379 330.198 267.732 331.123 267.873 332.092C268.725 336.552 268.174 341.166 266.296 345.3C266.164 345.506 266.077 345.738 266.04 345.98C266.003 346.222 266.017 346.47 266.082 346.706C266.273 347.003 266.526 347.255 266.822 347.447C267.083 347.699 267.287 348.004 267.422 348.341C267.557 348.678 267.619 349.04 267.605 349.402C267.59 349.765 267.499 350.121 267.337 350.446C267.175 350.771 266.947 351.058 266.666 351.289C266.319 351.541 265.86 351.763 265.793 352.185C265.727 352.607 266.156 353.014 266.533 353.34C267.03 353.826 267.396 354.429 267.597 355.094C267.799 355.759 267.83 356.465 267.688 357.145C267.504 357.691 267.378 358.254 267.31 358.825C267.381 359.527 267.587 360.208 267.917 360.832C268.488 362.238 268.682 363.769 268.48 365.274C268.251 365.864 268.203 366.51 268.341 367.128C268.479 367.746 268.798 368.309 269.257 368.746C270.596 370.552 270.885 373.573 268.946 374.713C269.777 375.139 270.454 375.814 270.882 376.643C271.311 377.473 271.47 378.416 271.336 379.34C272.498 378.726 273.904 379.518 274.873 380.406C275.843 381.295 276.827 382.39 278.137 382.457C279.054 382.501 280.016 382.028 280.853 382.405C282.126 382.983 282.081 385.041 283.332 385.663C284.427 386.203 285.959 385.315 286.891 386.107C287.217 386.381 287.38 386.803 287.698 387.091C288.401 387.743 289.511 387.469 290.473 387.425C292.745 387.336 294.839 388.905 296.016 390.815C297.087 392.827 297.734 395.036 297.918 397.308C298.155 398.533 298.129 399.795 297.844 401.01C297.686 401.619 297.354 402.168 296.886 402.59C296.419 403.011 295.838 403.285 295.216 403.379C283.783 404.119 272.498 401.373 261.361 398.663C258.09 397.863 254.76 396.931 252.036 394.961C249.557 393.17 247.737 390.63 245.961 388.143C242.682 383.553 239.382 378.926 237.036 373.795C234.017 367.191 232.67 359.966 231.353 352.829C230.898 350.912 230.736 348.938 230.872 346.973C231.249 344.681 232.104 342.494 233.38 340.554C234.943 337.994 236.674 335.541 238.56 333.21C241.454 329.664 245.739 326.828 250.231 326.191Z" fill="#3F3D56"/>
<path d="M672.812 195.53C674.812 195.149 676.713 194.361 678.397 193.216C680.081 192.07 681.512 190.591 682.601 188.87C683.691 187.149 684.415 185.222 684.731 183.21C685.046 181.197 684.945 179.141 684.434 177.169C683.923 175.197 683.013 173.351 681.76 171.745C680.507 170.139 678.939 168.807 677.151 167.832C675.363 166.857 673.394 166.26 671.366 166.077C669.338 165.894 667.294 166.129 665.36 166.768C671.158 175.176 673.797 185.364 672.812 195.53V195.53Z" fill="#F1F1F1"/>
<path d="M695.893 189.511C697.894 189.13 699.795 188.342 701.478 187.197C703.162 186.051 704.593 184.572 705.682 182.851C706.772 181.13 707.497 179.203 707.812 177.191C708.127 175.178 708.026 173.122 707.515 171.15C707.004 169.178 706.094 167.332 704.842 165.726C703.589 164.12 702.02 162.788 700.232 161.813C698.444 160.838 696.475 160.241 694.447 160.058C692.419 159.875 690.375 160.11 688.441 160.749C694.239 169.157 696.878 179.344 695.893 189.511V189.511Z" fill="#F1F1F1"/>
<path d="M672.812 195.53C669.1 196.237 665.259 195.505 662.067 193.483C658.874 191.461 656.571 188.299 655.623 184.64C654.674 180.981 655.153 177.098 656.962 173.779C658.77 170.46 661.772 167.954 665.36 166.768C660.336 159.49 653.201 153.93 644.918 150.839C636.635 147.747 627.603 147.273 619.042 149.481C636.907 173.359 645.125 203.094 642.057 232.761C650.306 230.325 657.641 225.48 663.12 218.847C668.6 212.213 671.975 204.094 672.812 195.53V195.53Z" fill="#F1F1F1"/>
<path d="M406.545 207.834C398.219 209.617 390.606 213.821 384.66 219.918C378.714 226.015 374.702 233.734 373.126 242.105C376.708 242.028 380.198 243.247 382.954 245.538C385.71 247.828 387.547 251.037 388.129 254.574C388.71 258.111 387.996 261.739 386.118 264.792C384.24 267.845 381.325 270.118 377.906 271.192C382.802 279.949 390.593 286.726 399.941 290.359C409.289 293.992 419.61 294.254 429.131 291.1C411.424 267.164 403.362 237.442 406.545 207.834V207.834Z" fill="#F1F1F1"/>
<path d="M373.141 242.104C371.004 242.143 368.9 242.641 366.973 243.565C365.046 244.489 363.34 245.817 361.971 247.459C360.603 249.101 359.604 251.019 359.042 253.082C358.48 255.145 358.369 257.305 358.716 259.414C359.062 261.524 359.859 263.534 361.051 265.309C362.244 267.083 363.804 268.58 365.626 269.697C367.448 270.814 369.489 271.526 371.611 271.784C373.732 272.042 375.885 271.84 377.921 271.192C372.979 262.353 371.288 252.061 373.141 242.104V242.104Z" fill="#F1F1F1"/>
<path d="M345.915 248.546C343.779 248.584 341.675 249.082 339.748 250.006C337.82 250.93 336.115 252.258 334.746 253.901C333.378 255.543 332.378 257.461 331.817 259.523C331.255 261.586 331.144 263.746 331.49 265.856C331.837 267.965 332.634 269.976 333.826 271.75C335.018 273.524 336.579 275.021 338.401 276.138C340.223 277.256 342.264 277.968 344.386 278.226C346.507 278.484 348.659 278.282 350.696 277.634C345.758 268.793 344.067 258.503 345.915 248.546Z" fill="#F1F1F1"/>
<path d="M573.856 112.975L549.872 142.374C551.024 144.179 552.036 146.07 552.899 148.03L579.303 115.67C577.49 114.685 575.692 113.782 573.856 112.975Z" fill="#F1F1F1"/>
<path d="M642.057 232.762C636.565 234.359 630.811 234.848 625.128 234.203C619.445 233.557 613.947 231.788 608.954 228.999C603.96 226.211 599.569 222.457 596.037 217.958C592.505 213.458 589.901 208.301 588.377 202.786C586.853 197.271 586.439 191.508 587.159 185.832C587.879 180.156 589.719 174.68 592.572 169.721C595.425 164.762 599.234 160.419 603.778 156.945C608.322 153.47 613.51 150.933 619.042 149.481C609.472 136.754 597.452 126.071 583.691 118.061L590.189 123.37L556.592 164.547C556.774 172.673 554.662 180.686 550.498 187.665C546.333 194.644 540.286 200.306 533.049 204.001C525.813 207.696 517.682 209.275 509.589 208.554C501.496 207.834 493.771 204.845 487.3 199.93C480.829 195.016 475.875 188.374 473.008 180.77C470.14 173.165 469.474 164.905 471.087 156.939C472.701 148.973 476.527 141.624 482.128 135.735C487.728 129.847 494.875 125.659 502.748 123.651L500.047 121.43L515.587 102.396C487.951 104.428 461.904 116.093 441.979 135.359C422.054 154.625 409.515 180.272 406.545 207.835C417.359 205.492 428.658 207.392 438.113 213.142C447.567 218.892 454.454 228.053 457.353 238.735C460.253 249.417 458.943 260.805 453.694 270.549C448.445 280.292 439.658 287.649 429.145 291.1C443.355 310.287 463.03 324.729 485.589 332.533C508.147 340.336 532.537 341.136 555.558 334.828C578.58 328.52 599.158 315.399 614.594 297.185C630.03 278.971 639.602 256.514 642.057 232.762V232.762ZM513.848 311.082C507.228 305.679 502.359 298.433 499.855 290.261C497.352 282.089 497.327 273.358 499.784 265.172C502.241 256.986 507.069 249.712 513.658 244.271C520.247 238.831 528.3 235.467 536.8 234.605C545.3 233.744 553.865 235.423 561.411 239.431C568.956 243.439 575.145 249.596 579.193 257.123C583.241 264.65 584.967 273.209 584.153 281.717C583.339 290.225 580.021 298.301 574.619 304.922C567.376 313.8 556.905 319.437 545.508 320.592C534.112 321.747 522.724 318.326 513.848 311.082V311.082Z" fill="#F1F1F1"/>
<path d="M539.853 103.107C537.509 102.796 535.156 102.549 532.793 102.366L516.453 122.4C518.746 122.553 521.023 122.893 523.261 123.414L539.853 103.107Z" fill="#F1F1F1"/>
<path d="M540.94 132.224L560.825 107.852C558.782 107.186 556.73 106.579 554.668 106.031L536.115 128.766C537.723 129.76 539.266 130.855 540.733 132.046L540.94 132.224Z" fill="#F1F1F1"/>
</svg>
