<svg width="370" height="247" viewBox="0 0 370 247" fill="none" xmlns="http://www.w3.org/2000/svg">
<g clip-path="url(#clip0)">
<path opacity="0.1" d="M219.257 39.6878C196.192 38.8862 174.225 31.4439 153.245 23.2997C132.265 15.1556 111.492 6.13148 88.98 1.81715C74.5005 -0.958132 57.9432 -1.35002 46.2755 6.40937C35.0497 13.8909 31.4218 26.7697 29.4688 38.7295C28.0041 47.7322 27.1381 57.2016 31.1616 65.6272C33.952 71.477 38.9092 76.3935 42.3376 81.9975C54.2619 101.492 45.8336 125.533 32.9078 144.568C26.8495 153.496 19.8146 162.025 15.1354 171.523C10.4562 181.02 8.29298 191.919 12.3842 201.616C16.4433 211.235 26.1118 218.446 36.5821 223.523C57.8541 233.833 82.9109 236.786 107.365 238.457C161.47 242.159 215.868 240.555 270.115 238.952C290.193 238.357 310.357 237.755 330.107 234.652C341.077 232.928 352.402 230.192 360.364 223.608C370.47 215.225 372.976 201.028 366.205 190.518C354.843 172.887 323.44 168.505 315.489 149.584C311.116 139.17 315.606 127.567 321.957 117.909C335.585 97.1849 358.425 79.0084 359.63 55.3206C360.456 39.0536 349.476 22.7618 332.499 15.063C314.701 6.99364 290.026 8.00898 276.904 21.3652C263.376 35.1027 239.62 40.3932 219.257 39.6878Z" fill="#434343"/>
<path d="M159.916 232.101C159.56 230.812 159.204 229.508 158.491 228.385C157.83 227.434 157.045 226.575 156.157 225.831C153.573 223.487 150.401 221.107 146.976 221.698C145.917 221.933 144.894 222.306 143.933 222.81C143.434 223.041 142.932 223.273 142.418 223.469C140.974 224.073 139.377 224.212 137.85 223.868C137.066 223.658 136.335 223.28 135.562 223.045C135.195 222.935 134.819 222.854 134.439 222.803C135.186 222.468 135.911 222.086 136.609 221.659C140.451 219.308 143.516 215.058 143.088 210.512C142.942 208.983 142.418 207.519 141.898 206.076L140.53 202.293C139.938 200.654 139.325 198.983 138.245 197.622C137.044 196.104 135.334 195.075 133.566 194.309C129.771 192.659 125.622 192.079 121.528 191.516L121.243 191.477V147.254C121.243 146.498 120.942 145.773 120.407 145.239C119.873 144.704 119.148 144.404 118.392 144.404H113.01C112.773 142.95 112.535 141.499 112.297 140.05C111.62 135.914 110.918 131.703 109.012 127.98C107.764 125.543 105.779 123.217 103.103 122.739C102.577 122.692 102.06 122.572 101.567 122.383C100.783 121.998 100.355 121.143 99.7531 120.513C98.1993 118.885 95.6726 118.86 93.5913 118.019C91.7524 117.289 90.2485 115.913 88.5736 114.855C86.8986 113.797 84.8174 113.046 82.9642 113.733C82.9642 113.869 82.9393 114.004 82.925 114.136L81.7347 113.587C80.4518 112.992 79.1439 112.383 78.1139 111.407C76.7918 110.16 76.0862 108.507 75.5373 106.75C75.4803 106.569 75.4269 106.394 75.3698 106.198C77.6478 103.875 79.1898 100.932 79.8032 97.737L80.0918 98.674C80.1568 98.8845 80.2329 99.0914 80.3199 99.2939C80.4673 99.6854 80.7127 100.033 81.0326 100.302C81.124 100.374 81.2247 100.432 81.332 100.477C81.4304 100.516 81.5334 100.542 81.6385 100.555C81.7865 100.573 81.9366 100.562 82.0804 100.523C82.3214 100.448 82.5425 100.321 82.7276 100.149C82.9126 99.9778 83.0568 99.7671 83.1495 99.5326C83.2064 99.3925 83.2482 99.2468 83.2743 99.0979C83.288 99.0082 83.2964 98.9178 83.2992 98.8272C83.2992 98.7987 83.2992 98.7702 83.2992 98.7417C83.2992 98.7132 83.2992 98.617 83.2992 98.5564C83.2992 98.4958 83.2992 98.4923 83.2992 98.4566C83.2992 98.421 83.2992 98.3391 83.2814 98.2785V98.1859C83.2814 98.1146 83.26 98.0434 83.2457 97.9757C83.2315 97.908 83.2457 97.9365 83.2457 97.9187C83.2279 97.8296 83.2065 97.737 83.1887 97.6479C83.1887 97.6266 83.1887 97.6016 83.1887 97.5802C83.1887 97.5589 83.1566 97.4342 83.1388 97.3594C83.121 97.2845 83.1139 97.2632 83.1032 97.2133V97.1919C83.0676 97.0494 83.0355 96.9105 83.0034 96.768C82.7444 95.5315 82.6783 94.2625 82.8074 93.0058C83.0207 91.1617 83.3613 89.3344 83.8266 87.5372L83.9015 87.213C83.93 87.0883 83.9585 86.9636 83.9834 86.8354C84.0405 86.5789 84.0975 86.3224 84.1509 86.0623L84.2792 85.4068L84.3755 84.8225V84.7477C84.5755 83.4237 84.6174 82.0807 84.5002 80.7469V80.7469C84.3363 78.8836 83.7589 77.1201 82.4938 75.7164C81.5993 74.7225 80.4197 73.9886 79.5893 72.9447C78.8124 71.9686 78.3741 70.7644 77.5687 69.8061C75.3449 67.1519 69.6358 65.107 66.1326 64.7507C62.1198 64.3446 55.6373 65.3706 52.4014 67.7397C51.204 68.6126 50.3843 69.8773 49.5504 71.0743C48.018 73.301 46.2789 75.5241 43.8235 76.7745C42.8969 77.2448 41.8349 77.6011 41.2184 78.4205C40.8516 78.9759 40.6141 79.6065 40.5234 80.2659C40.0513 82.5856 39.8054 84.9456 39.7893 87.3128V87.3128C39.7893 87.6085 39.7893 87.9042 39.7893 88.2034C39.7966 89.091 39.9858 89.9676 40.3452 90.7792C40.4023 90.9003 40.4664 91.0179 40.5341 91.1355L40.5769 91.2103C41.0079 91.8262 41.3893 92.4755 41.7173 93.1519C41.799 93.3413 41.8576 93.5399 41.8919 93.7433C41.953 94.2652 41.9192 94.7938 41.7921 95.3037V95.3037C41.7921 95.3821 41.7601 95.4605 41.7458 95.5389L41.7137 95.6921C41.7137 95.7455 41.7137 95.7989 41.6852 95.8488C41.6567 96.002 41.6318 96.1552 41.6104 96.3048C41.5563 96.7169 41.583 97.1356 41.6888 97.5375C41.7376 97.7614 41.8333 97.9725 41.9697 98.1567C42.1061 98.3409 42.28 98.4942 42.4799 98.6063C42.6829 98.7036 42.899 98.7708 43.1214 98.8058C43.3459 98.845 43.574 98.8699 43.795 98.9198C44.0791 98.9845 44.3535 99.0863 44.6111 99.2226C44.8578 99.3407 45.0889 99.4891 45.2989 99.6644C45.4027 99.7588 45.5015 99.8587 45.5947 99.9636C45.7829 100.179 45.9522 100.41 46.1007 100.655C46.1767 100.781 46.248 100.909 46.3145 101.04C46.5699 101.555 46.774 102.094 46.9239 102.65C47.0166 102.981 47.095 103.316 47.1627 103.651C47.1948 103.801 47.2233 103.95 47.2482 104.096C47.2732 104.242 47.2981 104.392 47.3195 104.538C47.4168 104.533 47.5127 104.513 47.6046 104.481C48.1285 104.292 48.4207 103.683 48.5846 103.092C48.6132 102.992 48.6381 102.896 48.6595 102.799C48.7414 102.443 48.827 102.051 48.9089 101.677C50.3137 104.659 52.5788 107.153 55.4128 108.838C55.5126 109.134 55.6088 109.426 55.6943 109.725C56.1612 111.339 56.3857 113.028 55.5767 114.439C54.9994 115.44 54.0301 116.056 52.9467 116.483C52.7905 116.275 52.5895 116.105 52.3587 115.985C51.4214 115.514 50.2952 116.084 49.5077 116.786C48.0822 118.076 46.9204 119.925 45.0458 120.349C44.3687 120.506 43.6203 120.474 43.0573 120.887C42.6848 121.237 42.373 121.646 42.1342 122.098C41.7275 122.682 41.1805 123.155 40.5435 123.472C39.9064 123.789 39.1998 123.942 38.4885 123.915C37.8364 123.883 37.063 123.733 36.6176 124.211C36.2861 124.567 36.2612 125.13 35.9048 125.468C35.4273 125.939 34.6432 125.711 33.9768 125.682C32.7081 125.629 31.5285 126.448 30.8051 127.499C30.0816 128.55 29.7359 129.808 29.3796 131.062V131.083C29.2881 131.15 29.2012 131.222 29.1194 131.3C28.7739 131.668 28.506 132.102 28.3318 132.576C25.4498 139.136 23.7487 146.152 23.3069 153.303C23.314 153.652 23.2357 153.997 23.0788 154.308C22.9194 154.511 22.7442 154.702 22.555 154.878C22.3856 155.085 22.2596 155.324 22.1845 155.581C22.1093 155.838 22.0865 156.107 22.1174 156.373C22.1483 156.639 22.2323 156.896 22.3644 157.128C22.4965 157.361 22.674 157.565 22.8864 157.728C22.9889 157.542 23.1173 157.372 23.2677 157.222C23.2285 157.386 23.1929 157.546 23.1679 157.692C23.0248 158.732 23.0116 159.785 23.1287 160.827C23.4661 165.777 23.807 170.723 24.1515 175.666C24.2478 177.066 24.344 178.462 24.4723 179.859C24.7217 182.562 25.0781 185.254 25.5414 187.935C25.5628 188.057 25.5877 188.181 25.6198 188.292C22.7153 189.214 20.1316 190.882 19.0447 193.664C18.6669 194.626 18.4958 195.673 18.0326 196.596C17.5229 197.608 16.6855 198.417 16.1295 199.407C15.1709 201.11 15.1281 203.198 15.4773 205.107C16.1509 208.83 18.1644 212.158 20.823 214.865C20.7054 214.865 20.5842 214.865 20.4666 214.865C19.598 214.961 18.7642 215.26 18.0326 215.738C12.409 219.023 9.19444 226.07 10.3669 232.504C10.5986 233.761 11.0013 235.037 11.8423 235.995C12.5414 236.757 13.4403 237.307 14.4367 237.584C15.0599 237.772 15.7016 237.891 16.3505 237.94C20.7339 238.297 24.9783 236.266 29.3724 236.095C30.8281 236.072 32.2837 236.14 33.7309 236.298C35.8478 236.474 37.9682 236.585 40.0922 236.633C43.5455 236.715 45.4877 235.796 47.6901 233.216C48.2315 232.575 48.6834 231.863 49.0337 231.1C50.9082 230.993 52.9788 230.829 54.4755 230.708L54.4969 230.915C54.5789 231.627 54.7036 232.447 55.2738 232.896C55.5946 233.117 55.9592 233.266 56.3429 233.334C59.9423 234.217 63.5845 235.115 67.2908 235.115C69.0301 235.08 70.766 234.947 72.4903 234.716L79.0013 233.964C80.8986 234.205 82.771 234.613 84.5964 235.183C86.4781 235.821 88.235 236.768 90.0739 237.52C94.3504 239.251 98.9477 239.871 103.502 240.477C104.279 240.58 105.17 240.651 105.744 240.121C106.485 239.408 106.239 238.218 106.029 237.221C105.943 236.811 105.879 236.401 105.829 235.988C108.903 236.798 111.91 237.841 114.824 239.109L115.334 239.333C115.483 240.11 116.2 240.73 116.888 241.567C117.113 241.92 117.378 242.248 117.675 242.543C118.015 242.764 118.402 242.903 118.805 242.949C123.613 243.845 128.522 244.067 133.391 243.608C134.388 243.473 135.396 243.438 136.399 243.505C137.136 243.606 137.864 243.769 138.573 243.993L142.696 245.176C145.736 246.045 148.847 246.925 152.001 246.729C152.641 246.689 153.276 246.597 153.901 246.455C156.395 245.878 158.719 244.485 159.916 242.244C161.609 239.198 160.829 235.45 159.916 232.101Z" fill="url(#paint0_linear)"/>
<path d="M44.554 231.406C43.8021 229.696 43.0893 227.73 43.8413 226.02C44.3321 225.013 45.1753 224.22 46.2112 223.793C47.2362 223.375 48.3167 223.109 49.4185 223.002C52.877 222.549 56.3766 222.501 59.8461 222.86C60.0991 224.862 59.5646 226.892 59.1048 228.827C58.6879 230.608 58.4491 230.872 56.6102 230.965C55.4199 231.029 44.8355 232.037 44.554 231.406Z" fill="#FBBEBE"/>
<path d="M76.2894 219.871C104.435 219.871 127.251 213.49 127.251 205.62C127.251 197.75 104.435 191.37 76.2894 191.37C48.144 191.37 25.3276 197.75 25.3276 205.62C25.3276 213.49 48.144 219.871 76.2894 219.871Z" fill="#464353"/>
<path opacity="0.1" d="M76.2894 219.871C104.435 219.871 127.251 213.49 127.251 205.62C127.251 197.75 104.435 191.37 76.2894 191.37C48.144 191.37 25.3276 197.75 25.3276 205.62C25.3276 213.49 48.144 219.871 76.2894 219.871Z" fill="black"/>
<path d="M85.4269 130.392C83.68 133.766 80.7788 136.401 77.2516 137.817C75.1692 138.575 72.9776 138.991 70.762 139.049C68.3422 139.16 65.8725 139.003 63.5989 138.176C60.5483 137.072 58.0145 134.813 56.115 132.18C54.2155 129.548 52.9076 126.541 51.7707 123.509C51.172 121.931 50.6018 120.249 50.8834 118.582C52.7187 118.165 54.7287 117.552 55.6766 115.924C56.4856 114.528 56.2611 112.853 55.7942 111.257C55.6624 110.805 55.5091 110.356 55.3559 109.925C54.9995 108.892 53.77 106.929 54.6431 106.045C55.1884 105.486 57.4728 105.201 58.2603 104.837C60.6873 103.719 62.9253 102.101 65.591 101.57C67.8968 101.111 70.2773 101.542 72.5795 102.019C72.8849 102.064 73.1782 102.169 73.442 102.329C73.7427 102.583 73.9652 102.916 74.0834 103.291C74.7392 104.887 75.1241 106.651 75.6515 108.314C76.2003 110.057 76.9059 111.692 78.2281 112.928C79.258 113.894 80.5695 114.499 81.8524 115.087L85.0099 116.533C85.5716 116.744 86.081 117.073 86.5031 117.499C86.916 118.066 87.1628 118.737 87.2159 119.437C87.7816 123.186 87.1559 127.018 85.4269 130.392V130.392Z" fill="#FBBEBE"/>
<path opacity="0.1" d="M75.6373 108.314C73.1229 110.932 69.8107 112.64 66.2202 113.173C62.6298 113.705 58.964 113.032 55.7978 111.257C55.666 110.805 55.5127 110.356 55.3595 109.925C55.0031 108.892 53.7736 106.929 54.6467 106.045C55.192 105.486 57.4764 105.201 58.2639 104.837C60.6909 103.719 62.9289 102.101 65.5946 101.57C67.9003 101.111 70.2809 101.542 72.5831 102.019C72.8885 102.064 73.1818 102.169 73.4455 102.329C73.7463 102.583 73.9687 102.916 74.087 103.291C74.7249 104.887 75.1098 106.651 75.6373 108.314Z" fill="black"/>
<path d="M63.8161 112.635C72.8699 112.635 80.2094 105.298 80.2094 96.2474C80.2094 87.1966 72.8699 79.8594 63.8161 79.8594C54.7624 79.8594 47.4229 87.1966 47.4229 96.2474C47.4229 105.298 54.7624 112.635 63.8161 112.635Z" fill="#FBBEBE"/>
<path d="M113.762 149.434L112.415 141.276C111.734 137.182 111.032 133.011 109.129 129.323C107.878 126.908 105.893 124.606 103.217 124.129C102.69 124.082 102.172 123.962 101.678 123.773C100.893 123.395 100.466 122.547 99.8635 121.92C98.3097 120.31 95.7795 120.285 93.6983 119.465C91.8594 118.753 90.3555 117.381 88.6805 116.334C87.0055 115.287 84.9207 114.553 83.0676 115.222C82.7682 118.411 82.451 121.671 81.0968 124.574C80.2154 126.464 78.9225 128.134 77.3126 129.46C75.7028 130.787 73.8168 131.737 71.7924 132.241C69.7681 132.745 67.6567 132.79 65.6126 132.374C63.5684 131.957 61.6433 131.089 59.978 129.833C56.8027 127.442 54.7678 123.755 53.8198 119.897C53.5882 118.956 53.3244 117.877 52.4584 117.445C51.5212 116.975 50.395 117.545 49.6074 118.236C48.1819 119.515 47.0166 121.347 45.1421 121.778C44.4649 121.934 43.7166 121.902 43.1535 122.312C42.7793 122.657 42.466 123.063 42.2269 123.513C41.8167 124.092 41.2686 124.56 40.6321 124.875C39.9957 125.19 39.2908 125.341 38.5812 125.315C37.929 125.283 37.1557 125.134 36.7102 125.607C36.3788 125.964 36.3538 126.519 35.9975 126.851C35.5163 127.317 34.7359 127.089 34.0659 127.065C32.7972 127.011 31.6176 127.823 30.8906 128.846C30.1636 129.868 29.8215 131.133 29.4651 132.359C33.3603 141.03 36.924 149.712 40.8192 158.383C41.0017 158.71 41.0986 159.078 41.1008 159.452C41.0226 159.841 40.8569 160.206 40.6161 160.521C38.7059 163.588 38.7665 167.447 38.9768 171.052C39.187 174.658 39.4436 178.466 37.8328 181.697C37.3944 182.584 36.8242 183.397 36.4073 184.284C35.4308 186.293 35.078 192.72 35.6482 194.879H116.218C114.682 190.657 115.266 182.185 115.587 177.704C115.811 174.568 115.23 171.437 114.981 168.302C114.436 161.9 114.821 155.826 113.762 149.434Z" fill="white"/>
<path d="M23.2927 158.768C23.1501 159.799 23.1357 160.844 23.2499 161.878L24.2727 176.581C24.3689 177.967 24.4652 179.349 24.5935 180.732C24.8394 183.414 25.2064 186.076 25.6626 188.733C25.6728 189.111 25.8325 189.469 26.1064 189.728C26.3803 189.988 26.7462 190.129 27.1237 190.119C31.6319 191.074 36.2897 191.035 40.8905 190.775C47.9111 190.383 54.921 189.489 61.9523 189.642C63.7627 189.681 65.8725 189.642 66.9701 188.217C68.0677 186.792 67.4298 184.487 65.9972 183.336C64.5646 182.185 62.6187 181.911 60.7798 181.911C58.3458 181.886 55.9118 182.232 53.4848 182.089C51.2575 181.957 49.08 181.419 46.9204 180.881L40.862 179.374C41.0937 177.54 41.7922 175.812 42.455 174.07C43.6453 170.981 44.7572 167.789 44.7786 164.479C44.8 161.169 43.5526 157.689 40.8406 155.793C38.6097 154.236 35.7373 153.948 33.0182 154.012C31.0403 154.069 27.6226 153.595 25.8158 154.368C24.3868 154.995 23.56 157.368 23.2927 158.768Z" fill="#FBBEBE"/>
<path d="M117.886 192.385C119.072 191.933 120.38 192.097 121.653 192.268C125.747 192.827 129.903 193.401 133.698 195.036C135.48 195.798 137.176 196.817 138.381 198.317C139.45 199.667 140.074 201.32 140.665 202.948L142.034 206.696C142.554 208.121 143.081 209.575 143.228 211.089C143.655 215.574 140.587 219.803 136.727 222.133C132.868 224.463 128.324 225.293 123.898 226.162C119.472 227.032 115.028 227.994 110.619 229.012C108.563 229.546 106.477 229.956 104.372 230.242C99.6535 230.776 94.7213 229.989 90.2381 231.549C88.4562 232.172 86.7064 233.099 84.8568 233.53C83.6282 233.788 82.386 233.977 81.1362 234.096L72.6509 235.065C70.9254 235.296 69.1883 235.429 67.4478 235.464C63.7415 235.464 60.0958 234.588 56.4964 233.712C56.1137 233.644 55.7494 233.498 55.4273 233.28C54.8571 232.832 54.7323 232.037 54.6504 231.317C54.2869 228.132 53.9685 224.944 53.6953 221.752C53.6097 220.715 53.5456 219.593 54.1122 218.72C54.825 217.651 56.2149 217.316 57.4836 217.11C62.8633 216.23 68.3131 215.852 73.7628 215.98C75.8333 213.911 79.2474 213.9 81.9594 212.774C82.9571 212.316 83.9227 211.791 84.8497 211.203C89.7009 208.373 95.1223 206.661 100.719 206.19C101.815 206.157 102.904 206.002 103.966 205.727C106.065 205.075 107.978 203.301 110.135 203.736C110.402 202.998 110.587 202.011 111.204 201.505C111.51 201.245 111.888 201.071 112.169 200.793C112.765 200.191 112.818 199.243 112.729 198.402C112.64 197.562 112.44 196.7 112.658 195.88C112.748 195.57 112.881 195.274 113.053 195C114.122 193.155 115.737 192.207 117.886 192.385Z" fill="#464353"/>
<path opacity="0.05" d="M117.886 192.385C119.072 191.933 120.38 192.097 121.653 192.268C125.747 192.827 129.903 193.401 133.698 195.036C135.48 195.798 137.176 196.817 138.381 198.317C139.45 199.667 140.074 201.32 140.665 202.948L142.034 206.696C142.554 208.121 143.081 209.575 143.228 211.089C143.655 215.574 140.587 219.803 136.727 222.133C132.868 224.463 128.324 225.293 123.898 226.162C119.472 227.032 115.028 227.994 110.619 229.012C108.563 229.546 106.477 229.956 104.372 230.242C99.6535 230.776 94.7213 229.989 90.2381 231.549C88.4562 232.172 86.7064 233.099 84.8568 233.53C83.6282 233.788 82.386 233.977 81.1362 234.096L72.6509 235.065C70.9254 235.296 69.1883 235.429 67.4478 235.464C63.7415 235.464 60.0958 234.588 56.4964 233.712C56.1137 233.644 55.7494 233.498 55.4273 233.28C54.8571 232.832 54.7323 232.037 54.6504 231.317C54.2869 228.132 53.9685 224.944 53.6953 221.752C53.6097 220.715 53.5456 219.593 54.1122 218.72C54.825 217.651 56.2149 217.316 57.4836 217.11C62.8633 216.23 68.3131 215.852 73.7628 215.98C75.8333 213.911 79.2474 213.9 81.9594 212.774C82.9571 212.316 83.9227 211.791 84.8497 211.203C89.7009 208.373 95.1223 206.661 100.719 206.19C101.815 206.157 102.904 206.002 103.966 205.727C106.065 205.075 107.978 203.301 110.135 203.736C110.402 202.998 110.587 202.011 111.204 201.505C111.51 201.245 111.888 201.071 112.169 200.793C112.765 200.191 112.818 199.243 112.729 198.402C112.64 197.562 112.44 196.7 112.658 195.88C112.748 195.57 112.881 195.274 113.053 195C114.122 193.155 115.737 192.207 117.886 192.385Z" fill="black"/>
<path d="M47.8329 233.608C45.6269 236.163 43.6847 237.075 40.2314 236.993C38.1074 236.943 35.9857 236.833 33.8665 236.662C32.418 236.505 30.9613 236.437 29.5045 236.458C25.1068 236.629 20.8623 238.642 16.4754 238.29C15.8267 238.239 15.1852 238.119 14.5616 237.933C13.5664 237.659 12.6669 237.114 11.9636 236.359C11.1226 235.407 10.7199 234.146 10.4882 232.899C9.31577 226.508 12.5303 219.547 18.1575 216.294C18.8917 215.82 19.7263 215.524 20.5951 215.428C21.447 215.425 22.2891 215.61 23.0612 215.97L23.1146 215.991C25.4008 216.932 27.4772 218.317 29.2229 220.067C29.4878 220.37 29.8038 220.624 30.1566 220.819C30.5087 220.951 30.8815 221.021 31.2578 221.025L35.9406 221.321C36.734 221.345 37.5225 221.453 38.2927 221.645C39.1417 221.941 39.9683 222.299 40.7659 222.714C43.2855 223.84 46.0795 224.139 48.8022 224.574C49.0646 224.588 49.315 224.688 49.515 224.859C49.6236 224.994 49.6993 225.152 49.7359 225.322C50.1186 226.753 50.1452 228.257 49.8135 229.701C49.4818 231.146 48.8019 232.487 47.8329 233.608V233.608Z" fill="#3F3D56"/>
<path opacity="0.1" d="M23.1146 215.995C21.2978 217.729 19.7217 219.699 18.4283 221.852C16.3528 225.404 15.0487 229.354 14.6008 233.444C14.431 234.936 14.4179 236.442 14.5616 237.937C13.5664 237.663 12.6669 237.117 11.9636 236.362C11.1226 235.411 10.7199 234.15 10.4882 232.903C9.31577 226.511 12.5303 219.55 18.1575 216.297C18.8917 215.823 19.7263 215.527 20.5951 215.432C21.447 215.428 22.2891 215.613 23.0612 215.973L23.1146 215.995Z" fill="black"/>
<path d="M113.809 224.858C116.428 224.787 119.368 224.655 121.293 226.419C123.128 228.086 123.37 230.837 123.491 233.313L123.63 236.188C123.673 237.064 123.709 237.969 123.356 238.781C122.729 240.206 121.007 240.894 119.436 240.812C117.864 240.73 116.421 240.042 114.985 239.422C111.086 237.743 107.026 236.465 102.868 235.607C103.003 233.619 103.229 231.641 103.545 229.672C103.762 228.307 103.798 226.023 104.71 224.891C105.676 223.693 106.934 224.342 108.246 224.563C110.086 224.843 111.949 224.943 113.809 224.858V224.858Z" fill="#FBBEBE"/>
<path d="M44.5863 195.969C44.5863 196.325 44.0268 195.969 43.9769 195.588C43.5849 192.706 41.297 190.329 38.6313 189.175C35.9656 188.021 32.9293 187.96 30.0426 188.235C25.677 188.648 20.7769 190.319 19.1803 194.398C18.8025 195.353 18.6315 196.386 18.1682 197.302C17.655 198.306 16.8175 199.108 16.2616 200.084C15.3029 201.773 15.2637 203.842 15.6094 205.752C16.5395 210.847 20.0249 215.204 24.2479 218.221C28.471 221.239 33.4068 223.041 38.3284 224.666C51.342 228.957 64.6938 232.145 78.2424 234.196C80.4377 234.527 82.6544 234.834 84.757 235.539C86.6386 236.17 88.3991 237.114 90.238 237.855C94.5146 239.572 99.1154 240.185 103.673 240.787C104.45 240.887 105.341 240.958 105.915 240.431C106.656 239.743 106.41 238.546 106.2 237.559C105.426 233.807 106.076 229.901 108.021 226.601C108.784 225.318 109.775 224.003 109.632 222.518C109.461 220.786 107.736 219.561 106.018 219.283C104.301 219.005 102.554 219.415 100.83 219.639C100.234 219.718 99.5858 219.767 99.0655 219.465C98.8091 219.292 98.5767 219.086 98.3741 218.852C97.1858 217.706 95.6651 216.966 94.03 216.737C92.3948 216.509 90.7293 216.804 89.2723 217.58C88.6344 217.936 87.6686 217.142 87.0057 216.842L79.5111 213.451C70.9011 209.557 62.2483 205.645 53.1393 203.18C52.4125 203.037 51.7218 202.75 51.108 202.335C50.6554 201.979 50.3311 201.495 49.9141 201.099C49.0054 200.241 47.7402 199.899 46.6497 199.289C45.5592 198.68 44.3368 197.191 44.5863 195.969Z" fill="#464353"/>
<path d="M160.127 242.529C158.929 244.748 156.606 246.131 154.111 246.701C153.485 246.842 152.849 246.933 152.208 246.972C149.054 247.168 145.939 246.295 142.9 245.433L138.773 244.271C138.063 244.048 137.336 243.886 136.599 243.787C135.595 243.72 134.588 243.754 133.591 243.89C128.714 244.344 123.797 244.123 118.98 243.234C118.577 243.191 118.19 243.053 117.85 242.832C117.552 242.54 117.288 242.216 117.062 241.866C115.94 240.516 114.732 239.729 116.061 237.947C116.827 236.914 118.249 236.398 118.844 235.211C119.439 234.025 119.058 232.34 118.705 231.114C118.224 229.422 116.642 228.692 116.075 227.138C115.651 225.966 116.364 224.605 117.437 223.968C118.509 223.33 119.835 223.28 121.072 223.444C122.308 223.608 123.52 223.957 124.764 224.053C128.42 224.345 132.158 222.461 135.669 223.522C136.442 223.758 137.173 224.132 137.957 224.338C139.485 224.68 141.082 224.542 142.529 223.943C143.042 223.75 143.545 223.519 144.044 223.291C145.006 222.79 146.03 222.42 147.091 222.19C150.515 221.602 153.691 223.971 156.274 226.283C157.161 227.019 157.946 227.87 158.609 228.813C159.321 229.924 159.699 231.218 160.034 232.493C160.979 235.789 161.759 239.501 160.127 242.529Z" fill="#3F3D56"/>
<path opacity="0.1" d="M160.127 242.529C158.929 244.748 156.606 246.131 154.111 246.701C155.082 244.816 155.519 242.702 155.376 240.587C155.163 237.199 153.673 234.007 151.773 231.193C150.605 229.46 149.276 227.841 147.803 226.358C146.67 225.218 145.277 224.313 144.058 223.269C145.02 222.769 146.045 222.398 147.105 222.168C150.53 221.581 153.705 223.95 156.289 226.262C157.176 226.998 157.961 227.848 158.623 228.791C159.336 229.903 159.713 231.196 160.048 232.472C160.979 235.788 161.759 239.501 160.127 242.529Z" fill="black"/>
<path d="M29.262 132.622C28.9148 132.985 28.6456 133.416 28.4708 133.887C25.5901 140.377 23.8886 147.328 23.4459 154.415C23.4537 154.76 23.374 155.102 23.2143 155.409C23.0568 155.613 22.8815 155.802 22.6904 155.975C22.5169 156.181 22.3875 156.42 22.31 156.677C22.2326 156.935 22.2088 157.206 22.2402 157.473C22.2716 157.74 22.3575 157.998 22.4926 158.23C22.6276 158.463 22.809 158.665 23.0254 158.825C23.6134 157.717 25.0211 157.357 26.272 157.261C32.2627 156.787 38.1144 159.573 44.1229 159.363C43.6988 157.899 43.0894 156.492 42.7437 155.01C41.2148 148.43 45.0281 141.265 42.6902 134.927C42.2234 133.659 41.4429 132.412 40.2134 131.856C39.7044 131.651 39.1716 131.509 38.6276 131.436C37.1094 131.161 34.0873 129.989 32.6191 130.46C32.0774 130.634 31.8635 131.144 31.4145 131.45C30.7338 131.888 29.8286 132.049 29.262 132.622Z" fill="white"/>
<path d="M118.531 145.59H44.7395C43.1708 145.59 41.8992 146.861 41.8992 148.429V193.34C41.8992 194.908 43.1708 196.179 44.7395 196.179H118.531C120.099 196.179 121.371 194.908 121.371 193.34V148.429C121.371 146.861 120.099 145.59 118.531 145.59Z" fill="#3F3D56"/>
<path d="M81.4569 173.022C82.6378 173.022 83.5951 172.065 83.5951 170.885C83.5951 169.704 82.6378 168.747 81.4569 168.747C80.2759 168.747 79.3186 169.704 79.3186 170.885C79.3186 172.065 80.2759 173.022 81.4569 173.022Z" fill="white"/>
<path d="M52.4906 69.6491C51.2932 70.5149 50.4735 71.7582 49.6396 72.9517C48.1036 75.157 46.3645 77.3587 43.9091 78.5878C42.9789 79.0545 41.9169 79.4072 41.3004 80.2194C40.9345 80.7688 40.6969 81.3934 40.6055 82.0471C40.1351 84.3454 39.8892 86.6839 39.8713 89.0298C39.8713 90.1983 39.9212 91.4025 40.438 92.4642C40.9262 93.4617 41.8065 94.306 41.9882 95.3926C42.1272 96.2405 41.8136 97.0849 41.7031 97.9363C41.5926 98.7878 41.7851 99.796 42.5727 100.202C42.997 100.362 43.4402 100.466 43.8913 100.512C46.2612 101.039 47.0559 103.818 47.4158 106.116C48.2212 106.07 48.5847 105.147 48.7522 104.395L51.2219 93.4189C51.4892 92.229 51.9347 90.8503 53.1214 90.4335C53.9161 90.1591 54.7857 90.4157 55.616 90.4869C58.8769 90.7541 61.6352 88.2353 64.8248 87.5406C65.8457 87.3346 66.8895 87.2652 67.9288 87.334C70.4448 87.4587 73.3707 88.4918 73.9052 90.8396C73.9943 91.2208 74.0478 91.6768 74.4041 91.8656C74.7605 92.0545 75.1347 91.8941 75.5089 91.8656C77.1055 91.7053 78.0463 93.5009 78.506 94.9687L80.181 100.313C80.4305 101.121 80.851 102.073 81.7277 102.176C82.5366 102.276 83.2244 101.51 83.3456 100.751C83.4668 99.992 83.2031 99.2046 83.0284 98.4422C82.2408 94.9331 83.4454 91.3419 84.1795 87.8256C84.9137 84.3093 85.0455 80.2693 82.583 77.5617C81.6885 76.582 80.5124 75.8517 79.6785 74.8185C78.9016 73.8495 78.4633 72.6596 77.6579 71.7083C75.4305 69.0827 69.7178 67.0556 66.2146 66.7207C62.2125 66.286 55.7265 67.3014 52.4906 69.6491Z" fill="#3F3D56"/>
<g opacity="0.1">
<path opacity="0.1" d="M81.7422 99.6824C80.8655 99.5755 80.4449 98.6136 80.1955 97.8192C79.6372 96.0355 79.0788 94.2542 78.5205 92.4752C78.0608 91.0039 77.12 89.2083 75.5234 89.3722C75.1492 89.4114 74.7465 89.5575 74.4186 89.3722C74.0908 89.1869 74.0088 88.7274 73.9197 88.3462C73.3851 85.9948 70.4593 84.9652 67.9433 84.8405C66.9042 84.7723 65.8606 84.8406 64.8392 85.0436C61.6497 85.7561 58.8913 88.25 55.6305 87.9899C54.7895 87.9222 53.9199 87.6657 53.1359 87.94C51.9349 88.3533 51.5037 89.7213 51.2364 90.9255L48.7667 101.898C48.5992 102.654 48.2357 103.576 47.4303 103.619C47.0739 101.325 46.2756 98.546 43.9057 98.0187C43.4553 97.9691 43.0125 97.865 42.5871 97.7087C42.2771 97.5394 42.0344 97.2691 41.8993 96.9428C41.8352 97.2741 41.7604 97.6054 41.7176 97.9367C41.6107 98.7846 41.7996 99.7964 42.5871 100.203C43.0115 100.362 43.4547 100.466 43.9057 100.513C46.2756 101.04 47.0704 103.819 47.4303 106.117C48.2357 106.07 48.5992 105.147 48.7667 104.396L51.2364 93.4193C51.5037 92.2294 51.9491 90.8507 53.1359 90.4339C53.9306 90.1595 54.8001 90.416 55.6305 90.4873C58.8913 90.7545 61.6497 88.2357 64.8392 87.541C65.8602 87.335 66.904 87.2655 67.9433 87.3344C70.4593 87.4591 73.3851 88.4922 73.9197 90.84C74.0088 91.2212 74.0623 91.6772 74.4186 91.866C74.775 92.0548 75.1492 91.8945 75.5234 91.866C77.12 91.7057 78.0608 93.5013 78.5205 94.9691C79.0765 96.7528 79.6348 98.5341 80.1955 100.313C80.4449 101.122 80.8655 102.073 81.7422 102.176C82.5511 102.276 83.2389 101.51 83.3601 100.751C83.4149 100.113 83.3422 99.4697 83.1463 98.8595C83.0191 99.1195 82.8181 99.3363 82.5684 99.4826C82.3186 99.629 82.0312 99.6985 81.7422 99.6824V99.6824Z" fill="black"/>
<path opacity="0.1" d="M41.9919 92.899C41.8101 91.8124 40.9227 90.9681 40.4416 89.9706C40.1323 89.2978 39.9534 88.5724 39.9142 87.833C39.9142 88.232 39.8786 88.631 39.875 89.0336C39.875 90.2021 39.9249 91.4063 40.4416 92.468C40.8372 93.2767 41.4894 93.9892 41.8172 94.8122C41.9901 94.1902 42.0493 93.5421 41.9919 92.899V92.899Z" fill="black"/>
<path opacity="0.1" d="M84.1938 85.3178C83.5452 88.4245 82.533 91.5881 82.8467 94.7018C83.0498 92.4039 83.7198 90.0918 84.1938 87.8117C84.5891 86.0802 84.7284 84.3002 84.6071 82.5283C84.5298 83.4661 84.3917 84.3979 84.1938 85.3178Z" fill="black"/>
</g>
<g opacity="0.8">
<path opacity="0.8" d="M117.618 103.491H340.375" stroke="#3F3D56" stroke-width="3" stroke-miterlimit="10"/>
<path opacity="0.8" d="M137.408 103.487C137.408 103.487 148.06 104.965 142.543 93.5401C137.027 82.1148 157.511 84.2773 157.511 84.2773" stroke="#3F3D56" stroke-width="3" stroke-miterlimit="10"/>
<path opacity="0.8" d="M208.352 103.487C208.352 103.487 219.004 102.012 213.487 113.437C207.97 124.863 228.455 122.7 228.455 122.7" stroke="#3F3D56" stroke-width="3" stroke-miterlimit="10"/>
<path opacity="0.8" d="M310.5 103.487C310.5 103.487 299.844 102.012 305.364 113.437C310.884 124.863 290.396 122.7 290.396 122.7" stroke="#3F3D56" stroke-width="3" stroke-miterlimit="10"/>
<path opacity="0.8" d="M290.397 122.697H231.62" stroke="#3F3D56" stroke-width="3" stroke-miterlimit="10"/>
<path opacity="0.8" d="M117.618 109.992C121.21 109.992 124.122 107.081 124.122 103.491C124.122 99.8997 121.21 96.9888 117.618 96.9888C114.026 96.9888 111.115 99.8997 111.115 103.491C111.115 107.081 114.026 109.992 117.618 109.992Z" fill="#3ACC6C"/>
<path opacity="0.8" d="M157.622 90.6867C161.214 90.6867 164.125 87.7757 164.125 84.1849C164.125 80.5941 161.214 77.6831 157.622 77.6831C154.03 77.6831 151.118 80.5941 151.118 84.1849C151.118 87.7757 154.03 90.6867 157.622 90.6867Z" fill="#FF6584"/>
<path opacity="0.8" d="M157.622 109.992C161.214 109.992 164.125 107.081 164.125 103.491C164.125 99.8997 161.214 96.9888 157.622 96.9888C154.03 96.9888 151.118 99.8997 151.118 103.491C151.118 107.081 154.03 109.992 157.622 109.992Z" fill="#3ACC6C"/>
<path opacity="0.8" d="M183.437 109.992C187.029 109.992 189.941 107.081 189.941 103.491C189.941 99.8997 187.029 96.9888 183.437 96.9888C179.845 96.9888 176.934 99.8997 176.934 103.491C176.934 107.081 179.845 109.992 183.437 109.992Z" fill="#3ACC6C"/>
<path opacity="0.8" d="M228.562 129.102C232.154 129.102 235.066 126.191 235.066 122.6C235.066 119.01 232.154 116.099 228.562 116.099C224.97 116.099 222.058 119.01 222.058 122.6C222.058 126.191 224.97 129.102 228.562 129.102Z" fill="#FBFF47"/>
<path opacity="0.8" d="M262.66 129.102C266.252 129.102 269.164 126.191 269.164 122.6C269.164 119.01 266.252 116.099 262.66 116.099C259.068 116.099 256.156 119.01 256.156 122.6C256.156 126.191 259.068 129.102 262.66 129.102Z" fill="#FBFF47"/>
<path opacity="0.8" d="M260.881 109.992C264.473 109.992 267.385 107.081 267.385 103.491C267.385 99.8997 264.473 96.9888 260.881 96.9888C257.289 96.9888 254.377 99.8997 254.377 103.491C254.377 107.081 257.289 109.992 260.881 109.992Z" fill="#3ACC6C"/>
<path opacity="0.8" d="M338.728 109.992C342.32 109.992 345.232 107.081 345.232 103.491C345.232 99.8997 342.32 96.9888 338.728 96.9888C335.136 96.9888 332.224 99.8997 332.224 103.491C332.224 107.081 335.136 109.992 338.728 109.992Z" fill="#3ACC6C"/>
<path opacity="0.8" d="M306.882 109.992C310.474 109.992 313.386 107.081 313.386 103.491C313.386 99.8997 310.474 96.9888 306.882 96.9888C303.29 96.9888 300.378 99.8997 300.378 103.491C300.378 107.081 303.29 109.992 306.882 109.992Z" fill="#3ACC6C"/>
<path opacity="0.8" d="M128.513 43.6992H106.692V58.7335H128.513V43.6992Z" fill="#3ACC6C"/>
<path opacity="0.8" d="M168.612 43.6992H146.791V58.7335H168.612V43.6992Z" fill="#FBFF47"/>
<path opacity="0.8" d="M239.381 43.6992H217.56V58.7335H239.381V43.6992Z" fill="#FF6584"/>
</g>
<g opacity="0.1">
<path opacity="0.1" d="M30.773 106.651C30.773 106.651 4.12679 95.4499 0.634312 115.661C0.634312 115.661 -1.18677 118.81 1.34706 121.411C1.34706 121.411 1.89232 120.014 4.46535 121.457C5.38436 121.965 6.36056 122.362 7.37338 122.64C8.74119 123.017 10.1946 122.939 11.5145 122.419V122.419C11.5145 122.419 20.2777 121.945 27.6476 110.484C27.6476 110.484 30.8086 108.532 30.9655 107.798L25.684 108.154C25.684 108.154 26.0902 112.02 23.9021 114.339C23.9021 114.339 25.8408 108.339 24.9106 108.172C24.7217 108.136 22.1202 108.478 22.1202 108.478C22.1202 108.478 22.7938 115.201 19.2692 118.678C19.2692 118.678 22.5407 111.841 21.1188 108.6L17.22 109.351C17.22 109.351 18.2892 116.423 14.4332 120.534C14.4332 120.534 17.6049 113.267 16.379 109.576L12.6477 110.83C12.6477 110.83 13.5458 117.745 10.3206 121.161C10.3206 121.161 13.136 112.394 11.8103 111.186C11.8103 111.186 8.4532 112.547 7.73688 113.324C7.73688 113.324 8.26788 118.311 6.21872 120.11C6.21872 120.11 7.47673 114.054 6.85307 113.805C6.85307 113.805 2.95432 116.74 1.76402 119.273C1.76402 119.273 3.24655 115.404 6.36484 113.217C6.36484 113.217 3.74547 112.775 1.73195 113.869C1.73195 113.869 3.07905 111.3 7.30923 112.518C7.30923 112.518 10.4418 110.349 11.069 110.381C11.069 110.381 7.0669 108.6 4.17669 108.82C4.17669 108.82 7.27716 107.039 12.0455 110.014L15.7696 108.671C15.7696 108.671 10.6021 106.024 8.01485 106.034C8.01485 106.034 11.4574 104.702 16.7354 108.407L20.5486 107.63C20.5486 107.63 16.2721 105.012 13.389 104.403C13.389 104.403 16.8458 103.854 21.6498 107.449L24.2549 107.231C24.2549 107.231 21.101 105.372 20.1459 104.919C19.1908 104.467 19.2336 104.175 19.2336 104.175C21.5 104.563 23.6145 105.572 25.3418 107.089C25.3418 107.089 30.7516 106.982 30.773 106.651Z" fill="#6C63FF"/>
</g>
<g opacity="0.1">
<path opacity="0.1" d="M29.7895 86.5716C29.7895 86.5716 20.3526 64.7434 6.75689 74.7544C6.75689 74.7544 3.8845 75.5881 3.90588 78.5664C3.90588 78.5664 5.0249 78.0463 5.73409 80.3727C5.99413 81.1979 6.35312 81.9886 6.80322 82.7275C7.3981 83.7319 8.30556 84.514 9.38694 84.9542C9.38694 84.9542 14.8644 89.664 25.7802 87.0526C25.7802 87.0526 28.7738 87.6903 29.2834 87.3483L25.9477 84.5445C25.9477 84.5445 23.9841 87.0739 21.354 87.1951C21.354 87.1951 25.9263 84.7369 25.4702 84.1063C25.3775 83.978 23.6348 82.7026 23.6348 82.7026C23.6348 82.7026 20.2065 87.0775 16.151 87.1452C16.151 87.1452 21.992 84.9435 22.9934 82.211L20.2493 80.4296C20.2493 80.4296 16.7889 85.2428 12.156 85.4921C12.156 85.4921 18.1823 82.9805 19.5579 80.0876L16.6249 78.7089C16.6249 78.7089 13.218 83.3403 9.36556 83.5149C9.36556 83.5149 16.0369 79.9095 15.9336 78.4381C15.9336 78.4381 13.1645 77.3337 12.2843 77.3979C12.2843 77.3979 9.7647 80.6577 7.51597 80.565C7.51597 80.565 11.7176 77.6829 11.4896 77.1805C11.4896 77.1805 7.49815 76.7032 5.3492 77.5368C5.3492 77.5368 8.43542 76.0833 11.5323 76.5606C11.5323 76.5606 10.228 74.8043 8.41403 74.3162C8.41403 74.3162 10.6806 73.5574 12.4981 76.6853C12.4981 76.6853 15.5914 77.1841 15.9549 77.5546C15.9549 77.5546 14.5972 74.2093 12.7476 72.7023C12.7476 72.7023 15.5986 73.4149 16.739 77.8931L19.7183 79.2148C19.7183 79.2148 18.1573 74.6974 16.6107 73.2332C16.6107 73.2332 19.4154 74.4017 20.4417 79.6103L23.1502 81.3167C23.1502 81.3167 22.1024 77.3266 20.7375 75.3209C20.7375 75.3209 23.1038 76.9668 23.9057 81.8369L25.5807 83.1907C25.5807 83.1907 24.7646 80.2907 24.4545 79.4784C24.1445 78.6662 24.3369 78.5165 24.3369 78.5165C25.4627 80.0442 26.1402 81.8552 26.2934 83.7465C26.2934 83.7465 29.5863 86.7533 29.7895 86.5716Z" fill="#6C63FF"/>
</g>
</g>
<defs>
<linearGradient id="paint0_linear" x1="85.5551" y1="246.768" x2="85.5551" y2="64.6474" gradientUnits="userSpaceOnUse">
<stop stop-color="#808080" stop-opacity="0.25"/>
<stop offset="0.54" stop-color="#808080" stop-opacity="0.12"/>
<stop offset="1" stop-color="#808080" stop-opacity="0.1"/>
</linearGradient>
<clipPath id="clip0">
<rect width="370" height="247" fill="white"/>
</clipPath>
</defs>
</svg>
