<svg width="1283" height="492" viewBox="0 0 1283 492" fill="none" xmlns="http://www.w3.org/2000/svg">
<path d="M355.77 271.614C355.78 270.274 355.512 268.946 354.986 267.714C354.459 266.481 353.683 265.371 352.708 264.451C351.733 263.532 350.578 262.823 349.317 262.37C348.056 261.917 346.714 261.729 345.377 261.817C344.04 261.905 342.735 262.268 341.544 262.884C340.353 263.499 339.302 264.353 338.456 265.393C337.61 266.432 336.988 267.635 336.628 268.926C336.267 270.217 336.177 271.569 336.363 272.896L308.348 309.582C307.153 311.973 306.69 314.663 307.016 317.316C307.343 319.969 308.445 322.467 310.184 324.496L312.382 327.06L322.465 325.043L333.893 314.96L332.548 303.532L346.665 281.349L346.647 281.333C349.118 281.176 351.436 280.083 353.131 278.278C354.825 276.473 355.769 274.09 355.77 271.614V271.614Z" fill="#FFB9B9"/>
<path d="M162.041 450.968L157.468 433.984L220.8 408.265L227.549 433.331L162.041 450.968Z" fill="#FFB8B8"/>
<path d="M146.744 459.732L132 404.97L132.693 404.783C138.346 403.261 144.372 404.047 149.445 406.968C154.519 409.889 158.224 414.706 159.747 420.358L159.747 420.36L168.752 453.807L146.744 459.732Z" fill="#2F2E41"/>
<path d="M249.278 448.254L235.054 437.91L268.185 378.121L289.179 393.388L249.278 448.254Z" fill="#FFB8B8"/>
<path d="M242.879 464.681L197.013 431.326L197.435 430.746C200.878 426.011 206.061 422.838 211.843 421.925C217.626 421.012 223.534 422.433 228.269 425.875L228.271 425.876L256.284 446.249L242.879 464.681Z" fill="#2F2E41"/>
<path d="M370.192 364.704L334.397 329.932C331.273 326.897 327.159 325.092 322.81 324.849C318.462 324.606 314.172 325.942 310.729 328.609L243.143 403.693L249.193 413.104L313.726 369.41L357.42 426.548L399.098 405.71L370.192 364.704Z" fill="#2F2E41"/>
<path d="M354.731 372.099L328.515 370.082L309.529 365.479C308.456 363.806 306.898 362.501 305.063 361.737C303.229 360.974 301.204 360.79 299.262 361.209C297.319 361.628 295.551 362.63 294.194 364.082C292.837 365.534 291.955 367.365 291.668 369.331C291.381 371.298 291.701 373.305 292.586 375.084C293.47 376.864 294.878 378.33 296.619 379.288C298.36 380.245 300.353 380.648 302.329 380.442C304.306 380.236 306.172 379.431 307.679 378.135L307.676 378.149L319.104 382.854L368.176 399.66L374.226 394.954L354.731 372.099Z" fill="#FFB9B9"/>
<path d="M417.92 444.699L403.131 454.11H385.653L304.315 423.86L185.332 445.371L181.971 419.826L290.871 372.099L386.326 403.693L417.92 444.699Z" fill="#2F2E41"/>
<path d="M386.326 281.349C400.805 281.349 412.542 269.611 412.542 255.132C412.542 240.653 400.805 228.916 386.326 228.916C371.847 228.916 360.109 240.653 360.109 255.132C360.109 269.611 371.847 281.349 386.326 281.349Z" fill="#FFB9B9"/>
<path d="M454.159 359.804C454.159 375.626 451.666 391.349 446.772 406.395L444.809 412.432L435.398 455.454L425.315 458.143L417.92 448.732L403.131 437.976L392.376 420.499L383.153 405.132L380.276 400.332L370.192 349.915L331.876 328.404L319.104 326.388L321.793 318.993L333.22 303.532L344.648 302.188L348.009 299.499L350.698 300.843L365.521 306.553L413.578 286.249L420.609 287.399L444.809 307.566C450.995 324.287 454.161 341.975 454.159 359.804V359.804Z" fill="#CCCCCC"/>
<path opacity="0.1" d="M446.825 353.949L421.281 370.754L383.153 405.131L380.276 400.332L372.209 359.999H374.226L395.065 321.683L446.825 353.949Z" fill="black"/>
<path d="M395.065 317.649L374.226 355.965L362.126 369.41L351.371 372.099L380.276 403.693L421.281 366.721L446.825 349.915L395.065 317.649Z" fill="#CCCCCC"/>
<path d="M365.935 235.639L363.094 236.732C362.663 236.44 362.294 236.066 362.007 235.631C361.72 235.197 361.522 234.71 361.424 234.198C361.325 233.687 361.328 233.161 361.433 232.651C361.538 232.141 361.742 231.657 362.034 231.225C362.049 231.203 362.065 231.18 362.08 231.158L356.831 230.912C360.201 226.425 364.485 222.704 369.4 219.995C374.316 217.287 379.75 215.653 385.344 215.203C390.938 214.752 396.564 215.494 401.849 217.38C407.135 219.266 411.96 222.253 416.005 226.143C416.244 225.32 418.849 226.921 419.913 228.545C420.27 227.206 422.713 233.68 423.577 238.257C423.977 236.733 425.514 239.193 424.167 241.554C425.021 241.429 425.406 243.613 424.746 244.83C425.68 244.391 425.522 246.999 424.509 248.741C425.842 248.623 424.396 276.072 404.396 274.072C403.003 267.675 403.396 268.072 401.756 259.846C400.993 259.036 400.157 258.298 399.323 257.562L394.81 253.578C389.563 248.946 384.79 243.23 377.8 241.499C372.996 240.309 369.958 240.04 372.576 234.627C370.211 235.614 368.002 237.082 365.615 237.999C365.648 237.242 365.981 236.396 365.935 235.639Z" fill="#2F2E41"/>
<path d="M399.434 262.863C402.033 262.863 404.14 260.756 404.14 258.157C404.14 255.559 402.033 253.452 399.434 253.452C396.835 253.452 394.729 255.559 394.729 258.157C394.729 260.756 396.835 262.863 399.434 262.863Z" fill="#FFB9B9"/>
<path d="M179.998 147.022L178.562 168.585L200.124 170.021L201.56 148.458L179.998 147.022Z" fill="#E6E6E6"/>
<path d="M166.086 158.472L192.269 160.216L190.525 186.398L164.342 184.655L166.086 158.472ZM191.054 161.278L167.148 159.686L165.556 183.592L189.462 185.184L191.054 161.278Z" fill="#CCCCCC"/>
<path d="M301.85 83.0837L280.722 87.6235L285.262 108.751L306.39 104.212L301.85 83.0837Z" fill="#E6E6E6"/>
<path d="M287.02 72.8502L292.533 98.5055L266.878 104.018L261.365 78.3628L287.02 72.8502ZM291.178 97.6297L286.145 74.2054L262.72 79.2385L267.754 102.663L291.178 97.6297Z" fill="#CCCCCC"/>
<path d="M279.65 184.547L263.878 199.32L278.651 215.092L294.423 200.319L279.65 184.547Z" fill="#E6E6E6"/>
<path d="M295.557 182.337L276.405 200.276L258.466 181.124L277.618 163.186L295.557 182.337ZM276.458 198.663L293.944 182.285L277.565 164.798L260.079 181.177L276.458 198.663Z" fill="#CCCCCC"/>
<path d="M1095.28 28H455.894C453.583 28 451.295 28.4552 449.16 29.3396C447.025 30.224 445.085 31.5203 443.45 33.1545C441.816 34.7886 440.52 36.7287 439.636 38.8638C438.751 40.999 438.296 43.2874 438.296 45.5985V401.851C438.296 404.162 438.751 406.45 439.635 408.585C440.52 410.721 441.816 412.661 443.45 414.295C445.085 415.929 447.025 417.225 449.16 418.11C451.295 418.994 453.583 419.449 455.894 419.449H1095.28C1099.94 419.449 1104.42 417.595 1107.72 414.295C1111.02 410.994 1112.88 406.518 1112.88 401.851V45.5985C1112.88 40.9311 1111.02 36.4548 1107.72 33.1545C1104.42 29.8541 1099.94 28 1095.28 28V28Z" fill="#3F3D56"/>
<path d="M1089.28 59.1014H461.89V413.014H1089.28V59.1014Z" fill="white"/>
<path d="M775.05 49.4493C778.603 49.4493 781.484 46.5683 781.484 43.0145C781.484 39.4607 778.603 36.5797 775.05 36.5797C771.496 36.5797 768.615 39.4607 768.615 43.0145C768.615 46.5683 771.496 49.4493 775.05 49.4493Z" fill="white"/>
<path d="M909.858 413.015H461.89V59.102L909.858 413.015Z" fill="#F2F2F2"/>
<path d="M560.058 386.531C593.365 386.531 620.365 359.531 620.365 326.224C620.365 292.918 593.365 265.917 560.058 265.917C526.751 265.917 499.751 292.918 499.751 326.224C499.751 359.531 526.751 386.531 560.058 386.531Z" fill="#E0E0E0"/>
<path d="M573.483 371.551C558.646 371.551 544.143 367.151 531.807 358.908C519.47 350.665 509.855 338.949 504.178 325.242C498.5 311.535 497.014 296.452 499.909 281.9C502.803 267.348 509.948 253.982 520.439 243.491C530.93 233 544.297 225.855 558.848 222.96C573.4 220.066 588.483 221.552 602.19 227.229C615.898 232.907 627.614 242.522 635.856 254.858C644.099 267.195 648.499 281.698 648.499 296.535C648.499 306.386 646.559 316.141 642.789 325.242C639.019 334.343 633.493 342.613 626.527 349.579C619.561 356.545 611.292 362.07 602.19 365.84C593.089 369.61 583.334 371.551 573.483 371.551V371.551ZM573.483 222.5C558.84 222.5 544.526 226.842 532.351 234.977C520.176 243.112 510.687 254.675 505.083 268.203C499.48 281.731 498.014 296.617 500.87 310.978C503.727 325.34 510.778 338.532 521.132 348.886C531.486 359.24 544.678 366.291 559.039 369.147C573.401 372.004 588.287 370.538 601.815 364.934C615.343 359.331 626.906 349.842 635.041 337.667C643.176 325.492 647.518 311.178 647.518 296.535C647.518 286.812 645.603 277.185 641.883 268.203C638.162 259.22 632.709 251.059 625.834 244.184C618.959 237.309 610.797 231.856 601.815 228.135C592.833 224.415 583.205 222.5 573.483 222.5L573.483 222.5Z" fill="#3F3D56"/>
<path d="M944.042 242.97H885.437V255.215H944.042V242.97Z" fill="#3F3D56"/>
<path d="M999.488 176.627H829.991V181.875H999.488V176.627Z" fill="#3F3D56"/>
<path d="M999.488 197.246H829.991V202.494H999.488V197.246Z" fill="#3F3D56"/>
<path d="M999.488 217.866H829.991V223.114H999.488V217.866Z" fill="#3F3D56"/>
<path d="M1044.89 80.2816H1020.4V104.773H1044.89V80.2816Z" fill="#E0E0E0"/>
<path d="M1056.26 116.145H1026.52V86.4045H1056.26V116.145ZM1027.82 114.852H1054.97V87.6976H1027.82L1027.82 114.852Z" fill="#CCCCCC"/>
<path d="M1130.49 406.58H1069.26V402.168C1069.26 402.053 1069.24 401.94 1069.2 401.833C1069.15 401.727 1069.09 401.631 1069.01 401.55C1068.92 401.468 1068.83 401.404 1068.72 401.36C1068.62 401.316 1068.5 401.293 1068.39 401.293H1047.39C1047.28 401.293 1047.17 401.316 1047.06 401.36C1046.95 401.404 1046.86 401.468 1046.78 401.55C1046.69 401.631 1046.63 401.727 1046.59 401.833C1046.54 401.939 1046.52 402.053 1046.52 402.168V406.58H1033.4V402.168C1033.4 402.053 1033.38 401.94 1033.33 401.833C1033.29 401.727 1033.22 401.631 1033.14 401.55C1033.06 401.468 1032.97 401.404 1032.86 401.36C1032.75 401.316 1032.64 401.293 1032.52 401.293H1011.53C1011.42 401.293 1011.3 401.316 1011.2 401.36C1011.09 401.404 1010.99 401.468 1010.91 401.55C1010.83 401.631 1010.77 401.727 1010.72 401.833C1010.68 401.94 1010.66 402.053 1010.66 402.168V402.168V406.58H997.536V402.168C997.536 402.053 997.514 401.94 997.47 401.833C997.426 401.727 997.361 401.631 997.28 401.55C997.199 401.468 997.102 401.404 996.996 401.36C996.89 401.316 996.776 401.293 996.661 401.293H975.668C975.554 401.293 975.44 401.316 975.334 401.36C975.228 401.404 975.131 401.468 975.05 401.55C974.969 401.631 974.904 401.727 974.86 401.833C974.816 401.94 974.794 402.053 974.794 402.168V402.168V406.58H961.673V402.168C961.673 402.053 961.651 401.94 961.607 401.833C961.563 401.727 961.498 401.631 961.417 401.55C961.336 401.468 961.239 401.404 961.133 401.36C961.027 401.316 960.913 401.293 960.799 401.293H939.806C939.691 401.293 939.577 401.316 939.471 401.36C939.365 401.404 939.268 401.468 939.187 401.55C939.106 401.631 939.042 401.727 938.998 401.833C938.954 401.939 938.931 402.053 938.931 402.168V406.58H925.81V402.168C925.81 402.053 925.788 401.94 925.744 401.833C925.7 401.727 925.635 401.631 925.554 401.55C925.473 401.468 925.377 401.404 925.27 401.36C925.164 401.316 925.051 401.293 924.936 401.293H903.943C903.828 401.293 903.714 401.316 903.608 401.36C903.502 401.404 903.406 401.468 903.324 401.55C903.243 401.631 903.179 401.727 903.135 401.833C903.091 401.94 903.068 402.053 903.068 402.168V402.168V406.58H889.948V402.168C889.948 402.053 889.925 401.94 889.881 401.833C889.837 401.727 889.773 401.631 889.691 401.55C889.61 401.468 889.514 401.404 889.408 401.36C889.301 401.316 889.188 401.293 889.073 401.293H868.08C867.965 401.293 867.851 401.316 867.745 401.36C867.639 401.404 867.543 401.468 867.461 401.55C867.38 401.631 867.316 401.727 867.272 401.833C867.228 401.94 867.205 402.053 867.205 402.168V402.168V406.58H854.085V402.168C854.085 402.053 854.062 401.94 854.018 401.833C853.974 401.727 853.91 401.631 853.828 401.55C853.747 401.468 853.651 401.404 853.545 401.36C853.439 401.316 853.325 401.293 853.21 401.293H688.766C688.651 401.293 688.537 401.316 688.431 401.36C688.325 401.404 688.228 401.468 688.147 401.55C688.066 401.631 688.001 401.727 687.957 401.833C687.913 401.94 687.891 402.053 687.891 402.168V402.168V406.58H674.77V402.168C674.77 402.053 674.748 401.94 674.704 401.833C674.66 401.727 674.595 401.631 674.514 401.55C674.433 401.468 674.336 401.404 674.23 401.36C674.124 401.316 674.01 401.293 673.896 401.293H652.903C652.788 401.293 652.674 401.316 652.568 401.36C652.462 401.404 652.365 401.468 652.284 401.55C652.203 401.631 652.138 401.727 652.094 401.833C652.051 401.94 652.028 402.053 652.028 402.168V402.168V406.58H638.907V402.168C638.907 402.053 638.885 401.94 638.841 401.833C638.797 401.727 638.732 401.631 638.651 401.55C638.57 401.468 638.474 401.404 638.367 401.36C638.261 401.316 638.148 401.293 638.033 401.293H617.04C616.925 401.293 616.811 401.316 616.705 401.36C616.599 401.404 616.502 401.468 616.421 401.55C616.34 401.631 616.276 401.727 616.232 401.833C616.188 401.94 616.165 402.053 616.165 402.168V402.168V406.58H603.044V402.168C603.044 402.053 603.022 401.94 602.978 401.833C602.934 401.727 602.869 401.631 602.788 401.55C602.707 401.468 602.611 401.404 602.504 401.36C602.398 401.316 602.285 401.293 602.17 401.293H581.177C581.062 401.293 580.948 401.316 580.842 401.36C580.736 401.404 580.64 401.468 580.558 401.55C580.477 401.631 580.413 401.727 580.369 401.833C580.325 401.94 580.302 402.053 580.302 402.168V402.168V406.58H567.182V402.168C567.182 402.053 567.159 401.94 567.115 401.833C567.071 401.727 567.007 401.631 566.925 401.55C566.844 401.468 566.748 401.404 566.642 401.36C566.535 401.316 566.422 401.293 566.307 401.293H545.314C545.199 401.293 545.085 401.316 544.979 401.36C544.873 401.404 544.777 401.468 544.695 401.55C544.614 401.631 544.55 401.727 544.506 401.833C544.462 401.94 544.439 402.053 544.439 402.168V402.168V406.58H531.319V402.168C531.319 402.053 531.296 401.94 531.252 401.833C531.208 401.727 531.144 401.631 531.062 401.55C530.981 401.468 530.885 401.404 530.779 401.36C530.673 401.316 530.559 401.293 530.444 401.293H509.451C509.219 401.293 508.997 401.386 508.833 401.55C508.668 401.714 508.576 401.936 508.576 402.168V406.58H495.456V402.168C495.456 402.053 495.433 401.94 495.389 401.833C495.345 401.727 495.281 401.631 495.2 401.55C495.118 401.468 495.022 401.404 494.916 401.36C494.81 401.316 494.696 401.293 494.581 401.293H473.588C473.356 401.293 473.134 401.386 472.97 401.55C472.806 401.714 472.713 401.936 472.713 402.168V406.58H432.477C426.909 406.58 421.57 408.791 417.633 412.728C413.696 416.665 411.484 422.005 411.484 427.573V437.065C411.484 442.633 413.696 447.972 417.633 451.909C421.57 455.846 426.909 458.058 432.477 458.058H1130.49C1136.06 458.058 1141.4 455.846 1145.34 451.909C1149.27 447.972 1151.48 442.633 1151.48 437.065V427.573C1151.48 424.816 1150.94 422.086 1149.89 419.539C1148.83 416.992 1147.28 414.678 1145.34 412.728C1143.39 410.779 1141.07 409.233 1138.52 408.178C1135.98 407.123 1133.25 406.58 1130.49 406.58V406.58Z" fill="#3F3D56"/>
</svg>
