<svg width="52" height="49" viewBox="0 0 52 49" fill="none" xmlns="http://www.w3.org/2000/svg">
<path d="M51.2766 17.9208L29.3984 1.14942C27.3963 -0.38314 24.6049 -0.38314 22.6028 1.14942L0.724565 17.9208C-0.0878883 18.5454 -0.238773 19.7079 0.382174 20.5175C1.00892 21.3272 2.17538 21.4775 2.98783 20.8587L4.64175 19.5922V39.7468C4.64175 44.8476 8.80848 49 13.9269 49H18.5695C20.6181 49 22.2836 47.3402 22.2836 45.2987V32.3443C22.2836 31.3264 23.1193 30.4936 24.1406 30.4936H27.8547C28.8761 30.4936 29.7118 31.3264 29.7118 32.3443V45.2987C29.7118 47.3402 31.3773 49 33.4258 49H38.0684C43.1869 49 47.3536 44.8476 47.3536 39.7468V19.5864L49.0075 20.8529C49.3441 21.1132 49.7445 21.2346 50.1392 21.2346C50.6963 21.2346 51.2476 20.986 51.6132 20.5117C52.2399 19.7079 52.089 18.5454 51.2766 17.9208V17.9208ZM43.6453 39.7468C43.6453 42.8061 41.1441 45.2987 38.0742 45.2987H33.4316V32.3443C33.4316 29.2849 30.9304 26.7923 27.8605 26.7923H24.1464C21.0765 26.7923 18.5753 29.2849 18.5753 32.3443V45.2987H13.9327C10.8628 45.2987 8.36163 42.8061 8.36163 39.7468V16.7411L24.8719 4.08731C25.5392 3.57838 26.4677 3.57838 27.1351 4.08731L43.6453 16.7411V39.7468Z" fill="#6077FF"/>
</svg>
