<svg width="587" height="587" viewBox="0 0 587 587" fill="none" xmlns="http://www.w3.org/2000/svg">
<path d="M224.646 162.737C222.214 162.737 219.881 163.703 218.161 165.423C216.442 167.142 215.476 169.475 215.476 171.907V357.143C215.476 359.575 216.442 361.908 218.161 363.628C219.881 365.347 222.214 366.313 224.646 366.313H507.34C509.772 366.313 512.104 365.347 513.824 363.628C515.544 361.908 516.51 359.575 516.51 357.143V171.907C516.51 169.475 515.544 167.142 513.824 165.423C512.104 163.703 509.772 162.737 507.34 162.737H224.646Z" fill="white" stroke="#CCCCCC" stroke-width="10" stroke-linejoin="round"/>
<path d="M480.34 349.402C489.752 349.402 497.382 341.772 497.382 332.36C497.382 322.948 489.752 315.318 480.34 315.318C470.928 315.318 463.298 322.948 463.298 332.36C463.298 341.772 470.928 349.402 480.34 349.402Z" fill="#CCCCCC"/>
<path d="M489.191 332.055L475.607 324.212C475.554 324.181 475.493 324.165 475.431 324.165C475.369 324.165 475.308 324.181 475.255 324.212C475.201 324.243 475.156 324.287 475.125 324.341C475.094 324.395 475.078 324.455 475.078 324.517V340.203C475.078 340.265 475.094 340.326 475.125 340.379C475.156 340.433 475.201 340.478 475.255 340.508C475.308 340.539 475.369 340.556 475.431 340.556C475.493 340.556 475.554 340.539 475.607 340.508L489.191 332.666C489.245 332.635 489.29 332.59 489.321 332.537C489.352 332.483 489.368 332.422 489.368 332.36C489.368 332.298 489.352 332.237 489.321 332.184C489.29 332.13 489.245 332.086 489.191 332.055L475.607 324.212C475.554 324.181 475.493 324.165 475.431 324.165C475.369 324.165 475.308 324.181 475.255 324.212C475.201 324.243 475.156 324.287 475.125 324.341C475.094 324.395 475.078 324.455 475.078 324.517V340.203C475.078 340.265 475.094 340.326 475.125 340.379C475.156 340.433 475.201 340.478 475.255 340.508C475.308 340.539 475.369 340.556 475.431 340.556C475.493 340.556 475.554 340.539 475.607 340.508L489.191 332.666C489.245 332.635 489.29 332.59 489.321 332.537C489.352 332.483 489.368 332.422 489.368 332.36C489.368 332.298 489.352 332.237 489.321 332.184C489.29 332.13 489.245 332.086 489.191 332.055V332.055Z" fill="white"/>
<path d="M151.611 188.652C149.178 188.652 146.846 189.619 145.126 191.338C143.407 193.058 142.44 195.39 142.44 197.823V383.059C142.44 385.491 143.407 387.824 145.126 389.543C146.846 391.263 149.178 392.229 151.611 392.229H434.305C436.737 392.229 439.069 391.263 440.789 389.543C442.508 387.824 443.475 385.491 443.475 383.059V197.823C443.475 195.39 442.508 193.058 440.789 191.338C439.069 189.619 436.737 188.652 434.305 188.652H151.611Z" fill="white" stroke="#CCCCCC" stroke-width="10" stroke-linejoin="round"/>
<path d="M407.305 375.318C416.717 375.318 424.346 367.688 424.346 358.276C424.346 348.864 416.717 341.234 407.305 341.234C397.893 341.234 390.263 348.864 390.263 358.276C390.263 367.688 397.893 375.318 407.305 375.318Z" fill="#CCCCCC"/>
<path d="M416.156 357.97L402.572 350.128C402.518 350.097 402.458 350.08 402.396 350.08C402.334 350.08 402.273 350.097 402.219 350.128C402.166 350.159 402.121 350.203 402.09 350.257C402.059 350.31 402.043 350.371 402.043 350.433V366.119C402.043 366.181 402.059 366.242 402.09 366.295C402.121 366.349 402.166 366.393 402.219 366.424C402.273 366.455 402.334 366.471 402.396 366.471C402.458 366.471 402.518 366.455 402.572 366.424L416.156 358.581C416.21 358.55 416.254 358.506 416.285 358.452C416.316 358.399 416.333 358.338 416.333 358.276C416.333 358.214 416.316 358.153 416.285 358.1C416.254 358.046 416.21 358.001 416.156 357.97L402.572 350.128C402.518 350.097 402.458 350.08 402.396 350.08C402.334 350.08 402.273 350.097 402.219 350.128C402.166 350.159 402.121 350.203 402.09 350.257C402.059 350.31 402.043 350.371 402.043 350.433V366.119C402.043 366.181 402.059 366.242 402.09 366.295C402.121 366.349 402.166 366.393 402.219 366.424C402.273 366.455 402.334 366.472 402.396 366.472C402.458 366.472 402.518 366.455 402.572 366.424L416.156 358.581C416.21 358.55 416.254 358.506 416.285 358.452C416.316 358.399 416.333 358.338 416.333 358.276C416.333 358.214 416.316 358.153 416.285 358.1C416.254 358.046 416.21 358.001 416.156 357.97Z" fill="white"/>
<path d="M79.9889 218.338C77.5569 218.338 75.2244 219.304 73.5047 221.024C71.785 222.743 70.8188 225.076 70.8188 227.508V412.744C70.8188 415.176 71.785 417.509 73.5047 419.229C75.2244 420.948 77.5569 421.915 79.9889 421.915H362.683C363.887 421.915 365.08 421.677 366.192 421.216C367.305 420.756 368.316 420.08 369.167 419.229C370.019 418.377 370.694 417.366 371.155 416.254C371.616 415.141 371.853 413.949 371.853 412.744V227.508C371.853 226.304 371.616 225.111 371.155 223.999C370.694 222.886 370.019 221.875 369.167 221.024C368.316 220.172 367.305 219.497 366.192 219.036C365.08 218.575 363.887 218.338 362.683 218.338H79.9889Z" fill="white" stroke="#CCCCCC" stroke-width="10" stroke-linejoin="round"/>
<path d="M279.59 352.018C278.477 352.017 277.377 351.783 276.361 351.33C276.125 351.225 275.899 351.097 275.688 350.947L255.143 336.486C254.101 335.752 253.251 334.779 252.663 333.648C252.076 332.517 251.77 331.262 251.77 329.988V310.265C251.77 308.991 252.076 307.735 252.663 306.604C253.251 305.473 254.101 304.5 255.143 303.767L275.688 289.305C275.899 289.156 276.124 289.027 276.361 288.922C277.571 288.384 278.897 288.157 280.217 288.262C281.537 288.366 282.811 288.799 283.921 289.52C285.032 290.242 285.944 291.23 286.576 292.394C287.208 293.558 287.539 294.861 287.539 296.186V344.067C287.539 346.175 286.701 348.197 285.211 349.687C283.72 351.178 281.698 352.016 279.59 352.016L279.59 352.018Z" fill="#07BD11"/>
<path d="M233.61 355.896H176.309C164.619 355.886 155.145 348.329 155.133 339.004V301.248C155.145 291.923 164.619 284.366 176.309 284.357H233.76C245.367 284.368 254.773 291.87 254.787 301.129V339.004C254.775 348.329 245.301 355.886 233.61 355.896Z" fill="#07BD11"/>
<path d="M335.682 405.003C345.094 405.003 352.724 397.373 352.724 387.961C352.724 378.549 345.094 370.919 335.682 370.919C326.271 370.919 318.641 378.549 318.641 387.961C318.641 397.373 326.271 405.003 335.682 405.003Z" fill="#CCCCCC"/>
<path d="M344.534 387.656L330.95 379.813C330.896 379.782 330.836 379.766 330.774 379.766C330.712 379.766 330.651 379.782 330.597 379.813C330.544 379.844 330.499 379.888 330.468 379.942C330.437 379.996 330.421 380.057 330.421 380.118V395.804C330.421 395.866 330.437 395.927 330.468 395.98C330.499 396.034 330.544 396.079 330.597 396.11C330.651 396.141 330.712 396.157 330.774 396.157C330.836 396.157 330.896 396.141 330.95 396.11L344.534 388.267C344.588 388.236 344.632 388.191 344.663 388.138C344.694 388.084 344.711 388.023 344.711 387.961C344.711 387.899 344.694 387.839 344.663 387.785C344.632 387.731 344.588 387.687 344.534 387.656L330.95 379.813C330.896 379.782 330.836 379.766 330.774 379.766C330.712 379.766 330.651 379.782 330.597 379.813C330.544 379.844 330.499 379.888 330.468 379.942C330.437 379.996 330.421 380.057 330.421 380.118V395.804C330.421 395.866 330.437 395.927 330.468 395.98C330.499 396.034 330.544 396.079 330.597 396.11C330.651 396.141 330.712 396.157 330.774 396.157C330.836 396.157 330.896 396.141 330.95 396.11L344.534 388.267C344.588 388.236 344.632 388.191 344.663 388.138C344.694 388.084 344.711 388.023 344.711 387.961C344.711 387.899 344.694 387.839 344.663 387.785C344.632 387.731 344.588 387.687 344.534 387.656V387.656Z" fill="white"/>
</svg>
