<svg width="1068" height="824" viewBox="0 0 1068 824" fill="none" xmlns="http://www.w3.org/2000/svg">
<path d="M352.167 530.195C405.85 530.195 449.368 486.677 449.368 432.995C449.368 379.312 405.85 335.794 352.167 335.794C298.485 335.794 254.967 379.312 254.967 432.995C254.967 486.677 298.485 530.195 352.167 530.195Z" fill="#E6E6E6"/>
<path d="M325.906 574.933L349.816 589.749V489.598L323.015 472.99C320.8 471.617 319.181 469.462 318.479 466.952V466.952C321.039 466.463 323.69 466.953 325.906 468.326L349.816 483.142V444.307C349.816 436.794 350.737 429.309 352.559 422.02C354.381 429.309 355.303 436.794 355.303 444.307V507.694L390.577 485.836C393.393 484.09 396.652 483.191 399.965 483.246C398.539 486.237 396.284 488.755 393.467 490.5L355.303 514.149V753H349.816V596.205L323.015 579.597C320.8 578.224 319.181 576.069 318.479 573.559V573.559C321.039 573.07 323.69 573.56 325.906 574.933V574.933Z" fill="#CCCCCC"/>
<path d="M208.2 538.448C261.883 538.448 305.401 494.93 305.401 441.247C305.401 387.565 261.883 344.047 208.2 344.047C154.518 344.047 111 387.565 111 441.247C111 494.93 154.518 538.448 208.2 538.448Z" fill="#E6E6E6"/>
<path d="M234.462 583.186L210.552 598.002V497.85L237.352 481.243C239.568 479.87 241.187 477.715 241.888 475.205C239.328 474.715 236.677 475.206 234.462 476.579L210.552 491.395V452.559C210.552 445.046 209.63 437.562 207.808 430.273C205.986 437.562 205.065 445.046 205.065 452.559V515.947L169.791 494.089C166.974 492.343 163.715 491.444 160.402 491.499C161.828 494.49 164.084 497.008 166.901 498.753L205.065 522.402V751.523H210.552V604.457L237.352 587.85C239.568 586.477 241.187 584.322 241.888 581.812C239.328 581.322 236.678 581.813 234.462 583.186Z" fill="#CCCCCC"/>
<path d="M278.808 405.709C371.236 405.709 446.163 330.782 446.163 238.355C446.163 145.927 371.236 71 278.808 71C186.381 71 111.454 145.927 111.454 238.355C111.454 330.782 186.381 405.709 278.808 405.709Z" fill="#E6E6E6"/>
<path d="M324.024 482.737L282.857 508.247V335.811L329 307.217C332.815 304.853 335.603 301.143 336.811 296.82L336.811 296.82H336.811C332.403 295.978 327.839 296.823 324.024 299.187L282.857 324.696V257.831C282.857 244.895 281.271 232.009 278.134 219.46C274.996 232.009 273.41 244.895 273.41 257.831V366.968L212.677 329.334C207.828 326.329 202.217 324.781 196.512 324.874C198.968 330.024 202.851 334.359 207.701 337.364L273.41 378.082V751.89H282.857V519.361L329 490.767C332.815 488.403 335.603 484.693 336.811 480.37L336.811 480.37H336.811C332.403 479.528 327.839 480.373 324.024 482.737V482.737Z" fill="#CCCCCC"/>
<path d="M957.578 751.583H144.578V753.583H957.578V751.583Z" fill="#3F3D56"/>
<path d="M753.924 231.995H751.654V118.035C751.654 107.694 747.546 97.7767 740.234 90.4647C732.922 83.1527 723.005 79.0449 712.664 79.0449H458.874C448.533 79.0449 438.616 83.1527 431.304 90.4647C423.992 97.7767 419.884 107.694 419.884 118.035V167.965H419.024C418.417 167.965 417.834 168.206 417.405 168.636C416.975 169.065 416.734 169.647 416.734 170.255V192.585C416.734 193.192 416.975 193.775 417.405 194.204C417.834 194.634 418.417 194.875 419.024 194.875H419.884V217.225H418.824C418.523 217.225 418.225 217.284 417.948 217.399C417.67 217.514 417.417 217.683 417.205 217.896C416.992 218.108 416.823 218.361 416.708 218.639C416.593 218.916 416.534 219.214 416.534 219.515V261.775C416.534 262.382 416.775 262.965 417.205 263.394C417.634 263.823 418.217 264.065 418.824 264.065H419.884V280.455H418.924C418.623 280.455 418.325 280.514 418.048 280.629C417.77 280.744 417.517 280.913 417.305 281.125C417.092 281.338 416.923 281.59 416.808 281.868C416.693 282.146 416.634 282.444 416.634 282.744V325.405C416.634 326.012 416.875 326.595 417.305 327.024C417.734 327.453 418.317 327.695 418.924 327.695H419.884V714.325C419.884 724.666 423.992 734.583 431.304 741.895C438.616 749.207 448.533 753.315 458.874 753.315H712.664C723.005 753.315 732.922 749.207 740.234 741.895C747.546 734.583 751.654 724.666 751.654 714.325V313.725H753.924C754.531 313.725 755.114 313.484 755.543 313.054C755.973 312.625 756.214 312.042 756.214 311.435V234.285C756.214 233.677 755.973 233.095 755.543 232.665C755.114 232.236 754.531 231.995 753.924 231.995Z" fill="#3F3D56"/>
<path d="M596.224 109.084H557.634C556.475 109.083 555.365 108.623 554.545 107.803C553.726 106.984 553.265 105.874 553.264 104.715V103.044C553.265 101.886 553.726 100.775 554.545 99.9562C555.365 99.1371 556.475 98.6764 557.634 98.6752H596.224C597.382 98.6764 598.493 99.1371 599.312 99.9562C600.131 100.775 600.592 101.886 600.594 103.044V104.715C600.592 105.874 600.131 106.984 599.312 107.803C598.493 108.623 597.382 109.083 596.224 109.084V109.084Z" fill="white"/>
<path d="M612.434 109.225C615.383 109.225 617.774 106.834 617.774 103.885C617.774 100.936 615.383 98.5449 612.434 98.5449C609.485 98.5449 607.094 100.936 607.094 103.885C607.094 106.834 609.485 109.225 612.434 109.225Z" fill="white"/>
<path d="M704.814 96.6049H666.814V101.175C666.814 106.93 664.528 112.45 660.458 116.519C656.388 120.589 650.869 122.875 645.114 122.875H524.054C521.205 122.876 518.385 122.316 515.753 121.228C513.121 120.139 510.729 118.542 508.714 116.529C506.699 114.516 505.1 112.126 504.009 109.494C502.917 106.863 502.355 104.043 502.354 101.195V96.6049H466.724C459.735 96.6049 453.033 99.381 448.092 104.323C443.15 109.264 440.374 115.966 440.374 122.955V122.955V709.395C440.374 716.383 443.15 723.086 448.092 728.027C453.033 732.969 459.735 735.745 466.724 735.745H704.814C711.8 735.745 718.499 732.97 723.439 728.03C728.379 723.09 731.154 716.391 731.154 709.405V122.955C731.155 119.496 730.475 116.07 729.153 112.874C727.83 109.678 725.891 106.774 723.446 104.327C721.001 101.88 718.098 99.9386 714.903 98.6137C711.708 97.2888 708.283 96.6062 704.824 96.6049H704.814Z" fill="white"/>
<path d="M636.764 664.583H534.764C527.47 664.583 520.476 661.686 515.318 656.529C510.161 651.372 507.264 644.377 507.264 637.083C507.264 629.79 510.161 622.795 515.318 617.638C520.476 612.481 527.47 609.583 534.764 609.583H636.764C644.058 609.583 651.053 612.481 656.21 617.638C661.367 622.795 664.264 629.79 664.264 637.083C664.264 644.377 661.367 651.372 656.21 656.529C651.053 661.686 644.058 664.583 636.764 664.583V664.583Z" fill="#9AB0C3"/>
<path d="M676.764 438.695H494.764C492.244 438.695 489.828 437.694 488.046 435.912C486.265 434.131 485.264 431.714 485.264 429.195C485.264 426.675 486.265 424.259 488.046 422.477C489.828 420.696 492.244 419.695 494.764 419.695H676.764C679.284 419.695 681.7 420.696 683.482 422.477C685.264 424.259 686.264 426.675 686.264 429.195C686.264 431.714 685.264 434.131 683.482 435.912C681.7 437.694 679.284 438.695 676.764 438.695V438.695Z" fill="#E6E6E6"/>
<path d="M676.764 466.695H494.764C492.244 466.695 489.828 465.694 488.046 463.912C486.265 462.131 485.264 459.714 485.264 457.195C485.264 454.675 486.265 452.259 488.046 450.477C489.828 448.696 492.244 447.695 494.764 447.695H676.764C679.284 447.695 681.7 448.696 683.482 450.477C685.264 452.259 686.264 454.675 686.264 457.195C686.264 459.714 685.264 462.131 683.482 463.912C681.7 465.694 679.284 466.695 676.764 466.695V466.695Z" fill="#E6E6E6"/>
<path d="M676.764 494.695H494.764C492.244 494.695 489.828 493.694 488.046 491.912C486.265 490.131 485.264 487.714 485.264 485.195C485.264 482.675 486.265 480.259 488.046 478.477C489.828 476.696 492.244 475.695 494.764 475.695H676.764C679.284 475.695 681.7 476.696 683.482 478.477C685.264 480.259 686.264 482.675 686.264 485.195C686.264 487.714 685.264 490.131 683.482 491.912C681.7 493.694 679.284 494.695 676.764 494.695V494.695Z" fill="#E6E6E6"/>
<path d="M676.764 522.695H494.764C492.244 522.695 489.828 521.694 488.046 519.912C486.265 518.131 485.264 515.714 485.264 513.195C485.264 510.675 486.265 508.259 488.046 506.477C489.828 504.696 492.244 503.695 494.764 503.695H676.764C679.284 503.695 681.7 504.696 683.482 506.477C685.264 508.259 686.264 510.675 686.264 513.195C686.264 515.714 685.264 518.131 683.482 519.912C681.7 521.694 679.284 522.695 676.764 522.695V522.695Z" fill="#E6E6E6"/>
<path d="M552.764 550.695H494.764C492.244 550.695 489.828 549.694 488.046 547.912C486.265 546.131 485.264 543.714 485.264 541.195C485.264 538.675 486.265 536.259 488.046 534.477C489.828 532.696 492.244 531.695 494.764 531.695H552.764C555.284 531.695 557.7 532.696 559.482 534.477C561.264 536.259 562.264 538.675 562.264 541.195C562.264 543.714 561.264 546.131 559.482 547.912C557.7 549.694 555.284 550.695 552.764 550.695H552.764Z" fill="#E6E6E6"/>
<path d="M705.25 360.844H466.278C464.166 360.841 462.14 360.001 460.646 358.507C459.153 357.014 458.312 354.988 458.31 352.876V175.514C458.312 173.401 459.153 171.376 460.646 169.882C462.14 168.389 464.166 167.548 466.278 167.546H705.25C707.362 167.548 709.387 168.389 710.881 169.882C712.375 171.376 713.215 173.401 713.218 175.514V352.876C713.215 354.988 712.375 357.013 710.881 358.507C709.387 360.001 707.362 360.841 705.25 360.844V360.844Z" fill="#E6E6E6"/>
<g opacity="0.1">
<path opacity="0.1" d="M747.578 310.215C747.578 308.842 747.578 307.461 747.578 306.075C747.523 307.144 747.523 308.216 747.578 309.285C747.568 309.595 747.578 309.905 747.578 310.215Z" fill="black"/>
</g>
<path d="M787.442 388.849C801.933 388.849 813.681 377.102 813.681 362.61C813.681 348.119 801.933 336.372 787.442 336.372C772.951 336.372 761.203 348.119 761.203 362.61C761.203 377.102 772.951 388.849 787.442 388.849Z" fill="#FFB8B8"/>
<path d="M855.685 575.376C856.709 574.439 857.515 573.288 858.046 572.005C858.577 570.722 858.82 569.338 858.759 567.951C858.697 566.564 858.332 565.208 857.69 563.977C857.047 562.746 856.143 561.671 855.04 560.827L851.462 529.047L831.537 534.486L841.238 563.09C839.944 565.036 839.409 567.39 839.735 569.705C840.06 572.02 841.223 574.135 843.004 575.65C844.785 577.164 847.059 577.973 849.396 577.922C851.733 577.872 853.971 576.966 855.685 575.376V575.376Z" fill="#FFB8B8"/>
<path d="M870.242 736.281L881.24 729.168L859.036 683.365L842.805 693.864L870.242 736.281Z" fill="#FFB8B8"/>
<path d="M909.054 725.661L874.491 748.017L865.853 734.664L887.562 720.622C889.25 719.53 891.136 718.782 893.114 718.419C895.091 718.056 897.121 718.086 899.086 718.508C901.052 718.929 902.916 719.734 904.57 720.876C906.225 722.017 907.639 723.474 908.731 725.162L909.054 725.661V725.661Z" fill="#2F2E41"/>
<path d="M772.851 740.936H785.948L792.181 690.418H772.851V740.936Z" fill="#FFB8B8"/>
<path d="M811.207 753.097H770.044V737.194H795.898C799.958 737.194 803.852 738.807 806.723 741.678C809.594 744.549 811.207 748.443 811.207 752.503V753.097V753.097Z" fill="#2F2E41"/>
<path d="M825.416 414.71C823.674 420.381 829.848 426.555 831.841 432.129C833.834 437.703 836.516 443.067 837.593 448.9C838.331 452.911 855.038 541.5 854.235 546.894C849.092 545.353 843.553 545.861 838.776 548.312C835.439 542.45 833.433 535.924 832.902 529.199C832.701 525.212 832.739 521.216 833.016 517.233C833.534 505.963 828.649 494.677 828.487 483.399C828.537 479.49 828.228 475.584 827.563 471.732C827.028 469.083 827.077 464.124 826.502 461.483C825.586 457.286 829.524 455.35 829.305 451.047L828.106 427.552C827.855 423.436 823.723 418.388 825.416 414.71Z" fill="#2F2E41"/>
<path d="M766.177 513.29C761.966 519.859 753.102 521.28 746.901 525.986C737.426 533.219 761.598 695.716 769.578 724.583C790.634 721.425 791.371 721.436 793.792 720.372C796.213 719.309 798.403 636.772 803.52 619.758C813.095 628.782 843.231 706.339 849.59 723.531C874.857 717.214 849.59 723.531 882.227 715.108C881.953 709.15 833.998 514.985 832.25 499.688C810.31 504.057 788.054 508.931 766.177 513.29Z" fill="#2F2E41"/>
<path d="M763.338 391.271C760.737 398.976 764.278 428.953 764.537 435.694C764.91 441.813 764.91 447.95 764.537 454.069C763.638 464.667 760.486 475.337 762.601 485.756C763.986 492.651 766.449 499.06 767.025 506.076C767.413 510.937 767.292 515.88 768.831 520.49C774.503 518.059 824.784 509.704 828.478 504.845C825.95 492.635 828.397 480.028 826.72 467.673C825.748 460.551 823.342 453.697 822.207 446.607C820.806 437.857 821.397 428.783 818.845 420.284C817.43 415.981 815.632 411.813 813.473 407.831C811.276 403.302 808.521 399.582 807.578 399.583C805.188 399.713 763.49 390.584 763.338 391.271Z" fill="white"/>
<path d="M753.713 574.717C753.713 574.717 762.431 557.322 762.868 547.372C763.022 543.799 772.81 529.58 777.217 526.356C787.669 518.699 795.374 467.381 791.841 454.928C785.732 433.401 775.443 413.333 764.999 393.547C764.688 392.809 764.184 392.169 763.541 391.692C761.418 390.371 759.117 392.972 757.667 395.006C752.749 401.901 744.647 405.587 737.225 409.662C729.804 413.738 722.212 419.166 719.968 427.325C718.461 432.802 719.636 438.611 720.778 444.161C721.921 449.711 725.915 454.118 728.937 458.793C732.44 463.952 741.54 486.833 741.471 489.548C741.649 506.336 741.819 523.18 739.786 539.854C738.643 549.276 737.639 568.211 737.639 568.211L753.713 574.717Z" fill="#2F2E41"/>
<path d="M832.886 556.73C816.836 520.198 817.735 478.627 807.535 440.061C804.505 428.613 800.454 417.108 801.183 405.287C801.312 403.173 801.758 400.799 803.524 399.616C805.096 398.563 807.235 398.846 808.961 399.616C810.687 400.385 812.161 401.641 813.822 402.5C816.504 403.869 819.623 404.258 822.2 405.806C826.024 408.107 827.976 412.482 829.686 416.598C833.34 425.388 836.978 434.422 837.269 443.95C837.885 462.455 829.678 480.239 833.956 498.234C834.878 501.782 835.982 505.281 837.261 508.718C841.55 521.13 845.068 533.796 847.794 546.643C848.272 548.839 833.559 558.27 832.886 556.73Z" fill="#2F2E41"/>
<path d="M781.933 548.086C782.148 546.714 782.059 545.312 781.673 543.979C781.287 542.645 780.614 541.412 779.7 540.367C778.786 539.321 777.654 538.489 776.383 537.929C775.113 537.368 773.735 537.093 772.347 537.123L749.713 514.529L737.543 531.216L762.977 547.506C763.182 549.835 764.233 552.008 765.933 553.613C767.632 555.218 769.861 556.144 772.198 556.216C774.534 556.287 776.816 555.499 778.61 554.001C780.404 552.502 781.587 550.398 781.933 548.086V548.086Z" fill="#FFB8B8"/>
<path d="M709.816 496.775C710.189 500.17 738.704 535.972 754.199 547.656C753.3 543.046 765.445 528.008 769.374 525.659C759.555 516.396 739.038 494.911 738.36 493.737C736.14 489.451 738.36 484.33 740.296 479.899C746.397 465.809 749.273 449.824 745.36 434.973C743.885 429.399 741.309 423.816 736.618 420.389C734.568 418.899 731.797 417.878 729.52 419.012C728.567 419.561 727.739 420.303 727.09 421.191C719.822 430.031 709.541 494.255 709.816 496.775Z" fill="#2F2E41"/>
<path d="M776.258 385.57C777.79 379.07 770.046 365.084 771.578 358.583C772.615 354.181 782.966 357.174 785.382 353.35C787.798 349.527 791.844 346.43 796.366 346.379C801.564 346.32 806.679 350.176 811.603 348.51C816.582 346.825 818.173 340.007 815.972 335.234C813.771 330.461 809.029 327.419 804.344 325.036C796.367 320.978 787.078 318.014 778.54 320.699C773.378 322.322 769.063 325.839 764.887 329.279C761.08 332.415 757.209 335.622 754.547 339.774C749.334 347.909 749.649 358.87 754.104 367.443C758.559 376.017 766.677 382.309 775.622 385.961" fill="#2F2E41"/>
</svg>
