<svg width="48" height="48" viewBox="0 0 48 48" fill="none" xmlns="http://www.w3.org/2000/svg">
<path fill-rule="evenodd" clip-rule="evenodd" d="M10 0H38C43.524 0 48 4.478 48 10V38C48 43.522 43.524 48 38 48H10C4.478 48 0 43.522 0 38V10C0 4.478 4.478 0 10 0ZM28.75 35.9011V41.1143C28.75 41.6201 29.0564 42.2115 30.0182 42.0262C37.5636 39.5111 43 32.3909 43 24C43 13.5049 34.4928 5 24 5C13.5072 5 5 13.5049 5 24C5 32.3932 10.4435 39.5159 17.996 42.0262C18.9436 42.202 19.25 41.613 19.25 41.1119V37.5755C13.9656 38.725 12.866 35.3335 12.866 35.3335C12.0015 33.139 10.7546 32.5547 10.7546 32.5547C9.03275 31.3744 10.8853 31.3981 10.8853 31.3981C12.7948 31.5335 13.7994 33.3575 13.7994 33.3575C15.4951 36.2621 18.243 35.4238 19.3284 34.9393C19.4994 33.709 19.991 32.873 20.5349 32.398C16.3121 31.9159 11.878 30.2843 11.878 23.0072C11.878 20.9315 12.619 19.2381 13.835 17.9081C13.6379 17.426 12.9871 15.4951 14.0179 12.8779C14.0179 12.8779 15.6139 12.3672 19.2429 14.8254C20.7605 14.4026 22.385 14.1936 24 14.1865C25.615 14.196 27.2395 14.4026 28.7595 14.8301C32.3861 12.372 33.9798 12.8826 33.9798 12.8826C35.0129 15.4975 34.3621 17.4307 34.1674 17.9105C35.381 19.2381 36.122 20.9339 36.122 23.0096C36.122 30.3056 31.676 31.9135 27.4438 32.3838C28.1278 32.9728 28.75 34.127 28.75 35.9011Z" fill="white"/>
</svg>
