<svg width="48" height="48" viewBox="0 0 48 48" fill="none" xmlns="http://www.w3.org/2000/svg">
<path fill-rule="evenodd" clip-rule="evenodd" d="M0 8C0 3.58172 3.58172 0 8 0H40C44.4183 0 48 3.58172 48 8V40C48 44.4183 44.4183 48 40 48H8C3.58172 48 0 44.4183 0 40V8ZM11.4946 38.2977C18.6563 44.5617 29.3474 44.5617 36.5092 38.2977C39.4804 35.2714 29.6699 24.5109 23.999 20.2231C18.3281 24.5109 8.51758 35.2714 11.4946 38.2977ZM38.7813 35.942C41.0117 31.827 33.1199 20.187 29.1627 15.5002V15.4907C33.6272 11.0395 35.8328 10.3517 36.7713 10.3517C36.9226 10.3499 37.073 10.3743 37.2159 10.4239C37.2621 10.4394 37.3056 10.4619 37.3451 10.4904C44.2947 17.344 44.9157 28.3501 38.7813 35.942ZM10.7859 10.4239C10.7378 10.4405 10.6919 10.4629 10.6491 10.4904C3.7072 17.3429 3.08633 28.3404 9.2129 35.9306C6.99584 31.8061 14.88 20.1756 18.8392 15.4907C14.3746 11.0376 12.1652 10.3612 11.24 10.3612C11.0885 10.3555 10.9373 10.38 10.7954 10.4334L10.7859 10.4239ZM15.695 7.76423C18.6245 8.15433 21.4473 9.12301 23.999 10.6139V10.612C26.5517 9.12343 29.374 8.15552 32.303 7.76423C33.1404 7.70438 33.9771 7.8906 34.7101 8.29997C31.5539 6.14563 27.8203 4.99537 23.999 5.00002H23.9743C20.1604 4.99393 16.4344 6.14454 13.288 8.29997C14.0218 7.89298 14.8578 7.70692 15.695 7.76423Z" fill="white"/>
</svg>
