<svg width="48" height="48" viewBox="0 0 48 48" fill="none" xmlns="http://www.w3.org/2000/svg">
<path fill-rule="evenodd" clip-rule="evenodd" d="M38 48H10C4.478 48 0 43.522 0 38V10C0 4.478 4.478 0 10 0H38C43.524 0 48 4.478 48 10V38C48 43.522 43.524 48 38 48ZM40.2901 37.9183C41.7864 37.9183 43 36.7022 43 35.206V13.7122C43 12.216 41.7864 11 40.2901 11H7.70988C6.21362 11 5 12.216 5 13.7122V35.206C5 36.7022 6.21362 37.9183 7.70988 37.9183H40.2901ZM24 28.2805L9.2085 18.0181L9.17525 36.3341H38.7606V18.0181L24 28.2805ZM38.0434 12.5841C33.899 15.4697 24 22.4475 24 22.4475L9.87588 12.5841H38.0434Z" fill="white"/>
</svg>
