<?xml version="1.0" encoding="UTF-8"?>
<svg width="49px" height="49px" viewBox="0 0 49 49" version="1.1" xmlns="http://www.w3.org/2000/svg" xmlns:xlink="http://www.w3.org/1999/xlink">
    <!-- Generator: Sketch 55 (78076) - https://sketchapp.com -->
    <title>早</title>
    <desc>Created with Sketch.</desc>
    <g id="页面1" stroke="none" stroke-width="1" fill="none" fill-rule="evenodd">
        <g id="Home" transform="translate(-363.000000, -60.000000)">
            <g id="早" transform="translate(363.000000, 60.000000)">
                <path d="M46.375,38.5 L10.325,38.5 C10.325,38.325 10.325,38.325 10.1500001,38.15 C9.27500002,36.05 8.75000003,33.95 8.75000003,31.5 C8.75000003,22.7499999 15.75,15.75 24.5,15.75 C27.125,15.75 29.575,16.45 31.85,17.5 C33.25,18.2 34.65,19.25 35.875,20.475 C38.6986016,23.449529 40.2657504,27.398744 40.25,31.5 C40.25,32.9 41.475,34.125 42.875,34.125 C44.275,34.125 45.5,33.075 45.5,31.5 C45.5,26.075 43.4,20.825 39.55,16.975 C37.975,15.4 36.225,14 34.3,12.95 C31.325,11.375 28,10.5 24.5,10.5 C12.95,10.5 3.50000003,19.95 3.50000001,31.5 C3.50000003,33.95 3.85000006,36.225 4.725,38.5 L2.62500001,38.5 C1.22499998,38.5 9.94766225e-09,39.725 9.94766225e-09,41.125 C9.94766225e-09,42.525 1.22499998,43.75 2.62500001,43.75 L46.375,43.75 C47.775,43.75 49,42.525 49,41.125 C49,39.725 47.775,38.5 46.375,38.5 L46.375,38.5 Z M41.125,45.5 L7.875,45.5 C6.825,45.5 6.12500003,46.1999999 6.12500003,47.2499999 C6.12500003,48.2999999 6.825,48.9999999 7.875,49 L41.125,49 C42.175,49 42.875,48.3 42.875,47.2499999 C42.875,46.1999999 42.175,45.5 41.125,45.5 Z M24.5,8.75000002 C25.55,8.75000002 26.25,8.05000005 26.25,7 L26.25,1.75000005 C26.25,0.700000054 25.55,8.20312497e-08 24.5,0 C23.45,-8.20312497e-08 22.75,0.699999972 22.75,1.75000005 L22.75,7 C22.75,8.05000005 23.45,8.75000002 24.5,8.75000002 Z M43.75,17.5 C44.275,17.5 44.625,17.3250001 44.975,16.975 L48.475,13.475 C49.175,12.775 49.175,11.725 48.475,11.025 C47.775,10.3249999 46.725,10.325 46.025,11.025 L42.525,14.525 C41.825,15.225 41.825,16.275 42.525,16.975 C42.875,17.3250001 43.2249999,17.5 43.75,17.5 L43.75,17.5 Z M4.02500003,16.975 C4.37500006,17.3250001 4.90000006,17.5 5.25,17.5 C5.59999995,17.5 6.12500003,17.3250001 6.47500006,16.975 C7.17500003,16.2750001 7.17500003,15.2250001 6.47500006,14.525 L2.97500003,11.025 C2.27500006,10.325 1.22500006,10.325 0.52500001,11.025 C-0.175000044,11.725 -0.174999962,12.775 0.52500001,13.475 L4.02500003,16.975 Z" id="形状" fill="#2F2F2F" fill-rule="nonzero"></path>
                <path d="M38,32.5 C37.26535,23.5 32.76535,19 24.5,19 C16.23465,19 11.73465,23.5 11,32.5 L38,32.5 Z" id="椭圆形" fill="#FAD698"></path>
            </g>
        </g>
    </g>
</svg>