<svg width="18" height="18" viewBox="0 0 18 18" fill="none" xmlns="http://www.w3.org/2000/svg">
<path d="M17.0975 0H0.90253C0.404873 0 0 0.578313 0 1.28916C0 2 0.404873 2.57831 0.90253 2.57831H17.0975C17.5951 2.57831 18 2 18 1.28916C18 0.578313 17.5951 0 17.0975 0ZM17.0975 7.71888H0.90253C0.404873 7.71888 0 8.29719 0 9.00803C0 9.71887 0.404873 10.2972 0.90253 10.2972H17.0975C17.5951 10.2972 18 9.71887 18 9.00803C18 8.29719 17.5951 7.71888 17.0975 7.71888ZM17.0975 15.4217H0.90253C0.404873 15.4217 0 16 0 16.7108C0 17.4217 0.404873 18 0.90253 18H17.0975C17.5951 18 18 17.4217 18 16.7108C18 16 17.5951 15.4217 17.0975 15.4217Z" fill="white"/>
</svg>
