<svg width="44" height="44" viewBox="0 0 44 44" fill="none" xmlns="http://www.w3.org/2000/svg">
<path d="M41.7112 33.1197H1.44083C0.695785 33.1197 0.0959473 32.5199 0.0959473 31.7783C0.0959473 31.0367 0.695785 30.4368 1.44083 30.4368H6.36226C5.76882 28.4785 5.46768 26.4433 5.46856 24.397C5.46856 12.9033 14.7825 3.58936 26.2727 3.58936C29.7542 3.58936 33.0334 4.45713 35.9185 5.96969C27.5917 8.69057 21.576 16.5057 21.576 25.7384C21.576 27.3599 21.8059 28.9226 22.1551 30.4386H41.7112C42.4528 30.4386 43.0526 31.0384 43.0526 31.78C43.0526 32.5199 42.4528 33.1197 41.7112 33.1197ZM29.6297 6.27566C26.8155 5.57729 22.4524 5.93858 18.8897 7.61708C14.0167 10.3673 8.14968 13.7814 8.14968 24.6995C8.14968 26.6961 8.53343 28.2916 9.49456 30.4368H19.187C18.9537 28.9986 18.7998 27.512 18.7998 25.9718C18.7998 17.2041 24.1258 8.85998 29.6297 6.27566ZM6.80825 35.806H25.602C26.3436 35.806 26.9434 36.4058 26.9434 37.1474C26.9434 37.8925 26.3436 38.4923 25.602 38.4923H6.80825C6.06667 38.4923 5.46683 37.8925 5.46683 37.1474C5.46856 36.4076 6.06839 35.806 6.80825 35.806ZM9.49456 41.1734H22.9174C23.659 41.1734 24.2589 41.7785 24.2589 42.5183C24.2589 42.8741 24.1175 43.2153 23.866 43.4668C23.6144 43.7184 23.2732 43.8597 22.9174 43.8597H9.49456C8.74951 43.8597 8.14968 43.2599 8.14968 42.5183C8.14968 41.7785 8.74951 41.1734 9.49456 41.1734Z" fill="#231815"/>
<path d="M28.9997 6.50046C25.5 6.99988 22.5 11.9999 19.4997 18.5005C17.5 22.8331 18 28.0002 18.5 30.0001C17.5003 29.9995 12.0001 29.9999 10.5 30C8.5 28.4998 7.50001 19.9999 11 14.4998C15.2443 7.83018 25.5 5.49994 28.9997 6.50046Z" fill="#FAD698"/>
</svg>
