<?xml version="1.0" encoding="UTF-8"?>
<svg width="34px" height="20px" viewBox="0 0 34 20" version="1.1" xmlns="http://www.w3.org/2000/svg" xmlns:xlink="http://www.w3.org/1999/xlink">
    <!-- Generator: Sketch 55 (78076) - https://sketchapp.com -->
    <title>引号 (1)</title>
    <desc>Created with Sketch.</desc>
    <g id="页面1" stroke="none" stroke-width="1" fill="none" fill-rule="evenodd" opacity="0.5">
        <g id="Home" transform="translate(-375.000000, -180.000000)" fill="#6F8393" fill-rule="nonzero">
            <g id="编组-5" transform="translate(355.000000, 160.000000)">
                <g id="引号-(1)" transform="translate(20.000000, 20.000000)">
                    <path d="M28.8860148,6.23293442 C31.8894258,7.18017866 34,9.84830609 34,12.9344345 C34,16.8472948 30.6316089,20 26.5,20 C22.3675384,20 19,16.8472948 19,12.9344345 C19,12.2518119 19.1023309,11.5818304 19.3001706,10.9489297 L19.3948266,10.6312152 C20.9451393,5.70790493 25.4638999,2.55772795 30.0841387,1.06944208 L33.4013644,0 L30.9565094,2.4608124 C29.8393974,3.5858756 29.1537806,4.83735042 28.8860148,6.23293442 Z" id="路径"></path>
                    <path d="M9.88601479,6.23293442 C12.8894258,7.18017866 15,9.84830609 15,12.9344345 C15,16.8472948 11.6316089,20 7.5,20 C3.36753836,20 0,16.8472948 0,12.9344345 C0,12.2518119 0.10233086,11.5818304 0.300170555,10.9489297 L0.394826619,10.6312152 C1.94513929,5.70790493 6.46389995,2.55772795 11.0841387,1.06944208 L14.4013644,0 L11.9565094,2.4608124 C10.8393974,3.5858756 10.1537806,4.83735042 9.88601479,6.23293442 Z" id="路径"></path>
                </g>
            </g>
        </g>
    </g>
</svg>