<svg width="32" height="26" viewBox="0 0 32 26" fill="none" xmlns="http://www.w3.org/2000/svg">
<path d="M15.5324 16.6012C16.3404 17.6061 17.2346 18.5576 18.2846 19.3861C20.5979 21.2113 23.3254 22.1383 26.6148 22.2203L25.5156 23.3154C24.9373 23.8938 24.9373 24.8289 25.5156 25.4031C25.8027 25.6902 26.1801 25.8338 26.5615 25.8338C26.943 25.8338 27.3162 25.6902 27.6074 25.4031L31.0527 21.9578C31.3563 21.6543 31.4998 21.2523 31.4834 20.8545C31.6023 20.3705 31.4711 19.8373 31.0938 19.46L27.6484 16.0147C27.0701 15.4363 26.135 15.4363 25.5607 16.0147C24.9865 16.593 24.9824 17.5281 25.5607 18.1023L26.7256 19.2672C21.9104 19.1605 19.4617 16.9498 17.292 14.0541C16.9967 14.4725 16.7014 14.9072 16.3937 15.3502C16.1107 15.7686 15.8236 16.1828 15.5324 16.6012ZM10.7008 5.92891C8.26445 4.00938 5.36055 3.07422 1.8291 3.07422C1.01289 3.07422 0.352539 3.73457 0.352539 4.55078C0.352539 5.36699 1.01289 6.02734 1.8291 6.02734C7.79277 6.02734 10.2455 9.10352 12.8131 12.8154C13.3955 11.9664 13.9902 11.101 14.6301 10.2643C13.5145 8.70156 12.284 7.17578 10.7008 5.92891Z" fill="#D57474"/>
<path d="M31.5654 5.87983C31.5818 5.48198 31.4383 5.08003 31.1348 4.77651L27.6895 1.3312C27.1111 0.752881 26.176 0.752881 25.6018 1.3312C25.0234 1.90952 25.0234 2.84468 25.6018 3.4189L26.6969 4.51401C23.4074 4.59604 20.6799 5.5271 18.3666 7.34819C16.2707 9.00112 14.7941 11.1503 13.3709 13.2298C10.6146 17.2453 8.23984 20.7111 1.91113 20.7111C1.09492 20.7111 0.43457 21.3714 0.43457 22.1876C0.43457 23.0039 1.09492 23.6642 1.91113 23.6642C5.44258 23.6642 8.34648 22.7291 10.7828 20.8095C12.891 19.1484 14.3717 16.991 15.8031 14.9033C18.4896 10.9904 20.8152 7.59839 26.8035 7.46714L25.6387 8.63198C25.0604 9.2103 25.0604 10.1455 25.6387 10.7197C25.9258 11.0068 26.3031 11.1503 26.6846 11.1503C27.066 11.1503 27.4393 11.0068 27.7305 10.7197L31.1758 7.27436C31.5531 6.89702 31.6844 6.36382 31.5654 5.87983Z" fill="#245160"/>
</svg>
