<?xml version="1.0" standalone="no"?><!DOCTYPE svg PUBLIC "-//W3C//DTD SVG 1.1//EN" "http://www.w3.org/Graphics/SVG/1.1/DTD/svg11.dtd"><svg t="1663687132456" class="icon" viewBox="0 0 1024 1024" version="1.1" xmlns="http://www.w3.org/2000/svg" p-id="1505" xmlns:xlink="http://www.w3.org/1999/xlink" width="200" height="200"><path d="M556.586667 159.36l288.490666 183.914667A64 64 0 0 1 874.666667 397.248v392.746667a64 64 0 0 1-64 64H555.456l0.021333-196.992H490.666667v196.992H234.666667a64 64 0 0 1-64-64v-398.293334a64 64 0 0 1 30.272-54.4l287.530666-178.346666a64 64 0 0 1 68.138667 0.426666zM810.666667 790.016V397.226667L522.197333 213.333333 234.666667 391.68v398.336h192v-197.013333h192.810666v196.992H810.666667z" p-id="1506"></path></svg>