<?xml version="1.0" standalone="no"?><!DOCTYPE svg PUBLIC "-//W3C//DTD SVG 1.1//EN" "http://www.w3.org/Graphics/SVG/1.1/DTD/svg11.dtd"><svg t="1663687193406" class="icon" viewBox="0 0 1024 1024" version="1.1" xmlns="http://www.w3.org/2000/svg" p-id="3335" xmlns:xlink="http://www.w3.org/1999/xlink" width="200" height="200"><path d="M353.792 609.834667a128 128 0 1 1 60.330667 60.330666l-119.125334 119.210667 354.048-59.008 77.909334-272.768a42.666667 42.666667 0 0 1 10.88-18.432L793.002667 384 640 230.997333l-55.168 55.168a42.666667 42.666667 0 0 1-18.432 10.88L292.352 375.338667 233.728 648.96a42.666667 42.666667 0 1 1-83.456-17.92l64-298.666667a42.666667 42.666667 0 0 1 29.994667-32.085333l288.042666-82.261333 77.525334-77.525334a42.666667 42.666667 0 0 1 60.330666 0l213.333334 213.333334a42.666667 42.666667 0 0 1 0 60.330666l-77.525334 77.525334-82.261333 288a42.666667 42.666667 0 0 1-34.048 30.378666l-512 85.333334c-40.96 6.826667-66.517333-42.88-37.162667-72.234667l213.333334-213.333333zM469.333333 597.333333a42.666667 42.666667 0 1 0 0-85.333333 42.666667 42.666667 0 0 0 0 85.333333z" p-id="3336"></path></svg>