<?xml version="1.0" standalone="no"?><!DOCTYPE svg PUBLIC "-//W3C//DTD SVG 1.1//EN" "http://www.w3.org/Graphics/SVG/1.1/DTD/svg11.dtd"><svg t="1663687406305" class="icon" viewBox="0 0 1024 1024" version="1.1" xmlns="http://www.w3.org/2000/svg" p-id="8510" xmlns:xlink="http://www.w3.org/1999/xlink" width="200" height="200"><path d="M750.933333 68.266667H273.066667a136.533333 136.533333 0 0 0-136.533334 136.533333v614.4a136.533333 136.533333 0 0 0 136.533334 136.533333h375.466666a238.933333 238.933333 0 0 0 238.933334-238.933333V204.8a136.533333 136.533333 0 0 0-136.533334-136.533333zM204.8 819.2V204.8a68.266667 68.266667 0 0 1 68.266667-68.266667h477.866666a68.266667 68.266667 0 0 1 68.266667 68.266667v477.866667h-170.666667a34.133333 34.133333 0 0 0-34.133333 34.133333v170.666667H273.066667a68.266667 68.266667 0 0 1-68.266667-68.266667z m477.866667 64.853333V750.933333h133.12a170.666667 170.666667 0 0 1-133.12 133.12z" p-id="8511"></path><path d="M375.466667 375.466667h273.066666a34.133333 34.133333 0 0 0 0-68.266667h-273.066666a34.133333 34.133333 0 0 0 0 68.266667z m273.066666 204.8a34.133333 34.133333 0 0 0 0-68.266667h-273.066666a34.133333 34.133333 0 0 0 0 68.266667z" p-id="8512"></path></svg>