<?xml version="1.0" standalone="no"?><!DOCTYPE svg PUBLIC "-//W3C//DTD SVG 1.1//EN" "http://www.w3.org/Graphics/SVG/1.1/DTD/svg11.dtd"><svg t="1663687310253" class="icon" viewBox="0 0 1024 1024" version="1.1" xmlns="http://www.w3.org/2000/svg" p-id="6579" xmlns:xlink="http://www.w3.org/1999/xlink" width="200" height="200"><path d="M511.899716 948.506609c-241.310951 0-437.636339-196.318224-437.636339-437.636339 0-241.323231 196.325387-437.639408 437.636339-437.639408s437.636339 196.316178 437.636339 437.639408C949.536055 752.188384 753.210667 948.506609 511.899716 948.506609zM511.899716 113.944122c-218.866776 0-396.926148 178.064488-396.926148 396.926148 0 218.856543 178.059372 396.926148 396.926148 396.926148 218.868823 0 396.926148-178.069605 396.926148-396.926148C908.825864 292.00861 730.768539 113.944122 511.899716 113.944122zM561.15656 335.324138c-29.853935 0-54.03773-24.189935-54.03773-54.047963 0-29.855982 24.184819-54.047963 54.03773-54.047963 29.838585 0 54.0408 24.191982 54.0408 54.047963C615.19736 311.134203 590.995145 335.324138 561.15656 335.324138zM424.962691 430.321746c0-4.394077 0-8.806573 0-13.19758 42.878576-17.016559 108.943224-10.793834 153.201218-26.418696 1.75804 0 3.510964 0 5.27719 0-21.329794 108.134813-66.391083 206.496028-76.599585 316.955792 2.425236 1.850138 2.086521 1.473561 5.287423 2.623757 33.247218 11.155061 52.320623-66.110697 73.948199-60.727083 21.644973 5.38873-13.548574 43.733037-18.47784 50.193169-19.400862 25.362644-56.465013 68.439742-100.376105 68.657706-31.008224 0.181125-63.159482-19.378349-58.101279-71.301929 5.056156-51.981908 34.219359-124.319423 50.172703-182.263114C472.184179 468.050022 488.801648 429.049776 424.962691 430.321746z" p-id="6580"></path></svg>